{
.appVersion = "1277";
copyright = "Copyright 2010 Google Inc. All Rights Reserved.";
customParameters = (
{
name = glyphOrder;
value = (
.notdef,
null,
nonmarkingreturn,
space,
exclam,
quotedbl,
numbersign,
dollar,
percent,
ampersand,
quotesingle,
parenleft,
parenright,
asterisk,
plus,
comma,
hyphen,
period,
slash,
zero,
one,
two,
three,
four,
five,
six,
seven,
eight,
nine,
colon,
semicolon,
less,
equal,
greater,
question,
at,
A,
B,
C,
D,
E,
F,
G,
H,
I,
J,
K,
L,
M,
N,
O,
P,
Q,
R,
S,
T,
U,
V,
W,
X,
Y,
Z,
bracketleft,
backslash,
bracketright,
asciicircum,
underscore,
grave,
a,
b,
c,
d,
e,
f,
g,
h,
i,
j,
k,
l,
m,
n,
o,
p,
q,
r,
s,
t,
u,
v,
w,
x,
y,
z,
braceleft,
bar,
braceright,
asciitilde,
Adieresis,
Aring,
Ccedilla,
Eacute,
Ntilde,
Odieresis,
Udieresis,
aacute,
agrave,
acircumflex,
adieresis,
atilde,
aring,
ccedilla,
eacute,
egrave,
ecircumflex,
edieresis,
iacute,
igrave,
icircumflex,
idieresis,
ntilde,
oacute,
ograve,
ocircumflex,
odieresis,
otilde,
uacute,
ugrave,
ucircumflex,
udieresis,
dagger,
degree,
cent,
sterling,
section,
bullet,
paragraph,
germandbls,
registered,
copyright,
trademark,
acute,
dieresis,
notequal,
AE,
Oslash,
infinity,
plusminus,
lessequal,
greaterequal,
yen,
uni00B5,
partialdiff,
summation,
product,
integral,
ordfeminine,
ordmasculine,
uni2126,
ae,
oslash,
questiondown,
exclamdown,
logicalnot,
radical,
florin,
approxequal,
uni2206,
guillemotleft,
guillemotright,
ellipsis,
Agrave,
Atilde,
Otilde,
OE,
oe,
endash,
emdash,
quotedblleft,
quotedblright,
quoteleft,
quoteright,
divide,
lozenge,
ydieresis,
Ydieresis,
fraction,
Euro,
guilsinglleft,
guilsinglright,
uniFB01,
uniFB02,
daggerdbl,
periodcentered,
quotesinglbase,
quotedblbase,
perthousand,
Acircumflex,
Ecircumflex,
Aacute,
Edieresis,
Egrave,
Iacute,
Icircumflex,
Idieresis,
Igrave,
Oacute,
Ocircumflex,
Ograve,
Uacute,
Ucircumflex,
Ugrave,
dotlessi,
circumflex,
tilde,
uni02C9,
breve,
dotaccent,
ring,
cedilla,
hungarumlaut,
ogonek,
caron,
Lslash,
lslash,
Scaron,
scaron,
Zcaron,
zcaron,

glyphs = (
{
glyphname = .notdef;
lastChange = "2019-12-20 16:14:02 +0000";
layers = (
{
layerId = "10338F47-40ED-49C2-8613-307B859987A6";
paths = (
{
closed = 1;
nodes = (
"234 0 LINE",
"1359 0 LINE",
"1359 1409 LINE",
"234 1409 LINE"
);
},
{
closed = 1;
nodes = (
"1283 1333 LINE",
"1283 76 LINE",
"310 76 LINE",
"310 1333 LINE"
);
}
);
width = 1593;
}
);
note = .notdef;
},
{
glyphname = exclam;
lastChange = "2019-12-19 21:32:18 +0000";
layers = (
{
layerId = "10338F47-40ED-49C2-8613-307B859987A6";
paths = (
{
closed = 1;
nodes = (
"400 143 OFFCURVE",
"330 213 OFFCURVE",
"279 213 QCURVE SMOOTH",
"228 213 OFFCURVE",
"158 143 OFFCURVE",
"158 92 QCURVE SMOOTH",
"158 43 OFFCURVE",
"227 -29 OFFCURVE",
"279 -29 QCURVE SMOOTH",
"331 -29 OFFCURVE",
"400 43 OFFCURVE",
"400 92 QCURVE SMOOTH"
);
},
{
closed = 1;
nodes = (
"269 389 LINE",
"363 389 LINE",
"592 1341 LINE",
"374 1341 LINE"
);
}
);
width = 682;
}
);
note = exclam;
unicode = 0021;
},
{
glyphname = quotedbl;
lastChange = "2019-12-19 21:32:18 +0000";
layers = (
{
layerId = "10338F47-40ED-49C2-8613-307B859987A6";
paths = (
{
closed = 1;
nodes = (
"646 860 LINE",
"720 860 LINE",
"867 1341 LINE",
"670 1341 LINE"
);
},
{
closed = 1;
nodes = (
"261 860 LINE",
"335 860 LINE",
"482 1341 LINE",
"285 1341 LINE"
);
}
);
width = 860;
}
);
note = quotedbl;
unicode = 0022;
},
{
glyphname = numbersign;
lastChange = "2019-12-19 21:32:18 +0000";
layers = (
{
layerId = "10338F47-40ED-49C2-8613-307B859987A6";
paths = (
{
closed = 1;
nodes = (
"745 524 LINE",
"856 831 LINE",
"1038 831 LINE",
"1056 934 LINE",
"892 934 LINE",
"1040 1341 LINE",
"936 1341 LINE",
"788 934 LINE",
"479 934 LINE",
"626 1341 LINE",
"522 1341 LINE",
"374 934 LINE",
"106 934 LINE",
"88 831 LINE",
"338 831 LINE",
"226 524 LINE",
"34 524 LINE",
"17 421 LINE",
"188 421 LINE",
"35 0 LINE",
"140 0 LINE",
"292 421 LINE",
"602 421 LINE",
"449 0 LINE",
"553 0 LINE",
"706 421 LINE",
"966 421 LINE",
"984 524 LINE"
);
},
{
closed = 1;
nodes = (
"442 831 LINE",
"751 831 LINE",
"640 524 LINE",
"331 524 LINE"
);
}
);
width = 1024;
}
);
note = numbersign;
unicode = 0023;
},
{
glyphname = dollar;
lastChange = "2019-12-19 21:32:18 +0000";
layers = (
{
layerId = "10338F47-40ED-49C2-8613-307B859987A6";
paths = (
{
closed = 1;
nodes = (
"24 73 LINE",
"165 -16 OFFCURVE",
"390 -20 QCURVE",
"366 -156 LINE",
"448 -156 LINE",
"472 -18 LINE",
"705 -4 OFFCURVE",
"940 219 OFFCURVE",
"940 414 QCURVE SMOOTH",
"940 491 OFFCURVE",
"872 611 OFFCURVE",
"759 709 OFFCURVE",
"614 787 QCURVE",
"699 1270 LINE",
"810 1260 OFFCURVE",
"872 1210 QCURVE",
"877 1039 LINE",
"942 1039 LINE",
"991 1318 LINE",
"857 1352 OFFCURVE",
"714 1355 QCURVE",
"737 1483 LINE",
"655 1483 LINE",
"632 1355 LINE",
"420 1349 OFFCURVE",
"200 1163 OFFCURVE",
"200 990 QCURVE SMOOTH",
"200 912 OFFCURVE",
"263 797 OFFCURVE",
"372 705 OFFCURVE",
"506 638 QCURVE",
"404 61 LINE",
"321 63 OFFCURVE",
"179 127 OFFCURVE",
"142 180 QCURVE",
"141 371 LINE",
"76 371 LINE"
);
},
{
closed = 1;
nodes = (
"762 244 OFFCURVE",
"622 83 OFFCURVE",
"487 66 QCURVE",
"582 601 LINE",
"655 564 OFFCURVE",
"726 503 OFFCURVE",
"762 428 OFFCURVE",
"762 379 QCURVE SMOOTH"
);
},
{
closed = 1;
nodes = (
"375 1134 OFFCURVE",
"501 1261 OFFCURVE",
"617 1270 QCURVE",
"538 823 LINE",
"450 869 OFFCURVE",
"375 964 OFFCURVE",
"375 1025 QCURVE SMOOTH"
);
}
);
width = 1024;
}
);
note = dollar;
unicode = 0024;
},
{
glyphname = percent;
lastChange = "2019-12-19 21:32:18 +0000";
layers = (
{
layerId = "10338F47-40ED-49C2-8613-307B859987A6";
paths = (
{
closed = 1;
nodes = (
"1511 1362 LINE",
"1400 1362 LINE",
"208 -20 LINE",
"318 -20 LINE"
);
},
{
closed = 1;
nodes = (
"711 623 OFFCURVE",
"778 995 QCURVE SMOOTH",
"789 1056 OFFCURVE",
"789 1103 QCURVE SMOOTH",
"789 1362 OFFCURVE",
"519 1362 QCURVE SMOOTH",
"387 1362 OFFCURVE",
"212 1246 OFFCURVE",
"117 1013 OFFCURVE",
"117 885 QCURVE SMOOTH",
"117 623 OFFCURVE",
"383 623 QCURVE SMOOTH"
);
},
{
closed = 1;
nodes = (
"635 1030 OFFCURVE",
"576 803 OFFCURVE",
"472 696 OFFCURVE",
"395 696 QCURVE SMOOTH",
"325 696 OFFCURVE",
"267 778 OFFCURVE",
"267 854 QCURVE SMOOTH",
"267 941 OFFCURVE",
"324 1181 OFFCURVE",
"422 1288 OFFCURVE",
"500 1288 QCURVE SMOOTH",
"573 1288 OFFCURVE",
"635 1204 OFFCURVE",
"635 1124 QCURVE SMOOTH"
);
},
{
closed = 1;
nodes = (
"1317 -27 OFFCURVE",
"1492 91 OFFCURVE",
"1589 327 OFFCURVE",
"1589 453 QCURVE SMOOTH",
"1589 713 OFFCURVE",
"1320 713 QCURVE SMOOTH",
"993 713 OFFCURVE",
"928 346 QCURVE SMOOTH",
"917 280 OFFCURVE",
"917 234 QCURVE SMOOTH",
"917 -27 OFFCURVE",
"1184 -27 QCURVE SMOOTH"
);
},
{
closed = 1;
nodes = (
"1437 381 OFFCURVE",
"1378 154 OFFCURVE",
"1274 47 OFFCURVE",
"1197 47 QCURVE SMOOTH",
"1127 47 OFFCURVE",
"1069 129 OFFCURVE",
"1069 205 QCURVE SMOOTH",
"1069 290 OFFCURVE",
"1125 533 OFFCURVE",
"1223 639 OFFCURVE",
"1301 639 QCURVE SMOOTH",
"1374 639 OFFCURVE",
"1437 554 OFFCURVE",
"1437 473 QCURVE SMOOTH"
);
}
);
width = 1706;
}
);
note = percent;
unicode = 0025;
},
{
glyphname = ampersand;
lastChange = "2019-12-19 21:32:18 +0000";
layers = (
{
layerId = "10338F47-40ED-49C2-8613-307B859987A6";
paths = (
{
closed = 1;
nodes = (
"1120 1178 OFFCURVE",
"1035 1297 OFFCURVE",
"878 1362 OFFCURVE",
"768 1362 QCURVE SMOOTH",
"587 1362 OFFCURVE",
"381 1184 OFFCURVE",
"381 1037 QCURVE SMOOTH",
"381 971 OFFCURVE",
"427 845 OFFCURVE",
"489 756 QCURVE",
"332 700 OFFCURVE",
"166 583 OFFCURVE",
"87 432 OFFCURVE",
"87 340 QCURVE SMOOTH",
"87 166 OFFCURVE",
"327 -20 OFFCURVE",
"548 -20 QCURVE SMOOTH",
"676 -20 OFFCURVE",
"888 50 OFFCURVE",
"1005 137 QCURVE",
"1118 0 LINE",
"1462 0 LINE",
"1472 54 LINE",
"1310 78 LINE",
"1142 272 LINE",
"1311 454 OFFCURVE",
"1432 727 QCURVE",
"1576 754 LINE",
"1585 807 LINE",
"1128 807 LINE",
"1119 754 LINE",
"1256 727 LINE",
"1218 554 OFFCURVE",
"1071 356 QCURVE",
"727 758 LINE",
"908 823 OFFCURVE",
"1043 908 OFFCURVE",
"1120 1022 OFFCURVE",
"1120 1102 QCURVE SMOOTH"
);
},
{
closed = 1;
nodes = (
"936 219 LINE",
"857 145 OFFCURVE",
"668 66 OFFCURVE",
"568 66 QCURVE SMOOTH",
"434 66 OFFCURVE",
"285 214 OFFCURVE",
"285 343 QCURVE SMOOTH",
"285 461 OFFCURVE",
"404 630 OFFCURVE",
"538 687 QCURVE"
);
},
{
closed = 1;
nodes = (
"561 1168 OFFCURVE",
"663 1282 OFFCURVE",
"768 1282 QCURVE SMOOTH",
"853 1282 OFFCURVE",
"953 1182 OFFCURVE",
"953 1090 QCURVE SMOOTH",
"953 1027 OFFCURVE",
"901 938 OFFCURVE",
"803 872 OFFCURVE",
"673 823 QCURVE",
"622 889 OFFCURVE",
"561 1008 OFFCURVE",
"561 1071 QCURVE SMOOTH"
);
}
);
width = 1593;
}
);
note = ampersand;
unicode = 0026;
},
{
glyphname = quotesingle;
lastChange = "2019-12-19 21:32:18 +0000";
layers = (
{
layerId = "10338F47-40ED-49C2-8613-307B859987A6";
paths = (
{
closed = 1;
nodes = (
"245 860 LINE",
"319 860 LINE",
"466 1341 LINE",
"269 1341 LINE"
);
}
);
width = 438;
}
);
note = quotesingle;
unicode = 0027;
},
{
glyphname = parenleft;
lastChange = "2019-12-19 21:32:18 +0000";
layers = (
{
layerId = "10338F47-40ED-49C2-8613-307B859987A6";
paths = (
{
closed = 1;
nodes = (
"251 276 OFFCURVE",
"341 768 OFFCURVE",
"459 1054 OFFCURVE",
"639 1267 OFFCURVE",
"772 1337 QCURVE",
"787 1421 LINE",
"582 1321 OFFCURVE",
"328 1096 OFFCURVE",
"163 796 OFFCURVE",
"72 389 OFFCURVE",
"72 213 QCURVE SMOOTH",
"72 -7 OFFCURVE",
"253 -315 OFFCURVE",
"460 -436 QCURVE",
"475 -352 LINE",
"251 -208 OFFCURVE",
"251 131 QCURVE SMOOTH"
);
}
);
width = 682;
}
);
note = parenleft;
unicode = 0028;
},
{
glyphname = parenright;
lastChange = "2019-12-19 21:32:18 +0000";
layers = (
{
layerId = "10338F47-40ED-49C2-8613-307B859987A6";
paths = (
{
closed = 1;
nodes = (
"106 -337 OFFCURVE",
"362 -110 OFFCURVE",
"528 195 OFFCURVE",
"619 605 OFFCURVE",
"619 772 QCURVE SMOOTH",
"619 991 OFFCURVE",
"441 1295 OFFCURVE",
"229 1421 QCURVE",
"214 1337 LINE",
"327 1265 OFFCURVE",
"438 1028 OFFCURVE",
"438 854 QCURVE SMOOTH",
"438 691 OFFCURVE",
"342 201 OFFCURVE",
"226 -73 OFFCURVE",
"49 -283 OFFCURVE",
"-82 -352 QCURVE",
"-97 -436 LINE"
);
}
);
width = 682;
}
);
note = parenright;
unicode = 0029;
},
{
glyphname = asterisk;
lastChange = "2019-12-19 21:32:18 +0000";
layers = (
{
layerId = "10338F47-40ED-49C2-8613-307B859987A6";
paths = (
{
closed = 1;
nodes = (
"525 965 LINE",
"197 866 LINE",
"261 723 LINE",
"576 918 LINE",
"533 590 LINE",
"689 590 LINE",
"642 915 LINE",
"959 727 LINE",
"1023 868 LINE",
"691 965 LINE",
"1023 1063 LINE",
"959 1204 LINE",
"642 1014 LINE",
"689 1341 LINE",
"533 1341 LINE",
"576 1014 LINE",
"261 1208 LINE",
"197 1065 LINE"
);
}
);
width = 1024;
}
);
note = asterisk;
unicode = 002A;
},
{
glyphname = plus;
lastChange = "2019-12-19 21:32:18 +0000";
layers = (
{
layerId = "10338F47-40ED-49C2-8613-307B859987A6";
paths = (
{
closed = 1;
nodes = (
"1186 629 LINE",
"1186 731 LINE",
"760 731 LINE",
"760 1157 LINE",
"657 1157 LINE",
"657 731 LINE",
"233 731 LINE",
"233 629 LINE",
"657 629 LINE",
"657 203 LINE",
"760 203 LINE",
"760 629 LINE"
);
}
);
width = 1382;
}
);
note = plus;
unicode = 002B;
},
{
glyphname = comma;
lastChange = "2019-12-19 21:32:18 +0000";
layers = (
{
layerId = "10338F47-40ED-49C2-8613-307B859987A6";
paths = (
{
closed = 1;
nodes = (
"383 121 OFFCURVE",
"311 211 OFFCURVE",
"250 211 QCURVE SMOOTH",
"197 211 OFFCURVE",
"129 154 OFFCURVE",
"129 100 QCURVE SMOOTH",
"129 58 OFFCURVE",
"168 15 OFFCURVE",
"215 -14 OFFCURVE",
"254 -42 OFFCURVE",
"254 -70 QCURVE SMOOTH",
"254 -179 OFFCURVE",
"68 -238 QCURVE",
"68 -315 LINE",
"217 -272 OFFCURVE",
"383 -89 OFFCURVE",
"383 42 QCURVE SMOOTH"
);
}
);
width = 512;
}
);
note = comma;
unicode = 002C;
},
{
glyphname = hyphen;
lastChange = "2019-12-19 21:32:18 +0000";
layers = (
{
layerId = "10338F47-40ED-49C2-8613-307B859987A6";
paths = (
{
closed = 1;
nodes = (
"608 406 LINE",
"608 559 LINE",
"76 559 LINE",
"76 406 LINE"
);
}
);
width = 682;
}
);
note = hyphen;
unicode = "002D,00AD";
},
{
glyphname = period;
lastChange = "2019-12-19 21:32:18 +0000";
layers = (
{
layerId = "10338F47-40ED-49C2-8613-307B859987A6";
paths = (
{
closed = 1;
nodes = (
"327 143 OFFCURVE",
"257 213 OFFCURVE",
"206 213 QCURVE SMOOTH",
"155 213 OFFCURVE",
"85 143 OFFCURVE",
"85 92 QCURVE SMOOTH",
"85 43 OFFCURVE",
"154 -29 OFFCURVE",
"206 -29 QCURVE SMOOTH",
"258 -29 OFFCURVE",
"327 43 OFFCURVE",
"327 92 QCURVE SMOOTH"
);
}
);
width = 512;
}
);
note = period;
unicode = 002E;
},
{
glyphname = slash;
lastChange = "2019-12-19 21:32:18 +0000";
layers = (
{
layerId = "10338F47-40ED-49C2-8613-307B859987A6";
paths = (
{
closed = 1;
nodes = (
"725 1350 LINE",
"617 1350 LINE",
"-94 -20 LINE",
"16 -20 LINE"
);
}
);
width = 569;
}
);
note = slash;
unicode = 002F;
},
{
glyphname = zero;
lastChange = "2019-12-19 21:32:18 +0000";
layers = (
{
layerId = "10338F47-40ED-49C2-8613-307B859987A6";
paths = (
{
closed = 1;
nodes = (
"602 -20 OFFCURVE",
"853 223 OFFCURVE",
"998 724 OFFCURVE",
"998 951 QCURVE SMOOTH",
"998 1362 OFFCURVE",
"652 1362 QCURVE SMOOTH",
"474 1362 OFFCURVE",
"223 1121 OFFCURVE",
"79 634 OFFCURVE",
"79 399 QCURVE SMOOTH",
"79 -20 OFFCURVE",
"419 -20 QCURVE SMOOTH"
);
},
{
closed = 1;
nodes = (
"823 794 OFFCURVE",
"710 277 OFFCURVE",
"550 59 OFFCURVE",
"431 59 QCURVE SMOOTH",
"344 59 OFFCURVE",
"249 204 OFFCURVE",
"249 345 QCURVE SMOOTH",
"249 529 OFFCURVE",
"326 933 OFFCURVE",
"420 1166 OFFCURVE",
"548 1282 OFFCURVE",
"634 1282 QCURVE SMOOTH",
"823 1282 OFFCURVE",
"823 992 QCURVE SMOOTH"
);
}
);
width = 1024;
}
);
note = zero;
unicode = 0030;
},
{
glyphname = one;
lastChange = "2019-12-19 21:32:18 +0000";
layers = (
{
layerId = "10338F47-40ED-49C2-8613-307B859987A6";
paths = (
{
closed = 1;
nodes = (
"759 1352 LINE",
"707 1352 LINE",
"277 1130 LINE",
"267 1077 LINE",
"555 1174 LINE",
"362 80 LINE",
"83 53 LINE",
"73 0 LINE",
"794 0 LINE",
"804 53 LINE",
"534 80 LINE"
);
}
);
width = 1024;
}
);
note = one;
unicode = 0031;
},
{
glyphname = two;
lastChange = "2019-12-19 21:32:18 +0000";
layers = (
{
layerId = "10338F47-40ED-49C2-8613-307B859987A6";
paths = (
{
closed = 1;
nodes = (
"848 154 LINE",
"166 154 LINE",
"378 306 LINE SMOOTH",
"602 463 OFFCURVE",
"855 694 OFFCURVE",
"979 936 OFFCURVE",
"979 1067 QCURVE SMOOTH",
"979 1204 OFFCURVE",
"779 1356 OFFCURVE",
"593 1356 QCURVE SMOOTH",
"467 1356 OFFCURVE",
"276 1313 QCURVE",
"231 1055 LINE",
"297 1055 LINE",
"361 1219 LINE",
"402 1241 OFFCURVE",
"523 1272 OFFCURVE",
"578 1272 QCURVE SMOOTH",
"690 1272 OFFCURVE",
"806 1174 OFFCURVE",
"806 1067 QCURVE SMOOTH",
"806 925 OFFCURVE",
"693 680 OFFCURVE",
"459 457 OFFCURVE",
"239 302 QCURVE SMOOTH",
"27 147 LINE",
"1 0 LINE",
"821 0 LINE"
);
}
);
width = 1024;
}
);
note = two;
unicode = 0032;
},
{
glyphname = three;
lastChange = "2019-12-19 21:32:18 +0000";
layers = (
{
layerId = "10338F47-40ED-49C2-8613-307B859987A6";
paths = (
{
closed = 1;
nodes = (
"603 -20 OFFCURVE",
"897 210 OFFCURVE",
"897 408 QCURVE SMOOTH",
"897 527 OFFCURVE",
"739 681 OFFCURVE",
"595 702 QCURVE",
"778 728 OFFCURVE",
"953 916 OFFCURVE",
"953 1065 QCURVE SMOOTH",
"953 1203 OFFCURVE",
"744 1356 OFFCURVE",
"559 1356 QCURVE SMOOTH",
"480 1356 OFFCURVE",
"354 1340 OFFCURVE",
"252 1313 QCURVE",
"207 1055 LINE",
"273 1055 LINE",
"337 1219 LINE",
"381 1242 OFFCURVE",
"498 1272 OFFCURVE",
"552 1272 QCURVE SMOOTH",
"663 1272 OFFCURVE",
"767 1161 OFFCURVE",
"767 1051 QCURVE SMOOTH",
"767 906 OFFCURVE",
"632 759 OFFCURVE",
"491 750 QCURVE SMOOTH",
"346 741 LINE",
"332 659 LINE",
"447 651 LINE SMOOTH",
"716 631 OFFCURVE",
"716 389 QCURVE SMOOTH",
"716 218 OFFCURVE",
"542 63 OFFCURVE",
"357 63 QCURVE SMOOTH",
"295 63 OFFCURVE",
"145 110 OFFCURVE",
"112 135 QCURVE",
"100 323 LINE",
"34 323 LINE",
"-3 41 LINE",
"70 14 OFFCURVE",
"268 -20 OFFCURVE",
"357 -20 QCURVE SMOOTH"
);
}
);
width = 1024;
}
);
note = three;
unicode = 0033;
},
{
glyphname = four;
lastChange = "2019-12-19 21:32:18 +0000";
layers = (
{
layerId = "10338F47-40ED-49C2-8613-307B859987A6";
paths = (
{
closed = 1;
nodes = (
"956 308 LINE",
"978 438 LINE",
"776 438 LINE",
"936 1348 LINE",
"776 1348 LINE",
"25 428 LINE",
"5 308 LINE",
"592 308 LINE",
"537 0 LINE",
"699 0 LINE",
"754 308 LINE"
);
},
{
closed = 1;
nodes = (
"709 979 LINE",
"614 438 LINE",
"149 438 LINE",
"752 1180 LINE"
);
}
);
width = 1024;
}
);
note = four;
unicode = 0034;
},
{
glyphname = five;
lastChange = "2019-12-19 21:32:18 +0000";
layers = (
{
layerId = "10338F47-40ED-49C2-8613-307B859987A6";
paths = (
{
closed = 1;
nodes = (
"385 784 OFFCURVE",
"271 760 QCURVE",
"346 1188 LINE",
"936 1188 LINE",
"963 1341 LINE",
"283 1341 LINE",
"166 676 LINE",
"262 676 LINE",
"355 700 OFFCURVE",
"463 700 QCURVE SMOOTH",
"723 700 OFFCURVE",
"723 445 QCURVE SMOOTH",
"723 249 OFFCURVE",
"545 63 OFFCURVE",
"370 63 QCURVE SMOOTH",
"312 63 OFFCURVE",
"184 94 OFFCURVE",
"148 117 QCURVE",
"136 305 LINE",
"70 305 LINE",
"32 23 LINE",
"183 -20 OFFCURVE",
"356 -20 QCURVE SMOOTH",
"623 -20 OFFCURVE",
"906 226 OFFCURVE",
"906 454 QCURVE SMOOTH",
"906 613 OFFCURVE",
"695 784 OFFCURVE",
"490 784 QCURVE SMOOTH"
);
}
);
width = 1024;
}
);
note = five;
unicode = 0035;
},
{
glyphname = six;
lastChange = "2019-12-19 21:32:18 +0000";
layers = (
{
layerId = "10338F47-40ED-49C2-8613-307B859987A6";
paths = (
{
closed = 1;
nodes = (
"622 -20 OFFCURVE",
"836 112 OFFCURVE",
"948 347 OFFCURVE",
"948 499 QCURVE SMOOTH",
"948 641 OFFCURVE",
"767 803 OFFCURVE",
"604 803 QCURVE SMOOTH",
"532 803 OFFCURVE",
"361 751 OFFCURVE",
"285 706 QCURVE",
"333 972 OFFCURVE",
"560 1272 OFFCURVE",
"716 1272 QCURVE SMOOTH",
"807 1272 OFFCURVE",
"896 1212 QCURVE",
"907 1072 LINE",
"973 1072 LINE",
"1014 1303 LINE",
"860 1356 OFFCURVE",
"723 1356 QCURVE SMOOTH",
"543 1356 OFFCURVE",
"246 1114 OFFCURVE",
"83 695 OFFCURVE",
"83 446 QCURVE SMOOTH",
"83 226 OFFCURVE",
"291 -20 OFFCURVE",
"477 -20 QCURVE SMOOTH"
);
},
{
closed = 1;
nodes = (
"260 531 OFFCURVE",
"276 645 QCURVE",
"447 707 OFFCURVE",
"562 707 QCURVE SMOOTH",
"665 707 OFFCURVE",
"762 598 OFFCURVE",
"762 489 QCURVE SMOOTH",
"762 289 OFFCURVE",
"614 59 OFFCURVE",
"479 59 QCURVE SMOOTH",
"372 59 OFFCURVE",
"260 243 OFFCURVE",
"260 411 QCURVE SMOOTH"
);
}
);
width = 1024;
}
);
note = six;
unicode = 0036;
},
{
glyphname = seven;
lastChange = "2019-12-19 21:32:18 +0000";
layers = (
{
layerId = "10338F47-40ED-49C2-8613-307B859987A6";
paths = (
{
closed = 1;
nodes = (
"338 1188 LINE",
"917 1188 LINE",
"120 0 LINE",
"259 0 LINE",
"1080 1264 LINE",
"1094 1341 LINE",
"264 1341 LINE",
"208 1024 LINE",
"274 1024 LINE"
);
}
);
width = 1024;
}
);
note = seven;
unicode = 0037;
},
{
glyphname = eight;
lastChange = "2019-12-19 21:32:18 +0000";
layers = (
{
layerId = "10338F47-40ED-49C2-8613-307B859987A6";
paths = (
{
closed = 1;
nodes = (
"1001 1362 OFFCURVE",
"655 1362 QCURVE SMOOTH",
"435 1362 OFFCURVE",
"202 1154 OFFCURVE",
"202 949 QCURVE SMOOTH",
"202 858 OFFCURVE",
"287 739 OFFCURVE",
"351 711 QCURVE",
"43 619 OFFCURVE",
"43 293 QCURVE SMOOTH",
"43 143 OFFCURVE",
"231 -20 OFFCURVE",
"426 -20 QCURVE SMOOTH",
"927 -20 OFFCURVE",
"927 440 QCURVE SMOOTH",
"927 542 OFFCURVE",
"829 681 OFFCURVE",
"743 711 QCURVE",
"861 745 OFFCURVE",
"1001 950 OFFCURVE",
"1001 1092 QCURVE SMOOTH"
);
},
{
closed = 1;
nodes = (
"220 59 OFFCURVE",
"220 289 QCURVE SMOOTH",
"220 666 OFFCURVE",
"534 666 QCURVE SMOOTH",
"750 666 OFFCURVE",
"750 447 QCURVE SMOOTH",
"750 239 OFFCURVE",
"596 59 OFFCURVE",
"438 59 QCURVE SMOOTH"
);
},
{
closed = 1;
nodes = (
"465 754 OFFCURVE",
"378 852 OFFCURVE",
"378 945 QCURVE SMOOTH",
"378 1119 OFFCURVE",
"511 1282 OFFCURVE",
"644 1282 QCURVE SMOOTH",
"736 1282 OFFCURVE",
"823 1189 OFFCURVE",
"823 1092 QCURVE SMOOTH",
"823 927 OFFCURVE",
"682 754 OFFCURVE",
"551 754 QCURVE SMOOTH"
);
}
);
width = 1024;
}
);
note = eight;
unicode = 0038;
},
{
glyphname = nine;
lastChange = "2019-12-19 21:32:18 +0000";
layers = (
{
layerId = "10338F47-40ED-49C2-8613-307B859987A6";
paths = (
{
closed = 1;
nodes = (
"454 1356 OFFCURVE",
"240 1238 OFFCURVE",
"126 1016 OFFCURVE",
"126 871 QCURVE SMOOTH",
"126 713 OFFCURVE",
"310 533 OFFCURVE",
"470 533 QCURVE SMOOTH",
"539 533 OFFCURVE",
"709 583 OFFCURVE",
"791 631 QCURVE",
"751 368 OFFCURVE",
"533 64 OFFCURVE",
"372 64 QCURVE SMOOTH",
"315 64 OFFCURVE",
"210 95 OFFCURVE",
"176 115 QCURVE",
"165 255 LINE",
"99 255 LINE",
"60 34 LINE",
"195 -20 OFFCURVE",
"376 -20 QCURVE SMOOTH",
"544 -20 OFFCURVE",
"825 213 OFFCURVE",
"991 635 OFFCURVE",
"991 890 QCURVE SMOOTH",
"991 1114 OFFCURVE",
"786 1356 OFFCURVE",
"597 1356 QCURVE SMOOTH"
);
},
{
closed = 1;
nodes = (
"814 804 OFFCURVE",
"800 690 QCURVE",
"658 629 OFFCURVE",
"521 629 QCURVE SMOOTH",
"423 629 OFFCURVE",
"312 750 OFFCURVE",
"312 876 QCURVE SMOOTH",
"312 1065 OFFCURVE",
"459 1277 OFFCURVE",
"595 1277 QCURVE SMOOTH",
"702 1277 OFFCURVE",
"814 1093 OFFCURVE",
"814 925 QCURVE SMOOTH"
);
}
);
width = 1024;
}
);
note = nine;
unicode = 0039;
},
{
glyphname = colon;
lastChange = "2019-12-19 21:32:18 +0000";
layers = (
{
layerId = "10338F47-40ED-49C2-8613-307B859987A6";
paths = (
{
closed = 1;
nodes = (
"379 143 OFFCURVE",
"309 213 OFFCURVE",
"258 213 QCURVE SMOOTH",
"207 213 OFFCURVE",
"137 143 OFFCURVE",
"137 92 QCURVE SMOOTH",
"137 43 OFFCURVE",
"206 -29 OFFCURVE",
"258 -29 QCURVE SMOOTH",
"310 -29 OFFCURVE",
"379 43 OFFCURVE",
"379 92 QCURVE SMOOTH"
);
},
{
closed = 1;
nodes = (
"520 890 OFFCURVE",
"450 960 OFFCURVE",
"399 960 QCURVE SMOOTH",
"348 960 OFFCURVE",
"278 890 OFFCURVE",
"278 839 QCURVE SMOOTH",
"278 790 OFFCURVE",
"347 718 OFFCURVE",
"399 718 QCURVE SMOOTH",
"451 718 OFFCURVE",
"520 790 OFFCURVE",
"520 839 QCURVE SMOOTH"
);
}
);
width = 682;
}
);
note = colon;
unicode = 003A;
},
{
glyphname = semicolon;
lastChange = "2019-12-19 21:32:18 +0000";
layers = (
{
layerId = "10338F47-40ED-49C2-8613-307B859987A6";
paths = (
{
closed = 1;
nodes = (
"546 890 OFFCURVE",
"476 960 OFFCURVE",
"425 960 QCURVE SMOOTH",
"374 960 OFFCURVE",
"304 890 OFFCURVE",
"304 839 QCURVE SMOOTH",
"304 790 OFFCURVE",
"373 718 OFFCURVE",
"425 718 QCURVE SMOOTH",
"477 718 OFFCURVE",
"546 790 OFFCURVE",
"546 839 QCURVE SMOOTH"
);
},
{
closed = 1;
nodes = (
"410 121 OFFCURVE",
"338 211 OFFCURVE",
"277 211 QCURVE SMOOTH",
"224 211 OFFCURVE",
"156 154 OFFCURVE",
"156 100 QCURVE SMOOTH",
"156 58 OFFCURVE",
"195 15 OFFCURVE",
"242 -14 OFFCURVE",
"281 -42 OFFCURVE",
"281 -70 QCURVE SMOOTH",
"281 -179 OFFCURVE",
"95 -238 QCURVE",
"95 -315 LINE",
"244 -272 OFFCURVE",
"410 -89 OFFCURVE",
"410 42 QCURVE SMOOTH"
);
}
);
width = 682;
}
);
note = semicolon;
unicode = "003B,037E";
},
{
glyphname = less;
lastChange = "2019-12-19 21:32:18 +0000";
layers = (
{
layerId = "10338F47-40ED-49C2-8613-307B859987A6";
paths = (
{
closed = 1;
nodes = (
"1185 186 LINE",
"1185 289 LINE",
"376 680 LINE",
"1185 1071 LINE",
"1185 1174 LINE",
"232 705 LINE",
"232 655 LINE"
);
}
);
width = 1382;
}
);
note = less;
unicode = 003C;
},
{
glyphname = equal;
lastChange = "2019-12-19 21:32:18 +0000";
layers = (
{
layerId = "10338F47-40ED-49C2-8613-307B859987A6";
paths = (
{
closed = 1;
nodes = (
"233 526 LINE",
"233 424 LINE",
"1186 424 LINE",
"1186 526 LINE"
);
},
{
closed = 1;
nodes = (
"233 936 LINE",
"233 834 LINE",
"1186 834 LINE",
"1186 936 LINE"
);
}
);
width = 1382;
}
);
note = equal;
unicode = 003D;
},
{
glyphname = greater;
lastChange = "2019-12-19 21:32:18 +0000";
layers = (
{
layerId = "10338F47-40ED-49C2-8613-307B859987A6";
paths = (
{
closed = 1;
nodes = (
"1185 655 LINE",
"1185 705 LINE",
"232 1174 LINE",
"232 1071 LINE",
"1041 680 LINE",
"232 289 LINE",
"232 186 LINE"
);
}
);
width = 1382;
}
);
note = greater;
unicode = 003E;
},
{
glyphname = question;
lastChange = "2019-12-19 21:32:18 +0000";
layers = (
{
layerId = "10338F47-40ED-49C2-8613-307B859987A6";
paths = (
{
closed = 1;
nodes = (
"561 610 LINE",
"620 623 LINE SMOOTH",
"1007 706 OFFCURVE",
"1007 1063 QCURVE SMOOTH",
"1007 1356 OFFCURVE",
"641 1356 QCURVE SMOOTH",
"481 1356 OFFCURVE",
"322 1290 QCURVE",
"291 1036 LINE",
"357 1036 LINE",
"407 1200 LINE",
"443 1228 OFFCURVE",
"570 1272 OFFCURVE",
"630 1272 QCURVE SMOOTH",
"829 1272 OFFCURVE",
"829 1051 QCURVE SMOOTH",
"829 897 OFFCURVE",
"718 735 OFFCURVE",
"603 713 QCURVE SMOOTH",
"455 684 LINE",
"422 350 LINE",
"502 350 LINE"
);
},
{
closed = 1;
nodes = (
"545 144 OFFCURVE",
"475 213 OFFCURVE",
"425 213 QCURVE SMOOTH",
"374 213 OFFCURVE",
"304 143 OFFCURVE",
"304 92 QCURVE SMOOTH",
"304 43 OFFCURVE",
"373 -29 OFFCURVE",
"425 -29 QCURVE SMOOTH",
"476 -29 OFFCURVE",
"545 43 OFFCURVE",
"545 92 QCURVE SMOOTH"
);
}
);
width = 1024;
}
);
note = question;
unicode = 003F;
},
{
glyphname = at;
lastChange = "2019-12-19 21:32:18 +0000";
layers = (
{
layerId = "10338F47-40ED-49C2-8613-307B859987A6";
paths = (
{
closed = 1;
nodes = (
"1436 -133 LINE",
"1303 -228 OFFCURVE",
"1054 -305 OFFCURVE",
"906 -305 QCURVE SMOOTH",
"706 -305 OFFCURVE",
"412 -134 OFFCURVE",
"257 170 OFFCURVE",
"257 365 QCURVE SMOOTH",
"257 626 OFFCURVE",
"472 1055 OFFCURVE",
"845 1282 OFFCURVE",
"1078 1282 QCURVE SMOOTH",
"1352 1282 OFFCURVE",
"1664 1002 OFFCURVE",
"1664 750 QCURVE SMOOTH",
"1664 596 OFFCURVE",
"1552 306 OFFCURVE",
"1360 143 OFFCURVE",
"1244 143 QCURVE SMOOTH",
"1207 143 OFFCURVE",
"1170 168 OFFCURVE",
"1170 205 QCURVE SMOOTH",
"1170 269 OFFCURVE",
"1193 379 QCURVE SMOOTH",
"1307 909 LINE",
"1259 915 OFFCURVE",
"1221 915 QCURVE SMOOTH",
"1185 915 LINE SMOOTH",
"1055 915 OFFCURVE",
"895 870 OFFCURVE",
"728 747 OFFCURVE",
"617 571 OFFCURVE",
"556 344 OFFCURVE",
"556 225 QCURVE SMOOTH",
"556 134 OFFCURVE",
"635 25 OFFCURVE",
"707 25 QCURVE SMOOTH",
"774 25 OFFCURVE",
"942 114 OFFCURVE",
"1029 201 QCURVE",
"1021 126 OFFCURVE",
"1021 76 QCURVE SMOOTH",
"1021 25 OFFCURVE",
"1086 25 QCURVE SMOOTH",
"1265 25 OFFCURVE",
"1595 227 OFFCURVE",
"1789 562 OFFCURVE",
"1789 752 QCURVE SMOOTH",
"1789 1042 OFFCURVE",
"1420 1364 OFFCURVE",
"1084 1364 QCURVE SMOOTH",
"814 1364 OFFCURVE",
"371 1106 OFFCURVE",
"120 646 OFFCURVE",
"120 362 QCURVE SMOOTH",
"120 144 OFFCURVE",
"307 -200 OFFCURVE",
"650 -389 OFFCURVE",
"875 -389 QCURVE SMOOTH",
"1041 -389 OFFCURVE",
"1328 -294 OFFCURVE",
"1469 -184 QCURVE"
);
},
{
closed = 1;
nodes = (
"1035 274 LINE",
"974 222 OFFCURVE",
"827 160 OFFCURVE",
"771 160 QCURVE SMOOTH",
"691 160 OFFCURVE",
"691 309 QCURVE SMOOTH",
"691 458 OFFCURVE",
"796 722 OFFCURVE",
"971 811 OFFCURVE",
"1101 811 QCURVE",
"1150 807 LINE"
);
}
);
width = 1884;
}
);
note = at;
unicode = 0040;
},
{
glyphname = A;
lastChange = "2019-12-19 21:32:18 +0000";
layers = (
{
layerId = "10338F47-40ED-49C2-8613-307B859987A6";
paths = (
{
closed = 1;
nodes = (
"129 80 LINE",
"334 467 LINE",
"862 467 LINE",
"926 80 LINE",
"783 53 LINE",
"772 0 LINE",
"1247 0 LINE",
"1258 53 LINE",
"1133 80 LINE",
"883 1352 LINE",
"692 1352 LINE",
"10 80 LINE",
"-102 53 LINE",
"-112 0 LINE",
"254 0 LINE",
"264 53 LINE"
);
},
{
closed = 1;
nodes = (
"846 557 LINE",
"379 557 LINE",
"723 1208 LINE"
);
}
);
width = 1251;
}
);
note = A;
unicode = 0041;
},
{
glyphname = B;
lastChange = "2019-12-19 21:32:18 +0000";
layers = (
{
layerId = "10338F47-40ED-49C2-8613-307B859987A6";
paths = (
{
closed = 1;
nodes = (
"473 754 LINE",
"561 1251 LINE",
"719 1251 LINE SMOOTH",
"868 1251 OFFCURVE",
"998 1151 OFFCURVE",
"998 1047 QCURVE SMOOTH",
"998 884 OFFCURVE",
"833 754 OFFCURVE",
"639 754 QCURVE SMOOTH"
);
},
{
closed = 1;
nodes = (
"510 84 OFFCURVE",
"357 90 QCURVE",
"457 664 LINE",
"643 664 LINE SMOOTH",
"810 664 OFFCURVE",
"987 542 OFFCURVE",
"987 406 QCURVE SMOOTH",
"987 233 OFFCURVE",
"807 84 OFFCURVE",
"615 84 QCURVE SMOOTH"
);
},
{
closed = 1;
nodes = (
"232 0 LINE",
"615 -6 LINE SMOOTH",
"905 -6 OFFCURVE",
"1196 195 OFFCURVE",
"1196 410 QCURVE SMOOTH",
"1196 541 OFFCURVE",
"1026 700 OFFCURVE",
"871 713 QCURVE",
"1029 734 OFFCURVE",
"1206 918 OFFCURVE",
"1206 1059 QCURVE SMOOTH",
"1206 1341 OFFCURVE",
"764 1341 QCURVE SMOOTH",
"213 1341 LINE",
"203 1288 LINE",
"371 1262 LINE",
"162 80 LINE",
"29 53 LINE",
"19 0 LINE"
);
}
);
width = 1251;
}
);
note = B;
unicode = 0042;
},
{
glyphname = C;
lastChange = "2019-12-19 21:32:18 +0000";
layers = (
{
layerId = "10338F47-40ED-49C2-8613-307B859987A6";
paths = (
{
closed = 1;
nodes = (
"812 -19 OFFCURVE",
"1077 28 OFFCURVE",
"1192 70 QCURVE",
"1253 385 LINE",
"1188 385 LINE",
"1116 184 LINE",
"1048 131 OFFCURVE",
"830 63 OFFCURVE",
"716 63 QCURVE SMOOTH",
"523 63 OFFCURVE",
"314 288 OFFCURVE",
"314 503 QCURVE SMOOTH",
"314 729 OFFCURVE",
"473 1083 OFFCURVE",
"760 1276 OFFCURVE",
"941 1276 QCURVE SMOOTH",
"1037 1276 OFFCURVE",
"1213 1229 OFFCURVE",
"1275 1186 QCURVE",
"1275 1012 LINE",
"1340 1012 LINE",
"1385 1305 LINE",
"1158 1356 OFFCURVE",
"947 1356 QCURVE SMOOTH",
"702 1356 OFFCURVE",
"321 1151 OFFCURVE",
"114 771 OFFCURVE",
"114 523 QCURVE SMOOTH",
"114 269 OFFCURVE",
"424 -19 OFFCURVE",
"699 -19 QCURVE SMOOTH"
);
}
);
width = 1366;
}
);
note = C;
unicode = 0043;
},
{
glyphname = D;
lastChange = "2019-12-19 21:32:18 +0000";
layers = (
{
layerId = "10338F47-40ED-49C2-8613-307B859987A6";
paths = (
{
closed = 1;
nodes = (
"1238 449 OFFCURVE",
"915 86 OFFCURVE",
"621 86 QCURVE SMOOTH",
"517 86 OFFCURVE",
"357 94 QCURVE",
"561 1251 LINE",
"723 1251 LINE SMOOTH",
"1238 1251 OFFCURVE",
"1238 785 QCURVE SMOOTH"
);
},
{
closed = 1;
nodes = (
"212 1341 LINE",
"203 1288 LINE",
"370 1262 LINE",
"162 80 LINE",
"-14 53 LINE",
"-23 0 LINE",
"629 -4 LINE SMOOTH",
"875 -4 OFFCURVE",
"1247 189 OFFCURVE",
"1448 553 OFFCURVE",
"1448 792 QCURVE SMOOTH",
"1448 1058 OFFCURVE",
"1107 1341 OFFCURVE",
"784 1341 QCURVE SMOOTH"
);
}
);
width = 1479;
}
);
note = D;
unicode = 0044;
},
{
glyphname = E;
lastChange = "2019-12-19 21:32:18 +0000";
layers = (
{
layerId = "10338F47-40ED-49C2-8613-307B859987A6";
paths = (
{
closed = 1;
nodes = (
"161 80 LINE",
"-14 53 LINE",
"-24 0 LINE",
"1046 0 LINE",
"1128 354 LINE",
"1062 354 LINE",
"961 106 LINE",
"876 90 OFFCURVE",
"620 90 QCURVE SMOOTH",
"356 90 LINE",
"453 637 LINE",
"815 637 LINE",
"817 475 LINE",
"881 475 LINE",
"954 887 LINE",
"890 887 LINE",
"830 727 LINE",
"468 727 LINE",
"561 1251 LINE",
"780 1251 LINE SMOOTH",
"992 1251 OFFCURVE",
"1101 1237 QCURVE",
"1095 1020 LINE",
"1161 1020 LINE",
"1218 1341 LINE",
"212 1341 LINE",
"202 1288 LINE",
"370 1262 LINE"
);
}
);
width = 1251;
}
);
note = E;
unicode = 0045;
},
{
glyphname = F;
lastChange = "2019-12-19 21:32:18 +0000";
layers = (
{
layerId = "10338F47-40ED-49C2-8613-307B859987A6";
paths = (
{
closed = 1;
nodes = (
"891 602 LINE",
"894 440 LINE",
"955 440 LINE",
"1027 852 LINE",
"966 852 LINE",
"907 692 LINE",
"462 692 LINE",
"561 1251 LINE",
"830 1251 LINE SMOOTH",
"1043 1251 OFFCURVE",
"1151 1237 QCURVE",
"1145 1020 LINE",
"1211 1020 LINE",
"1268 1341 LINE",
"212 1341 LINE",
"202 1288 LINE",
"370 1262 LINE",
"161 80 LINE",
"-1 53 LINE",
"-11 0 LINE",
"563 0 LINE",
"573 53 LINE",
"354 80 LINE",
"446 602 LINE"
);
}
);
width = 1251;
}
);
note = F;
unicode = 0046;
},
{
glyphname = G;
lastChange = "2019-12-19 21:32:18 +0000";
layers = (
{
layerId = "10338F47-40ED-49C2-8613-307B859987A6";
paths = (
{
closed = 1;
nodes = (
"820 -18 OFFCURVE",
"1064 28 OFFCURVE",
"1215 86 QCURVE",
"1290 506 LINE",
"1426 532 LINE",
"1435 586 LINE",
"940 586 LINE",
"931 532 LINE",
"1098 506 LINE",
"1035 153 LINE",
"972 113 OFFCURVE",
"792 62 OFFCURVE",
"703 62 QCURVE SMOOTH",
"519 62 OFFCURVE",
"314 295 OFFCURVE",
"314 503 QCURVE SMOOTH",
"314 733 OFFCURVE",
"476 1085 OFFCURVE",
"764 1276 OFFCURVE",
"941 1276 QCURVE SMOOTH",
"1152 1276 OFFCURVE",
"1279 1174 QCURVE",
"1276 1008 LINE",
"1343 1008 LINE",
"1394 1296 LINE",
"1178 1356 OFFCURVE",
"947 1356 QCURVE SMOOTH",
"701 1356 OFFCURVE",
"321 1152 OFFCURVE",
"113 774 OFFCURVE",
"113 523 QCURVE SMOOTH",
"113 269 OFFCURVE",
"417 -18 OFFCURVE",
"690 -18 QCURVE SMOOTH"
);
}
);
width = 1479;
}
);
note = G;
unicode = 0047;
},
{
glyphname = H;
lastChange = "2019-12-19 21:32:18 +0000";
layers = (
{
layerId = "10338F47-40ED-49C2-8613-307B859987A6";
paths = (
{
closed = 1;
nodes = (
"512 0 LINE",
"520 53 LINE",
"354 80 LINE",
"453 645 LINE",
"1084 645 LINE",
"985 80 LINE",
"807 53 LINE",
"799 0 LINE",
"1335 0 LINE",
"1344 53 LINE",
"1178 80 LINE",
"1385 1262 LINE",
"1563 1288 LINE",
"1571 1341 LINE",
"1034 1341 LINE",
"1026 1288 LINE",
"1192 1262 LINE",
"1100 735 LINE",
"469 735 LINE",
"561 1262 LINE",
"740 1288 LINE",
"748 1341 LINE",
"211 1341 LINE",
"203 1288 LINE",
"369 1262 LINE",
"162 80 LINE",
"-14 53 LINE",
"-22 0 LINE"
);
}
);
width = 1479;
}
);
note = H;
unicode = 0048;
},
{
glyphname = I;
lastChange = "2019-12-19 21:32:18 +0000";
layers = (
{
layerId = "10338F47-40ED-49C2-8613-307B859987A6";
paths = (
{
closed = 1;
nodes = (
"576 1262 LINE",
"754 1288 LINE",
"762 1341 LINE",
"225 1341 LINE",
"217 1288 LINE",
"383 1262 LINE",
"176 80 LINE",
"0 53 LINE",
"-8 0 LINE",
"527 0 LINE",
"535 53 LINE",
"369 80 LINE"
);
}
);
width = 682;
}
);
note = I;
unicode = 0049;
},
{
glyphname = J;
lastChange = "2019-12-19 21:32:18 +0000";
layers = (
{
layerId = "10338F47-40ED-49C2-8613-307B859987A6";
paths = (
{
closed = 1;
nodes = (
"454 256 LINE SMOOTH",
"421 66 OFFCURVE",
"281 66 QCURVE SMOOTH",
"239 66 OFFCURVE",
"156 97 OFFCURVE",
"143 119 QCURVE",
"138 258 LINE",
"73 258 LINE",
"31 26 LINE",
"72 7 OFFCURVE",
"198 -20 OFFCURVE",
"267 -20 QCURVE SMOOTH",
"597 -20 OFFCURVE",
"677 432 QCURVE SMOOTH",
"823 1262 LINE",
"980 1288 LINE",
"989 1341 LINE",
"473 1341 LINE",
"464 1288 LINE",
"631 1262 LINE"
);
}
);
width = 909;
}
);
note = J;
unicode = 004A;
},
{
glyphname = K;
lastChange = "2019-12-19 21:32:18 +0000";
layers = (
{
layerId = "10338F47-40ED-49C2-8613-307B859987A6";
paths = (
{
closed = 1;
nodes = (
"1034 1341 LINE",
"1024 1288 LINE",
"1143 1262 LINE",
"465 704 LINE",
"563 1262 LINE",
"739 1288 LINE",
"749 1341 LINE",
"212 1341 LINE",
"202 1288 LINE",
"370 1262 LINE",
"161 80 LINE",
"-14 53 LINE",
"-24 0 LINE",
"532 0 LINE",
"542 53 LINE",
"354 80 LINE",
"442 569 LINE",
"585 686 LINE",
"996 0 LINE",
"1303 0 LINE",
"1313 53 LINE",
"1179 80 LINE",
"732 807 LINE",
"1288 1262 LINE",
"1444 1288 LINE",
"1454 1341 LINE"
);
}
);
width = 1366;
}
);
note = K;
unicode = 004B;
},
{
glyphname = L;
lastChange = "2019-12-19 21:32:18 +0000";
layers = (
{
layerId = "10338F47-40ED-49C2-8613-307B859987A6";
paths = (
{
closed = 1;
nodes = (
"563 1262 LINE",
"774 1288 LINE",
"784 1341 LINE",
"212 1341 LINE",
"202 1288 LINE",
"370 1262 LINE",
"161 80 LINE",
"-14 53 LINE",
"-24 0 LINE",
"956 0 LINE",
"1042 385 LINE",
"977 385 LINE",
"866 106 LINE",
"759 86 OFFCURVE",
"569 86 QCURVE SMOOTH",
"355 86 LINE"
);
}
);
width = 1139;
}
);
note = L;
unicode = 004C;
},
{
glyphname = M;
lastChange = "2019-12-19 21:32:18 +0000";
layers = (
{
layerId = "10338F47-40ED-49C2-8613-307B859987A6";
paths = (
{
closed = 1;
nodes = (
"1402 1153 LINE",
"1213 80 LINE",
"1029 53 LINE",
"1019 0 LINE",
"1563 0 LINE",
"1573 53 LINE",
"1405 80 LINE",
"1614 1262 LINE",
"1790 1288 LINE",
"1800 1341 LINE",
"1398 1341 LINE",
"800 318 LINE",
"594 1341 LINE",
"212 1341 LINE",
"202 1288 LINE",
"370 1262 LINE",
"161 80 LINE",
"-14 53 LINE",
"-24 0 LINE",
"432 0 LINE",
"442 53 LINE",
"266 80 LINE",
"455 1153 LINE",
"686 0 LINE",
"721 0 LINE"
);
}
);
width = 1706;
}
);
note = M;
unicode = 004D;
},
{
glyphname = N;
lastChange = "2019-12-19 21:32:18 +0000";
layers = (
{
layerId = "10338F47-40ED-49C2-8613-307B859987A6";
paths = (
{
closed = 1;
nodes = (
"1008 336 LINE",
"609 1341 LINE",
"221 1341 LINE",
"211 1288 LINE",
"379 1262 LINE",
"170 80 LINE",
"-5 53 LINE",
"-15 0 LINE",
"441 0 LINE",
"451 53 LINE",
"275 80 LINE",
"474 1206 LINE",
"955 0 LINE",
"1052 0 LINE",
"1275 1262 LINE",
"1451 1288 LINE",
"1461 1341 LINE",
"1004 1341 LINE",
"994 1288 LINE",
"1170 1262 LINE"
);
}
);
width = 1366;
}
);
note = N;
unicode = 004E;
},
{
glyphname = O;
lastChange = "2019-12-19 21:32:18 +0000";
layers = (
{
layerId = "10338F47-40ED-49C2-8613-307B859987A6";
paths = (
{
closed = 1;
nodes = (
"1231 644 OFFCURVE",
"1072 266 OFFCURVE",
"819 65 OFFCURVE",
"670 65 QCURVE SMOOTH",
"504 65 OFFCURVE",
"303 305 OFFCURVE",
"303 503 QCURVE SMOOTH",
"303 695 OFFCURVE",
"460 1073 OFFCURVE",
"709 1276 OFFCURVE",
"858 1276 QCURVE SMOOTH",
"1026 1276 OFFCURVE",
"1231 1032 OFFCURVE",
"1231 832 QCURVE SMOOTH"
);
},
{
closed = 1;
nodes = (
"885 -20 OFFCURVE",
"1230 187 OFFCURVE",
"1431 585 OFFCURVE",
"1431 822 QCURVE SMOOTH",
"1431 976 OFFCURVE",
"1289 1221 OFFCURVE",
"1032 1356 OFFCURVE",
"871 1356 QCURVE SMOOTH",
"649 1356 OFFCURVE",
"303 1146 OFFCURVE",
"103 755 OFFCURVE",
"103 514 QCURVE SMOOTH",
"103 361 OFFCURVE",
"245 115 OFFCURVE",
"502 -20 OFFCURVE",
"663 -20 QCURVE SMOOTH"
);
}
);
width = 1479;
}
);
note = O;
unicode = 004F;
},
{
glyphname = P;
lastChange = "2019-12-19 21:32:18 +0000";
layers = (
{
layerId = "10338F47-40ED-49C2-8613-307B859987A6";
paths = (
{
closed = 1;
nodes = (
"449 616 LINE",
"561 1251 LINE",
"709 1251 LINE SMOOTH",
"855 1251 OFFCURVE",
"1000 1116 OFFCURVE",
"1000 973 QCURVE SMOOTH",
"1000 616 OFFCURVE",
"612 616 QCURVE SMOOTH"
);
},
{
closed = 1;
nodes = (
"634 526 LINE SMOOTH",
"906 526 OFFCURVE",
"1199 762 OFFCURVE",
"1199 986 QCURVE SMOOTH",
"1199 1162 OFFCURVE",
"965 1341 OFFCURVE",
"749 1341 QCURVE SMOOTH",
"212 1341 LINE",
"202 1288 LINE",
"370 1262 LINE",
"161 80 LINE",
"-1 53 LINE",
"-11 0 LINE",
"563 0 LINE",
"573 53 LINE",
"354 80 LINE",
"433 526 LINE"
);
}
);
width = 1251;
}
);
note = P;
unicode = 0050;
},
{
glyphname = Q;
lastChange = "2019-12-19 21:32:18 +0000";
layers = (
{
layerId = "10338F47-40ED-49C2-8613-307B859987A6";
paths = (
{
closed = 1;
nodes = (
"113 361 OFFCURVE",
"252 118 OFFCURVE",
"505 -19 OFFCURVE",
"665 -20 QCURVE",
"695 -68 LINE SMOOTH",
"792 -227 OFFCURVE",
"930 -332 OFFCURVE",
"1032 -332 QCURVE SMOOTH",
"1079 -332 OFFCURVE",
"1210 -305 OFFCURVE",
"1235 -295 QCURVE",
"1247 -229 LINE",
"1164 -233 LINE SMOOTH",
"1114 -233 OFFCURVE",
"1033 -198 OFFCURVE",
"957 -122 OFFCURVE",
"872 3 QCURVE",
"1043 44 OFFCURVE",
"1299 274 OFFCURVE",
"1441 624 OFFCURVE",
"1441 822 QCURVE SMOOTH",
"1441 976 OFFCURVE",
"1299 1221 OFFCURVE",
"1042 1356 OFFCURVE",
"881 1356 QCURVE SMOOTH",
"659 1356 OFFCURVE",
"313 1146 OFFCURVE",
"113 755 OFFCURVE",
"113 514 QCURVE SMOOTH"
);
},
{
closed = 1;
nodes = (
"1241 644 OFFCURVE",
"1082 266 OFFCURVE",
"829 65 OFFCURVE",
"680 65 QCURVE SMOOTH",
"514 65 OFFCURVE",
"313 305 OFFCURVE",
"313 503 QCURVE SMOOTH",
"313 695 OFFCURVE",
"470 1073 OFFCURVE",
"719 1276 OFFCURVE",
"868 1276 QCURVE SMOOTH",
"1036 1276 OFFCURVE",
"1241 1032 OFFCURVE",
"1241 832 QCURVE SMOOTH"
);
}
);
width = 1479;
}
);
note = Q;
unicode = 0051;
},
{
glyphname = R;
lastChange = "2019-12-19 21:32:18 +0000";
layers = (
{
layerId = "10338F47-40ED-49C2-8613-307B859987A6";
paths = (
{
closed = 1;
nodes = (
"653 588 LINE",
"899 0 LINE",
"1207 0 LINE",
"1217 53 LINE",
"1070 80 LINE",
"843 616 LINE",
"1193 700 OFFCURVE",
"1193 1016 QCURVE SMOOTH",
"1193 1175 OFFCURVE",
"963 1341 OFFCURVE",
"744 1341 QCURVE SMOOTH",
"212 1341 LINE",
"202 1288 LINE",
"370 1262 LINE",
"161 80 LINE",
"-1 53 LINE",
"-11 0 LINE",
"523 0 LINE",
"533 53 LINE",
"354 80 LINE",
"444 588 LINE"
);
},
{
closed = 1;
nodes = (
"460 678 LINE",
"561 1251 LINE",
"709 1251 LINE SMOOTH",
"995 1251 OFFCURVE",
"995 1010 QCURVE SMOOTH",
"995 851 OFFCURVE",
"798 678 OFFCURVE",
"616 678 QCURVE SMOOTH"
);
}
);
width = 1251;
}
);
note = R;
unicode = 0052;
},
{
glyphname = S;
lastChange = "2019-12-19 21:32:18 +0000";
layers = (
{
layerId = "10338F47-40ED-49C2-8613-307B859987A6";
paths = (
{
closed = 1;
nodes = (
"24 73 LINE",
"90 31 OFFCURVE",
"291 -20 OFFCURVE",
"417 -20 QCURVE SMOOTH",
"671 -20 OFFCURVE",
"940 200 OFFCURVE",
"940 406 QCURVE SMOOTH",
"940 476 OFFCURVE",
"891 584 OFFCURVE",
"810 668 OFFCURVE",
"690 742 OFFCURVE",
"554 813 QCURVE SMOOTH",
"465 858 OFFCURVE",
"375 962 OFFCURVE",
"375 1025 QCURVE SMOOTH",
"375 1142 OFFCURVE",
"519 1272 OFFCURVE",
"652 1272 QCURVE SMOOTH",
"726 1272 OFFCURVE",
"840 1236 OFFCURVE",
"872 1210 QCURVE",
"877 1039 LINE",
"942 1039 LINE",
"991 1318 LINE",
"839 1356 OFFCURVE",
"667 1356 QCURVE SMOOTH",
"442 1356 OFFCURVE",
"200 1167 OFFCURVE",
"200 989 QCURVE SMOOTH",
"200 916 OFFCURVE",
"248 808 OFFCURVE",
"328 725 OFFCURVE",
"429 662 OFFCURVE",
"535 607 OFFCURVE",
"636 553 OFFCURVE",
"716 489 OFFCURVE",
"764 409 OFFCURVE",
"764 355 QCURVE SMOOTH",
"764 216 OFFCURVE",
"587 61 OFFCURVE",
"423 61 QCURVE SMOOTH",
"334 61 OFFCURVE",
"175 130 OFFCURVE",
"142 180 QCURVE",
"141 371 LINE",
"76 371 LINE"
);
}
);
width = 1024;
}
);
note = S;
unicode = 0053;
},
{
glyphname = T;
lastChange = "2019-12-19 21:32:18 +0000";
layers = (
{
layerId = "10338F47-40ED-49C2-8613-307B859987A6";
paths = (
{
closed = 1;
nodes = (
"795 0 LINE",
"805 53 LINE",
"596 80 LINE",
"803 1253 LINE",
"852 1253 LINE SMOOTH",
"1056 1253 OFFCURVE",
"1146 1235 QCURVE",
"1136 1026 LINE",
"1204 1026 LINE",
"1260 1341 LINE",
"190 1341 LINE",
"134 1026 LINE",
"201 1026 LINE",
"265 1235 LINE",
"360 1255 OFFCURVE",
"559 1255 QCURVE SMOOTH",
"610 1255 LINE",
"403 80 LINE",
"186 53 LINE",
"176 0 LINE"
);
}
);
width = 1139;
}
);
note = T;
unicode = 0054;
},
{
glyphname = U;
lastChange = "2019-12-19 21:32:18 +0000";
layers = (
{
layerId = "10338F47-40ED-49C2-8613-307B859987A6";
paths = (
{
closed = 1;
nodes = (
"1157 453 LINE SMOOTH",
"1128 282 OFFCURVE",
"887 92 OFFCURVE",
"696 92 QCURVE SMOOTH",
"396 92 OFFCURVE",
"396 355 QCURVE SMOOTH",
"396 403 OFFCURVE",
"406 457 QCURVE SMOOTH",
"547 1262 LINE",
"724 1288 LINE",
"733 1341 LINE",
"197 1341 LINE",
"188 1288 LINE",
"355 1262 LINE",
"212 453 LINE SMOOTH",
"202 403 OFFCURVE",
"202 348 QCURVE SMOOTH",
"202 169 OFFCURVE",
"446 -20 OFFCURVE",
"679 -20 QCURVE SMOOTH",
"915 -20 OFFCURVE",
"1223 232 OFFCURVE",
"1263 461 QCURVE SMOOTH",
"1404 1262 LINE",
"1581 1288 LINE",
"1590 1341 LINE",
"1133 1341 LINE",
"1124 1288 LINE",
"1299 1262 LINE"
);
}
);
width = 1479;
}
);
note = U;
unicode = 0055;
},
{
glyphname = V;
lastChange = "2019-12-19 21:32:18 +0000";
layers = (
{
layerId = "10338F47-40ED-49C2-8613-307B859987A6";
paths = (
{
closed = 1;
nodes = (
"1045 1341 LINE",
"1034 1288 LINE",
"1186 1262 LINE",
"649 283 LINE",
"431 1262 LINE",
"600 1288 LINE",
"610 1341 LINE",
"117 1341 LINE",
"107 1288 LINE",
"234 1262 LINE",
"529 -31 LINE",
"580 -31 LINE",
"1307 1262 LINE",
"1438 1288 LINE",
"1448 1341 LINE"
);
}
);
width = 1251;
}
);
note = V;
unicode = 0056;
},
{
glyphname = W;
lastChange = "2019-12-19 21:32:18 +0000";
layers = (
{
layerId = "10338F47-40ED-49C2-8613-307B859987A6";
paths = (
{
closed = 1;
nodes = (
"1731 1262 LINE",
"1852 1288 LINE",
"1861 1341 LINE",
"1467 1341 LINE",
"1458 1288 LINE",
"1623 1262 LINE",
"1204 324 LINE",
"1053 1247 LINE",
"1007 1247 LINE",
"581 326 LINE",
"441 1262 LINE",
"602 1288 LINE",
"611 1341 LINE",
"144 1341 LINE",
"135 1288 LINE",
"248 1262 LINE",
"443 -31 LINE",
"508 -31 LINE",
"926 867 LINE",
"1072 -31 LINE",
"1135 -31 LINE"
);
}
);
width = 1706;
}
);
note = W;
unicode = 0057;
},
{
glyphname = X;
lastChange = "2019-12-19 21:32:18 +0000";
layers = (
{
layerId = "10338F47-40ED-49C2-8613-307B859987A6";
paths = (
{
closed = 1;
nodes = (
"1155 1262 LINE",
"1307 1288 LINE",
"1317 1341 LINE",
"908 1341 LINE",
"898 1288 LINE",
"1030 1262 LINE",
"711 853 LINE",
"571 1262 LINE",
"715 1288 LINE",
"725 1341 LINE",
"232 1341 LINE",
"222 1288 LINE",
"369 1262 LINE",
"573 686 LINE",
"93 80 LINE",
"-58 53 LINE",
"-68 0 LINE",
"369 0 LINE",
"379 53 LINE",
"217 80 LINE",
"614 587 LINE",
"789 80 LINE",
"625 53 LINE",
"615 0 LINE",
"1128 0 LINE",
"1138 53 LINE",
"990 80 LINE",
"751 753 LINE"
);
}
);
width = 1251;
}
);
note = X;
unicode = 0058;
},
{
glyphname = Y;
lastChange = "2019-12-19 21:32:18 +0000";
layers = (
{
layerId = "10338F47-40ED-49C2-8613-307B859987A6";
paths = (
{
closed = 1;
nodes = (
"688 528 LINE",
"1160 1262 LINE",
"1311 1288 LINE",
"1321 1341 LINE",
"885 1341 LINE",
"875 1288 LINE",
"1051 1262 LINE",
"658 635 LINE",
"470 1262 LINE",
"664 1288 LINE",
"674 1341 LINE",
"127 1341 LINE",
"117 1288 LINE",
"264 1262 LINE",
"494 522 LINE",
"416 80 LINE",
"199 53 LINE",
"189 0 LINE",
"808 0 LINE",
"818 53 LINE",
"609 80 LINE"
);
}
);
width = 1139;
}
);
note = Y;
unicode = 0059;
},
{
glyphname = Z;
lastChange = "2019-12-19 21:32:18 +0000";
layers = (
{
layerId = "10338F47-40ED-49C2-8613-307B859987A6";
paths = (
{
closed = 1;
nodes = (
"42 94 LINE",
"25 0 LINE",
"998 0 LINE",
"1091 373 LINE",
"1021 373 LINE",
"917 117 LINE",
"873 107 OFFCURVE",
"626 84 OFFCURVE",
"507 84 QCURVE SMOOTH",
"267 84 LINE",
"1140 1255 LINE",
"1156 1341 LINE",
"283 1341 LINE",
"227 1024 LINE",
"296 1024 LINE",
"364 1235 LINE",
"459 1255 OFFCURVE",
"707 1255 QCURVE SMOOTH",
"907 1255 LINE"
);
}
);
width = 1139;
}
);
note = Z;
unicode = 005A;
},
{
glyphname = bracketleft;
lastChange = "2019-12-19 21:32:18 +0000";
layers = (
{
layerId = "10338F47-40ED-49C2-8613-307B859987A6";
paths = (
{
closed = 1;
nodes = (
"574 -274 LINE",
"582 -227 LINE",
"292 -186 LINE",
"560 1333 LINE",
"865 1374 LINE",
"873 1421 LINE",
"417 1421 LINE",
"118 -274 LINE"
);
}
);
width = 797;
}
);
note = bracketleft;
unicode = 005B;
},
{
glyphname = backslash;
lastChange = "2019-12-19 21:32:18 +0000";
layers = (
{
layerId = "10338F47-40ED-49C2-8613-307B859987A6";
paths = (
{
closed = 1;
nodes = (
"369 -20 LINE",
"470 -20 LINE",
"256 1350 LINE",
"158 1350 LINE"
);
}
);
width = 569;
}
);
note = backslash;
unicode = 005C;
},
{
glyphname = bracketright;
lastChange = "2019-12-19 21:32:18 +0000";
layers = (
{
layerId = "10338F47-40ED-49C2-8613-307B859987A6";
paths = (
{
closed = 1;
nodes = (
"406 -274 LINE",
"705 1421 LINE",
"249 1421 LINE",
"241 1374 LINE",
"530 1333 LINE",
"262 -186 LINE",
"-41 -227 LINE",
"-49 -274 LINE"
);
}
);
width = 797;
}
);
note = bracketright;
unicode = 005D;
},
{
glyphname = asciicircum;
lastChange = "2019-12-19 21:32:18 +0000";
layers = (
{
layerId = "10338F47-40ED-49C2-8613-307B859987A6";
paths = (
{
closed = 1;
nodes = (
"72 389 LINE",
"174 389 LINE",
"524 1198 LINE",
"874 389 LINE",
"977 389 LINE",
"549 1341 LINE",
"500 1341 LINE"
);
}
);
width = 864;
}
);
note = asciicircum;
unicode = 005E;
},
{
glyphname = underscore;
lastChange = "2019-12-19 21:32:18 +0000";
layers = (
{
layerId = "10338F47-40ED-49C2-8613-307B859987A6";
paths = (
{
closed = 1;
nodes = (
"1040 -264 LINE",
"1040 -162 LINE",
"-16 -162 LINE",
"-16 -264 LINE"
);
}
);
width = 1024;
}
);
note = underscore;
unicode = 005F;
},
{
glyphname = grave;
lastChange = "2019-12-19 21:32:18 +0000";
layers = (
{
layerId = "10338F47-40ED-49C2-8613-307B859987A6";
paths = (
{
closed = 1;
nodes = (
"665 1118 LINE",
"670 1151 LINE",
"512 1423 LINE",
"309 1423 LINE",
"303 1386 LINE",
"610 1118 LINE"
);
}
);
width = 682;
}
);
note = grave;
unicode = 0060;
},
{
glyphname = a;
lastChange = "2019-12-19 21:32:18 +0000";
layers = (
{
layerId = "10338F47-40ED-49C2-8613-307B859987A6";
paths = (
{
closed = 1;
nodes = (
"947 956 LINE",
"893 956 LINE",
"848 922 LINE",
"741 964 OFFCURVE",
"620 964 QCURVE SMOOTH",
"470 964 OFFCURVE",
"214 793 OFFCURVE",
"61 488 OFFCURVE",
"61 313 QCURVE SMOOTH",
"61 157 OFFCURVE",
"208 -21 OFFCURVE",
"329 -21 QCURVE SMOOTH",
"469 -21 OFFCURVE",
"638 156 QCURVE",
"609 0 LINE",
"894 0 LINE",
"902 45 LINE",
"789 70 LINE"
);
},
{
closed = 1;
nodes = (
"651 243 LINE",
"517 104 OFFCURVE",
"404 104 QCURVE SMOOTH",
"328 104 OFFCURVE",
"240 232 OFFCURVE",
"240 339 QCURVE SMOOTH",
"240 478 OFFCURVE",
"336 734 OFFCURVE",
"503 885 OFFCURVE",
"603 885 QCURVE SMOOTH",
"653 885 OFFCURVE",
"721 864 OFFCURVE",
"760 837 QCURVE"
);
}
);
width = 1024;
}
);
note = a;
unicode = 0061;
},
{
glyphname = b;
lastChange = "2019-12-19 21:32:18 +0000";
layers = (
{
layerId = "10338F47-40ED-49C2-8613-307B859987A6";
paths = (
{
closed = 1;
nodes = (
"76 64 LINE",
"139 25 OFFCURVE",
"308 -20 OFFCURVE",
"396 -20 QCURVE SMOOTH",
"551 -20 OFFCURVE",
"813 154 OFFCURVE",
"962 459 OFFCURVE",
"962 631 QCURVE SMOOTH",
"962 786 OFFCURVE",
"812 965 OFFCURVE",
"687 965 QCURVE SMOOTH",
"616 965 OFFCURVE",
"447 869 OFFCURVE",
"367 787 QCURVE",
"389 866 OFFCURVE",
"406 980 QCURVE SMOOTH",
"480 1421 LINE",
"180 1421 LINE",
"172 1376 LINE",
"305 1352 LINE"
);
},
{
closed = 1;
nodes = (
"354 701 LINE",
"416 762 OFFCURVE",
"553 840 OFFCURVE",
"612 840 QCURVE SMOOTH",
"690 840 OFFCURVE",
"783 717 OFFCURVE",
"783 605 QCURVE SMOOTH",
"783 465 OFFCURVE",
"684 210 OFFCURVE",
"511 59 OFFCURVE",
"409 59 QCURVE SMOOTH",
"306 59 OFFCURVE",
"248 107 QCURVE"
);
}
);
width = 1024;
}
);
note = b;
unicode = 0062;
},
{
glyphname = c;
lastChange = "2019-12-19 21:32:18 +0000";
layers = (
{
layerId = "10338F47-40ED-49C2-8613-307B859987A6";
paths = (
{
closed = 1;
nodes = (
"744 184 LINE",
"589 84 OFFCURVE",
"446 84 QCURVE SMOOTH",
"240 84 OFFCURVE",
"240 340 QCURVE SMOOTH",
"240 492 OFFCURVE",
"340 746 OFFCURVE",
"507 888 OFFCURVE",
"603 888 QCURVE SMOOTH",
"708 888 OFFCURVE",
"771 825 QCURVE",
"787 651 LINE",
"842 651 LINE",
"887 913 LINE",
"835 935 OFFCURVE",
"675 965 OFFCURVE",
"604 965 QCURVE SMOOTH",
"462 965 OFFCURVE",
"203 791 OFFCURVE",
"63 504 OFFCURVE",
"63 330 QCURVE SMOOTH",
"63 166 OFFCURVE",
"239 -20 OFFCURVE",
"400 -20 QCURVE SMOOTH",
"491 -20 OFFCURVE",
"693 67 OFFCURVE",
"774 142 QCURVE"
);
}
);
width = 909;
}
);
note = c;
unicode = 0063;
},
{
glyphname = d;
lastChange = "2019-12-19 21:32:18 +0000";
layers = (
{
layerId = "10338F47-40ED-49C2-8613-307B859987A6";
paths = (
{
closed = 1;
nodes = (
"712 964 OFFCURVE",
"618 964 QCURVE SMOOTH",
"465 964 OFFCURVE",
"209 789 OFFCURVE",
"62 488 OFFCURVE",
"62 317 QCURVE SMOOTH",
"62 164 OFFCURVE",
"206 -21 OFFCURVE",
"329 -21 QCURVE SMOOTH",
"469 -21 OFFCURVE",
"638 156 QCURVE",
"609 0 LINE",
"894 0 LINE",
"902 45 LINE",
"789 70 LINE",
"1029 1421 LINE",
"705 1421 LINE",
"697 1376 LINE",
"851 1352 LINE",
"787 989 OFFCURVE",
"783 941 QCURVE"
);
},
{
closed = 1;
nodes = (
"651 243 LINE",
"590 177 OFFCURVE",
"459 104 OFFCURVE",
"403 104 QCURVE SMOOTH",
"328 104 OFFCURVE",
"240 232 OFFCURVE",
"240 339 QCURVE SMOOTH",
"240 478 OFFCURVE",
"340 738 OFFCURVE",
"504 886 OFFCURVE",
"598 886 QCURVE SMOOTH",
"651 886 OFFCURVE",
"725 860 OFFCURVE",
"760 837 QCURVE"
);
}
);
width = 1024;
}
);
note = d;
unicode = 0064;
},
{
glyphname = e;
lastChange = "2019-12-19 21:32:18 +0000";
layers = (
{
layerId = "10338F47-40ED-49C2-8613-307B859987A6";
paths = (
{
closed = 1;
nodes = (
"863 852 OFFCURVE",
"714 965 OFFCURVE",
"591 965 QCURVE SMOOTH",
"454 965 OFFCURVE",
"204 786 OFFCURVE",
"63 497 OFFCURVE",
"63 330 QCURVE SMOOTH",
"63 161 OFFCURVE",
"238 -20 OFFCURVE",
"400 -20 QCURVE SMOOTH",
"492 -20 OFFCURVE",
"697 64 OFFCURVE",
"789 142 QCURVE",
"760 184 LINE",
"694 145 OFFCURVE",
"542 84 OFFCURVE",
"452 84 QCURVE SMOOTH",
"347 84 OFFCURVE",
"240 213 OFFCURVE",
"240 340 QCURVE",
"244 413 LINE",
"527 432 OFFCURVE",
"863 624 OFFCURVE",
"863 760 QCURVE SMOOTH"
);
},
{
closed = 1;
nodes = (
"271 582 OFFCURVE",
"367 774 OFFCURVE",
"499 888 OFFCURVE",
"569 888 QCURVE SMOOTH",
"627 888 OFFCURVE",
"688 816 OFFCURVE",
"688 760 QCURVE SMOOTH",
"688 647 OFFCURVE",
"450 491 OFFCURVE",
"252 476 QCURVE"
);
}
);
width = 909;
}
);
note = e;
unicode = 0065;
},
{
glyphname = f;
lastChange = "2019-12-19 21:32:18 +0000";
layers = (
{
layerId = "10338F47-40ED-49C2-8613-307B859987A6";
paths = (
{
closed = 1;
nodes = (
"414 856 LINE",
"623 856 LINE",
"637 940 LINE",
"428 940 LINE",
"457 1096 LINE SMOOTH",
"487 1257 OFFCURVE",
"557 1362 OFFCURVE",
"618 1362 QCURVE SMOOTH",
"673 1362 OFFCURVE",
"702 1341 QCURVE",
"721 1227 LINE",
"770 1227 LINE",
"805 1423 LINE",
"743 1442 OFFCURVE",
"666 1442 QCURVE SMOOTH",
"505 1442 OFFCURVE",
"316 1233 OFFCURVE",
"276 1010 QCURVE SMOOTH",
"264 944 LINE",
"94 905 LINE",
"86 856 LINE",
"248 856 LINE",
"23 -436 LINE",
"189 -436 LINE"
);
}
);
width = 569;
}
);
note = f;
unicode = 0066;
},
{
glyphname = g;
lastChange = "2019-12-19 21:32:18 +0000";
layers = (
{
layerId = "10338F47-40ED-49C2-8613-307B859987A6";
paths = (
{
closed = 1;
nodes = (
"337 104 OFFCURVE",
"248 231 OFFCURVE",
"248 339 QCURVE SMOOTH",
"248 482 OFFCURVE",
"346 736 OFFCURVE",
"518 886 OFFCURVE",
"618 886 QCURVE SMOOTH",
"645 886 OFFCURVE",
"687 883 OFFCURVE",
"724 877 OFFCURVE",
"762 867 OFFCURVE",
"786 861 QCURVE",
"676 243 LINE",
"611 178 OFFCURVE",
"474 104 OFFCURVE",
"418 104 QCURVE SMOOTH"
);
},
{
closed = 1;
nodes = (
"623 -75 LINE SMOOTH",
"599 -215 OFFCURVE",
"455 -342 OFFCURVE",
"333 -342 QCURVE SMOOTH",
"181 -342 OFFCURVE",
"100 -263 QCURVE",
"64 -137 LINE",
"19 -137 LINE",
"1 -365 LINE",
"58 -395 OFFCURVE",
"246 -436 OFFCURVE",
"334 -436 QCURVE SMOOTH",
"544 -436 OFFCURVE",
"759 -246 OFFCURVE",
"796 -35 QCURVE SMOOTH",
"964 923 LINE",
"889 941 OFFCURVE",
"696 964 OFFCURVE",
"636 964 QCURVE SMOOTH",
"483 964 OFFCURVE",
"222 789 OFFCURVE",
"69 488 OFFCURVE",
"69 313 QCURVE SMOOTH",
"69 158 OFFCURVE",
"215 -21 OFFCURVE",
"342 -21 QCURVE SMOOTH",
"413 -21 OFFCURVE",
"590 81 OFFCURVE",
"662 160 QCURVE"
);
}
);
width = 1024;
}
);
note = g;
unicode = 0067;
},
{
glyphname = h;
lastChange = "2019-12-19 21:32:18 +0000";
layers = (
{
layerId = "10338F47-40ED-49C2-8613-307B859987A6";
paths = (
{
closed = 1;
nodes = (
"74 0 LINE",
"239 0 LINE",
"350 633 LINE",
"406 724 OFFCURVE",
"580 849 OFFCURVE",
"655 849 QCURVE SMOOTH",
"707 849 OFFCURVE",
"755 793 OFFCURVE",
"755 748 QCURVE SMOOTH",
"755 709 OFFCURVE",
"732 582 QCURVE SMOOTH",
"630 0 LINE",
"931 0 LINE",
"939 45 LINE",
"808 69 LINE",
"913 682 OFFCURVE",
"921 740 OFFCURVE",
"921 754 QCURVE SMOOTH",
"921 856 OFFCURVE",
"819 965 OFFCURVE",
"718 965 QCURVE SMOOTH",
"630 965 OFFCURVE",
"447 854 OFFCURVE",
"367 749 QCURVE",
"383 825 LINE",
"489 1421 LINE",
"201 1421 LINE",
"193 1376 LINE",
"311 1352 LINE"
);
}
);
width = 1024;
}
);
note = h;
unicode = 0068;
},
{
glyphname = i;
lastChange = "2019-12-19 21:32:18 +0000";
layers = (
{
layerId = "10338F47-40ED-49C2-8613-307B859987A6";
paths = (
{
closed = 1;
nodes = (
"445 940 LINE",
"146 940 LINE",
"138 895 LINE",
"267 870 LINE",
"114 0 LINE",
"441 0 LINE",
"449 45 LINE",
"292 70 LINE"
);
},
{
closed = 1;
nodes = (
"507 1292 OFFCURVE",
"443 1356 OFFCURVE",
"398 1356 QCURVE SMOOTH",
"354 1356 OFFCURVE",
"290 1292 OFFCURVE",
"290 1247 QCURVE SMOOTH",
"290 1203 OFFCURVE",
"354 1139 OFFCURVE",
"398 1139 QCURVE SMOOTH",
"443 1139 OFFCURVE",
"507 1203 OFFCURVE",
"507 1247 QCURVE SMOOTH"
);
}
);
width = 569;
}
);
note = i;
unicode = 0069;
},
{
glyphname = j;
lastChange = "2019-12-19 21:32:18 +0000";
layers = (
{
layerId = "10338F47-40ED-49C2-8613-307B859987A6";
paths = (
{
closed = 1;
nodes = (
"80 -436 OFFCURVE",
"249 -241 OFFCURVE",
"285 -39 QCURVE SMOOTH",
"459 940 LINE",
"152 940 LINE",
"144 895 LINE",
"281 870 LINE",
"111 -90 LINE SMOOTH",
"87 -228 OFFCURVE",
"12 -356 OFFCURVE",
"-53 -356 QCURVE SMOOTH",
"-97 -356 OFFCURVE",
"-124 -329 QCURVE",
"-139 -219 LINE",
"-186 -219 LINE",
"-219 -406 LINE",
"-140 -436 OFFCURVE",
"-59 -436 QCURVE SMOOTH"
);
},
{
closed = 1;
nodes = (
"519 1292 OFFCURVE",
"455 1356 OFFCURVE",
"410 1356 QCURVE SMOOTH",
"366 1356 OFFCURVE",
"302 1292 OFFCURVE",
"302 1247 QCURVE SMOOTH",
"302 1203 OFFCURVE",
"366 1139 OFFCURVE",
"410 1139 QCURVE SMOOTH",
"455 1139 OFFCURVE",
"519 1203 OFFCURVE",
"519 1247 QCURVE SMOOTH"
);
}
);
width = 569;
}
);
note = j;
unicode = 006A;
},
{
glyphname = k;
lastChange = "2019-12-19 21:32:18 +0000";
layers = (
{
layerId = "10338F47-40ED-49C2-8613-307B859987A6";
paths = (
{
closed = 1;
nodes = (
"59 0 LINE",
"225 0 LINE",
"287 340 LINE",
"435 479 LINE",
"653 0 LINE",
"889 0 LINE",
"897 45 LINE",
"799 68 LINE",
"556 591 LINE",
"850 872 LINE",
"931 895 LINE",
"939 940 LINE",
"647 940 LINE",
"639 895 LINE",
"733 868 LINE",
"305 453 LINE",
"477 1421 LINE",
"172 1421 LINE",
"164 1376 LINE",
"299 1352 LINE"
);
}
);
width = 909;
}
);
note = k;
unicode = 006B;
},
{
glyphname = l;
lastChange = "2019-12-19 21:32:18 +0000";
layers = (
{
layerId = "10338F47-40ED-49C2-8613-307B859987A6";
paths = (
{
closed = 1;
nodes = (
"524 1421 LINE",
"225 1421 LINE",
"217 1376 LINE",
"346 1352 LINE",
"109 0 LINE",
"436 0 LINE",
"444 45 LINE",
"287 70 LINE"
);
}
);
width = 569;
}
);
note = l;
unicode = 006C;
},
{
glyphname = m;
lastChange = "2019-12-19 21:32:18 +0000";
layers = (
{
layerId = "10338F47-40ED-49C2-8613-307B859987A6";
paths = (
{
closed = 1;
nodes = (
"873 854 OFFCURVE",
"776 965 OFFCURVE",
"688 965 QCURVE SMOOTH",
"611 965 OFFCURVE",
"437 845 OFFCURVE",
"367 746 QCURVE",
"395 940 LINE",
"117 940 LINE",
"109 895 LINE",
"227 870 LINE",
"74 0 LINE",
"240 0 LINE",
"339 576 LINE SMOOTH",
"348 632 OFFCURVE",
"446 759 OFFCURVE",
"574 848 OFFCURVE",
"618 848 QCURVE SMOOTH",
"665 848 OFFCURVE",
"709 793 OFFCURVE",
"709 748 QCURVE SMOOTH",
"709 713 OFFCURVE",
"684 582 QCURVE SMOOTH",
"582 0 LINE",
"748 0 LINE",
"847 576 LINE SMOOTH",
"857 633 OFFCURVE",
"956 764 OFFCURVE",
"1078 848 OFFCURVE",
"1122 848 QCURVE SMOOTH",
"1167 848 OFFCURVE",
"1209 793 OFFCURVE",
"1209 748 QCURVE SMOOTH",
"1209 703 OFFCURVE",
"1186 582 QCURVE SMOOTH",
"1083 0 LINE",
"1384 0 LINE",
"1393 45 LINE",
"1262 70 LINE",
"1364 664 OFFCURVE",
"1373 735 OFFCURVE",
"1373 757 QCURVE SMOOTH",
"1373 858 OFFCURVE",
"1276 965 OFFCURVE",
"1192 965 QCURVE SMOOTH",
"1113 965 OFFCURVE",
"941 843 OFFCURVE",
"873 746 QCURVE"
);
}
);
width = 1479;
}
);
note = m;
unicode = 006D;
},
{
glyphname = n;
lastChange = "2019-12-19 21:32:18 +0000";
layers = (
{
layerId = "10338F47-40ED-49C2-8613-307B859987A6";
paths = (
{
closed = 1;
nodes = (
"755 709 OFFCURVE",
"732 582 QCURVE SMOOTH",
"630 0 LINE",
"931 0 LINE",
"939 45 LINE",
"808 69 LINE",
"913 682 OFFCURVE",
"921 740 OFFCURVE",
"921 754 QCURVE SMOOTH",
"921 856 OFFCURVE",
"819 965 OFFCURVE",
"718 965 QCURVE SMOOTH",
"631 965 OFFCURVE",
"451 857 OFFCURVE",
"367 749 QCURVE",
"394 941 LINE",
"116 941 LINE",
"108 896 LINE",
"226 871 LINE",
"73 0 LINE",
"239 0 LINE",
"349 630 LINE",
"406 723 OFFCURVE",
"581 849 OFFCURVE",
"655 849 QCURVE SMOOTH",
"707 849 OFFCURVE",
"755 793 OFFCURVE",
"755 748 QCURVE SMOOTH"
);
}
);
width = 1024;
}
);
note = n;
unicode = 006E;
},
{
glyphname = o;
lastChange = "2019-12-19 21:32:18 +0000";
layers = (
{
layerId = "10338F47-40ED-49C2-8613-307B859987A6";
paths = (
{
closed = 1;
nodes = (
"237 488 OFFCURVE",
"331 741 OFFCURVE",
"494 887 OFFCURVE",
"585 887 QCURVE SMOOTH",
"683 887 OFFCURVE",
"788 744 OFFCURVE",
"788 606 QCURVE SMOOTH",
"788 461 OFFCURVE",
"692 208 OFFCURVE",
"527 62 OFFCURVE",
"436 62 QCURVE SMOOTH",
"342 62 OFFCURVE",
"237 205 OFFCURVE",
"237 340 QCURVE SMOOTH"
);
},
{
closed = 1;
nodes = (
"580 -20 OFFCURVE",
"825 136 OFFCURVE",
"963 410 OFFCURVE",
"963 571 QCURVE SMOOTH",
"963 752 OFFCURVE",
"763 965 OFFCURVE",
"597 965 QCURVE SMOOTH",
"444 965 OFFCURVE",
"199 809 OFFCURVE",
"61 535 OFFCURVE",
"61 374 QCURVE SMOOTH",
"61 193 OFFCURVE",
"261 -20 OFFCURVE",
"427 -20 QCURVE SMOOTH"
);
}
);
width = 1024;
}
);
note = o;
unicode = 006F;
},
{
glyphname = p;
lastChange = "2019-12-19 21:32:18 +0000";
layers = (
{
layerId = "10338F47-40ED-49C2-8613-307B859987A6";
paths = (
{
closed = 1;
nodes = (
"258 -7 OFFCURVE",
"357 -20 OFFCURVE",
"403 -20 QCURVE SMOOTH",
"554 -20 OFFCURVE",
"812 152 OFFCURVE",
"962 455 OFFCURVE",
"962 631 QCURVE SMOOTH",
"962 787 OFFCURVE",
"815 965 OFFCURVE",
"694 965 QCURVE SMOOTH",
"554 965 OFFCURVE",
"379 788 QCURVE",
"398 940 LINE",
"133 940 LINE",
"125 895 LINE",
"228 870 LINE",
"9 -365 LINE",
"-112 -389 LINE",
"-120 -436 LINE",
"326 -436 LINE",
"334 -389 LINE",
"174 -365 LINE",
"222 -88 LINE",
"233 2 LINE"
);
},
{
closed = 1;
nodes = (
"366 701 LINE",
"422 762 OFFCURVE",
"566 840 OFFCURVE",
"619 840 QCURVE SMOOTH",
"694 840 OFFCURVE",
"783 716 OFFCURVE",
"783 605 QCURVE SMOOTH",
"783 468 OFFCURVE",
"685 205 OFFCURVE",
"524 59 OFFCURVE",
"425 59 QCURVE SMOOTH",
"319 59 OFFCURVE",
"257 107 QCURVE"
);
}
);
width = 1024;
}
);
note = p;
unicode = 0070;
},
{
glyphname = q;
lastChange = "2019-12-19 21:32:18 +0000";
layers = (
{
layerId = "10338F47-40ED-49C2-8613-307B859987A6";
paths = (
{
closed = 1;
nodes = (
"334 107 OFFCURVE",
"243 227 OFFCURVE",
"243 343 QCURVE SMOOTH",
"243 488 OFFCURVE",
"334 743 OFFCURVE",
"495 888 OFFCURVE",
"594 888 QCURVE SMOOTH",
"696 888 OFFCURVE",
"798 861 QCURVE",
"677 178 LINE",
"630 147 OFFCURVE",
"491 107 OFFCURVE",
"419 107 QCURVE SMOOTH"
);
},
{
closed = 1;
nodes = (
"650 32 OFFCURVE",
"634 -55 QCURVE SMOOTH",
"565 -436 LINE",
"856 -436 LINE",
"864 -389 LINE",
"743 -365 LINE",
"976 923 LINE",
"913 938 OFFCURVE",
"708 965 OFFCURVE",
"638 965 QCURVE SMOOTH",
"473 965 OFFCURVE",
"212 800 OFFCURVE",
"68 501 OFFCURVE",
"68 318 QCURVE SMOOTH",
"68 150 OFFCURVE",
"213 -20 OFFCURVE",
"350 -20 QCURVE SMOOTH",
"424 -20 OFFCURVE",
"594 49 OFFCURVE",
"671 107 QCURVE"
);
}
);
width = 1024;
}
);
note = q;
unicode = 0071;
},
{
glyphname = r;
lastChange = "2019-12-19 21:32:18 +0000";
layers = (
{
layerId = "10338F47-40ED-49C2-8613-307B859987A6";
paths = (
{
closed = 1;
nodes = (
"632 965 OFFCURVE",
"447 841 OFFCURVE",
"372 728 QCURVE",
"403 940 LINE",
"126 940 LINE",
"118 895 LINE",
"236 870 LINE",
"83 0 LINE",
"249 0 LINE",
"356 616 LINE",
"427 716 OFFCURVE",
"598 838 OFFCURVE",
"678 838 QCURVE",
"716 711 LINE",
"759 711 LINE",
"803 957 LINE",
"774 965 OFFCURVE",
"724 965 QCURVE SMOOTH"
);
}
);
width = 797;
}
);
note = r;
unicode = 0072;
},
{
glyphname = s;
lastChange = "2019-12-19 21:32:18 +0000";
layers = (
{
layerId = "10338F47-40ED-49C2-8613-307B859987A6";
paths = (
{
closed = 1;
nodes = (
"692 357 OFFCURVE",
"596 481 OFFCURVE",
"492 535 QCURVE SMOOTH",
"375 595 OFFCURVE",
"291 677 OFFCURVE",
"291 731 QCURVE SMOOTH",
"291 810 OFFCURVE",
"389 885 OFFCURVE",
"471 885 QCURVE SMOOTH",
"574 885 OFFCURVE",
"637 829 QCURVE",
"651 721 LINE",
"698 721 LINE",
"735 930 LINE",
"580 965 OFFCURVE",
"467 965 QCURVE SMOOTH",
"309 965 OFFCURVE",
"131 820 OFFCURVE",
"131 688 QCURVE SMOOTH",
"131 608 OFFCURVE",
"229 489 OFFCURVE",
"330 440 QCURVE SMOOTH",
"435 389 OFFCURVE",
"528 297 OFFCURVE",
"528 238 QCURVE SMOOTH",
"528 59 OFFCURVE",
"309 59 QCURVE SMOOTH",
"249 59 OFFCURVE",
"154 103 OFFCURVE",
"128 131 QCURVE",
"111 268 LINE",
"66 268 LINE",
"25 42 LINE",
"167 -20 OFFCURVE",
"305 -20 QCURVE SMOOTH",
"500 -20 OFFCURVE",
"692 125 OFFCURVE",
"692 276 QCURVE SMOOTH"
);
}
);
width = 797;
}
);
note = s;
unicode = 0073;
},
{
glyphname = t;
lastChange = "2019-12-19 21:32:18 +0000";
layers = (
{
layerId = "10338F47-40ED-49C2-8613-307B859987A6";
paths = (
{
closed = 1;
nodes = (
"264 215 OFFCURVE",
"282 307 QCURVE SMOOTH",
"379 856 LINE",
"594 856 LINE",
"610 940 LINE",
"395 940 LINE",
"432 1153 LINE",
"368 1153 LINE",
"231 940 LINE",
"98 901 LINE",
"90 856 LINE",
"213 856 LINE",
"109 270 OFFCURVE",
"98 191 OFFCURVE",
"98 162 QCURVE SMOOTH",
"98 76 OFFCURVE",
"189 -20 OFFCURVE",
"268 -20 QCURVE SMOOTH",
"394 -20 OFFCURVE",
"517 67 QCURVE",
"496 114 LINE",
"417 84 OFFCURVE",
"344 84 QCURVE SMOOTH",
"309 84 OFFCURVE",
"264 129 OFFCURVE",
"264 174 QCURVE SMOOTH"
);
}
);
width = 569;
}
);
note = t;
unicode = 0074;
},
{
glyphname = u;
lastChange = "2019-12-19 21:32:18 +0000";
layers = (
{
layerId = "10338F47-40ED-49C2-8613-307B859987A6";
paths = (
{
closed = 1;
nodes = (
"268 233 OFFCURVE",
"291 359 QCURVE SMOOTH",
"393 940 LINE",
"112 940 LINE",
"104 895 LINE",
"215 871 LINE",
"113 279 OFFCURVE",
"102 202 OFFCURVE",
"102 187 QCURVE SMOOTH",
"102 85 OFFCURVE",
"204 -24 OFFCURVE",
"305 -24 QCURVE SMOOTH",
"393 -24 OFFCURVE",
"573 86 OFFCURVE",
"656 193 QCURVE",
"629 0 LINE",
"907 0 LINE",
"915 45 LINE",
"797 70 LINE",
"950 940 LINE",
"784 940 LINE",
"673 308 LINE",
"617 217 OFFCURVE",
"443 92 OFFCURVE",
"368 92 QCURVE SMOOTH",
"316 92 OFFCURVE",
"268 148 OFFCURVE",
"268 193 QCURVE SMOOTH"
);
}
);
width = 1024;
}
);
note = u;
unicode = 0075;
},
{
glyphname = v;
lastChange = "2019-12-19 21:32:18 +0000";
layers = (
{
layerId = "10338F47-40ED-49C2-8613-307B859987A6";
paths = (
{
closed = 1;
nodes = (
"751 718 OFFCURVE",
"687 614 QCURVE SMOOTH",
"438 208 LINE",
"293 940 LINE",
"37 940 LINE",
"28 895 LINE",
"141 870 LINE",
"330 -20 LINE",
"403 -20 LINE",
"826 657 LINE SMOOTH",
"909 789 OFFCURVE",
"909 877 QCURVE SMOOTH",
"909 917 OFFCURVE",
"883 940 QCURVE",
"693 940 LINE",
"685 895 LINE",
"709 888 OFFCURVE",
"751 844 OFFCURVE",
"751 807 QCURVE SMOOTH"
);
}
);
width = 909;
}
);
note = v;
unicode = 0076;
},
{
glyphname = w;
lastChange = "2019-12-19 21:32:18 +0000";
layers = (
{
layerId = "10338F47-40ED-49C2-8613-307B859987A6";
paths = (
{
closed = 1;
nodes = (
"1268 657 LINE SMOOTH",
"1351 809 OFFCURVE",
"1351 877 QCURVE SMOOTH",
"1351 917 OFFCURVE",
"1325 940 QCURVE",
"1135 940 LINE",
"1127 895 LINE",
"1151 888 OFFCURVE",
"1193 844 OFFCURVE",
"1193 807 QCURVE SMOOTH",
"1193 732 OFFCURVE",
"1136 618 QCURVE SMOOTH",
"939 229 LINE",
"817 834 LINE",
"742 834 LINE",
"433 233 LINE",
"302 940 LINE",
"57 940 LINE",
"49 895 LINE",
"151 870 LINE",
"322 -20 LINE",
"392 -20 LINE",
"710 599 LINE",
"834 -20 LINE",
"900 -20 LINE"
);
}
);
width = 1366;
}
);
note = w;
unicode = 0077;
},
{
glyphname = x;
lastChange = "2019-12-19 21:32:18 +0000";
layers = (
{
layerId = "10338F47-40ED-49C2-8613-307B859987A6";
paths = (
{
closed = 1;
nodes = (
"142 114 OFFCURVE",
"193 183 OFFCURVE",
"248 236 QCURVE SMOOTH",
"419 400 LINE",
"586 0 LINE",
"842 0 LINE",
"850 45 LINE",
"734 66 LINE",
"542 506 LINE",
"756 707 LINE SMOOTH",
"894 838 OFFCURVE",
"894 897 QCURVE SMOOTH",
"894 924 OFFCURVE",
"873 940 QCURVE",
"696 940 LINE",
"688 895 LINE",
"729 881 OFFCURVE",
"747 866 OFFCURVE",
"747 856 QCURVE SMOOTH",
"747 831 OFFCURVE",
"695 761 OFFCURVE",
"631 700 QCURVE SMOOTH",
"507 582 LINE",
"362 940 LINE",
"114 940 LINE",
"106 895 LINE",
"213 870 LINE",
"385 475 LINE",
"112 221 LINE SMOOTH",
"38 153 OFFCURVE",
"-25 71 OFFCURVE",
"-25 43 QCURVE SMOOTH",
"-25 13 OFFCURVE",
"-9 0 QCURVE",
"176 0 LINE",
"184 45 LINE",
"142 56 OFFCURVE",
"142 84 QCURVE SMOOTH"
);
}
);
width = 909;
}
);
note = x;
unicode = 0078;
},
{
glyphname = y;
lastChange = "2019-12-19 21:32:18 +0000";
layers = (
{
layerId = "10338F47-40ED-49C2-8613-307B859987A6";
paths = (
{
closed = 1;
nodes = (
"44 895 LINE",
"156 870 LINE",
"339 12 LINE",
"294 -70 LINE SMOOTH",
"144 -340 OFFCURVE",
"9 -340 QCURVE SMOOTH",
"-48 -340 OFFCURVE",
"-73 -317 QCURVE",
"-89 -221 LINE",
"-134 -221 LINE",
"-171 -424 LINE",
"-103 -442 OFFCURVE",
"-22 -442 QCURVE SMOOTH",
"54 -442 OFFCURVE",
"184 -366 OFFCURVE",
"317 -204 OFFCURVE",
"431 -10 QCURVE SMOOTH",
"827 657 LINE SMOOTH",
"910 798 OFFCURVE",
"910 877 QCURVE SMOOTH",
"910 917 OFFCURVE",
"884 940 QCURVE",
"694 940 LINE",
"686 895 LINE",
"710 888 OFFCURVE",
"752 844 OFFCURVE",
"752 807 QCURVE SMOOTH",
"752 726 OFFCURVE",
"688 614 QCURVE SMOOTH",
"453 208 LINE",
"308 940 LINE",
"52 940 LINE"
);
}
);
width = 909;
}
);
note = y;
unicode = 0079;
},
{
glyphname = z;
lastChange = "2019-12-19 21:32:18 +0000";
layers = (
{
layerId = "10338F47-40ED-49C2-8613-307B859987A6";
paths = (
{
closed = 1;
nodes = (
"645 0 LINE",
"717 274 LINE",
"670 274 LINE",
"594 127 LINE",
"559 105 OFFCURVE",
"453 80 OFFCURVE",
"397 80 QCURVE SMOOTH",
"200 80 LINE",
"762 891 LINE",
"770 940 LINE",
"158 940 LINE",
"113 690 LINE",
"160 690 LINE",
"215 825 LINE",
"239 841 OFFCURVE",
"345 860 OFFCURVE",
"401 860 QCURVE SMOOTH",
"550 860 LINE",
"-14 45 LINE",
"-23 0 LINE"
);
}
);
width = 797;
}
);
note = z;
unicode = 007A;
},
{
glyphname = braceleft;
lastChange = "2019-12-19 21:32:18 +0000";
layers = (
{
layerId = "10338F47-40ED-49C2-8613-307B859987A6";
paths = (
{
closed = 1;
nodes = (
"502 -274 LINE",
"510 -227 LINE",
"448 -227 LINE SMOOTH",
"310 -227 OFFCURVE",
"310 -89 QCURVE SMOOTH",
"310 -54 OFFCURVE",
"318 -12 QCURVE SMOOTH",
"377 322 LINE SMOOTH",
"382 347 OFFCURVE",
"382 378 QCURVE SMOOTH",
"382 456 OFFCURVE",
"300 558 OFFCURVE",
"230 575 QCURVE",
"230 578 LINE",
"321 597 OFFCURVE",
"449 735 OFFCURVE",
"466 829 QCURVE SMOOTH",
"525 1159 LINE SMOOTH",
"544 1265 OFFCURVE",
"640 1374 OFFCURVE",
"731 1374 QCURVE SMOOTH",
"793 1374 LINE",
"801 1421 LINE",
"666 1421 LINE SMOOTH",
"535 1421 OFFCURVE",
"378 1269 OFFCURVE",
"353 1128 QCURVE SMOOTH",
"301 834 LINE SMOOTH",
"260 602 OFFCURVE",
"45 598 QCURVE",
"37 553 LINE",
"131 548 OFFCURVE",
"217 467 OFFCURVE",
"217 386 QCURVE SMOOTH",
"217 350 OFFCURVE",
"210 315 QCURVE SMOOTH",
"158 20 LINE SMOOTH",
"150 -26 OFFCURVE",
"150 -61 QCURVE SMOOTH",
"150 -161 OFFCURVE",
"258 -274 OFFCURVE",
"367 -274 QCURVE SMOOTH"
);
}
);
width = 819;
}
);
note = braceleft;
unicode = 007B;
},
{
glyphname = bar;
lastChange = "2019-12-19 21:32:18 +0000";
layers = (
{
layerId = "10338F47-40ED-49C2-8613-307B859987A6";
paths = (
{
closed = 1;
nodes = (
"369 -442 LINE",
"369 1421 LINE",
"267 1421 LINE",
"267 -442 LINE"
);
}
);
width = 563;
}
);
note = bar;
unicode = 007C;
},
{
glyphname = braceright;
lastChange = "2019-12-19 21:32:18 +0000";
layers = (
{
layerId = "10338F47-40ED-49C2-8613-307B859987A6";
paths = (
{
closed = 1;
nodes = (
"172 -274 LINE SMOOTH",
"298 -274 OFFCURVE",
"459 -119 OFFCURVE",
"484 20 QCURVE SMOOTH",
"536 315 LINE SMOOTH",
"555 429 OFFCURVE",
"681 549 OFFCURVE",
"793 553 QCURVE",
"801 598 LINE",
"715 601 OFFCURVE",
"621 678 OFFCURVE",
"621 765 QCURVE SMOOTH",
"621 796 OFFCURVE",
"627 834 QCURVE SMOOTH",
"679 1128 LINE SMOOTH",
"687 1174 OFFCURVE",
"687 1212 QCURVE SMOOTH",
"687 1421 OFFCURVE",
"471 1421 QCURVE SMOOTH",
"335 1421 LINE",
"327 1374 LINE",
"389 1374 LINE SMOOTH",
"462 1374 OFFCURVE",
"527 1305 OFFCURVE",
"527 1236 QCURVE SMOOTH",
"527 1203 OFFCURVE",
"519 1159 QCURVE SMOOTH",
"460 829 LINE",
"456 777 LINE",
"456 698 OFFCURVE",
"539 594 OFFCURVE",
"608 578 QCURVE",
"608 575 LINE",
"514 554 OFFCURVE",
"388 418 OFFCURVE",
"371 322 QCURVE SMOOTH",
"312 -12 LINE SMOOTH",
"293 -118 OFFCURVE",
"197 -227 OFFCURVE",
"106 -227 QCURVE SMOOTH",
"44 -227 LINE",
"36 -274 LINE"
);
}
);
width = 819;
}
);
note = braceright;
unicode = 007D;
},
{
glyphname = asciitilde;
lastChange = "2019-12-19 21:32:18 +0000";
layers = (
{
layerId = "10338F47-40ED-49C2-8613-307B859987A6";
paths = (
{
closed = 1;
nodes = (
"889 502 OFFCURVE",
"995 578 OFFCURVE",
"1059 716 OFFCURVE",
"1076 846 QCURVE",
"973 846 LINE",
"954 709 OFFCURVE",
"876 604 OFFCURVE",
"807 604 QCURVE SMOOTH",
"772 604 OFFCURVE",
"689 653 OFFCURVE",
"603 725 QCURVE SMOOTH",
"528 788 OFFCURVE",
"409 846 OFFCURVE",
"353 846 QCURVE SMOOTH",
"235 846 OFFCURVE",
"102 689 OFFCURVE",
"84 502 QCURVE",
"185 502 LINE",
"198 634 OFFCURVE",
"276 743 OFFCURVE",
"353 743 QCURVE SMOOTH",
"391 743 OFFCURVE",
"488 686 OFFCURVE",
"562 623 QCURVE SMOOTH",
"701 502 OFFCURVE",
"807 502 QCURVE SMOOTH"
);
}
);
width = 1108;
}
);
note = asciitilde;
unicode = 007E;
},
{
glyphname = Aring;
lastChange = "2019-12-19 21:32:18 +0000";
layers = (
{
layerId = "10338F47-40ED-49C2-8613-307B859987A6";
paths = (
{
closed = 1;
nodes = (
"993 1559 OFFCURVE",
"874 1678 OFFCURVE",
"790 1678 QCURVE SMOOTH",
"706 1678 OFFCURVE",
"587 1559 OFFCURVE",
"587 1475 QCURVE SMOOTH",
"587 1424 OFFCURVE",
"632 1338 OFFCURVE",
"670 1310 QCURVE",
"10 80 LINE",
"-102 53 LINE",
"-112 0 LINE",
"254 0 LINE",
"264 53 LINE",
"129 80 LINE",
"334 467 LINE",
"862 467 LINE",
"926 80 LINE",
"783 53 LINE",
"772 0 LINE",
"1247 0 LINE",
"1258 53 LINE",
"1133 80 LINE",
"893 1300 LINE",
"938 1326 OFFCURVE",
"993 1418 OFFCURVE",
"993 1475 QCURVE SMOOTH"
);
},
{
closed = 1;
nodes = (
"846 557 LINE",
"379 557 LINE",
"723 1208 LINE"
);
},
{
closed = 1;
nodes = (
"913 1422 OFFCURVE",
"838 1352 OFFCURVE",
"790 1352 QCURVE SMOOTH",
"785 1352 LINE SMOOTH",
"736 1352 OFFCURVE",
"667 1425 OFFCURVE",
"667 1475 QCURVE SMOOTH",
"667 1526 OFFCURVE",
"739 1598 OFFCURVE",
"790 1598 QCURVE SMOOTH",
"841 1598 OFFCURVE",
"913 1526 OFFCURVE",
"913 1475 QCURVE SMOOTH"
);
}
);
width = 1251;
}
);
note = Aring;
unicode = 00C5;
},
{
glyphname = dagger;
lastChange = "2019-12-19 21:32:18 +0000";
layers = (
{
layerId = "10338F47-40ED-49C2-8613-307B859987A6";
paths = (
{
closed = 1;
nodes = (
"625 940 LINE",
"1033 893 LINE",
"1060 1049 LINE",
"637 1006 LINE",
"757 1421 LINE",
"601 1421 LINE",
"571 1006 LINE",
"162 1049 LINE",
"135 893 LINE",
"559 940 LINE",
"468 780 LINE",
"361 -240 LINE",
"407 -240 LINE",
"664 780 LINE"
);
}
);
width = 1024;
}
);
note = dagger;
unicode = 2020;
},
{
glyphname = degree;
lastChange = "2019-12-19 21:32:18 +0000";
layers = (
{
layerId = "10338F47-40ED-49C2-8613-307B859987A6";
paths = (
{
closed = 1;
nodes = (
"164 921 OFFCURVE",
"344 741 OFFCURVE",
"474 741 QCURVE SMOOTH",
"556 741 OFFCURVE",
"700 822 OFFCURVE",
"785 967 OFFCURVE",
"785 1051 QCURVE SMOOTH",
"785 1135 OFFCURVE",
"701 1279 OFFCURVE",
"557 1362 OFFCURVE",
"474 1362 QCURVE SMOOTH",
"391 1362 OFFCURVE",
"246 1278 OFFCURVE",
"164 1134 OFFCURVE",
"164 1051 QCURVE SMOOTH"
);
},
{
closed = 1;
nodes = (
"266 1141 OFFCURVE",
"389 1262 OFFCURVE",
"474 1262 QCURVE SMOOTH",
"562 1262 OFFCURVE",
"683 1140 OFFCURVE",
"683 1051 QCURVE SMOOTH",
"683 963 OFFCURVE",
"562 841 OFFCURVE",
"474 841 QCURVE SMOOTH",
"389 841 OFFCURVE",
"266 962 OFFCURVE",
"266 1051 QCURVE SMOOTH"
);
}
);
width = 819;
}
);
note = degree;
unicode = 00B0;
},
{
glyphname = cent;
lastChange = "2019-12-19 21:32:18 +0000";
layers = (
{
layerId = "10338F47-40ED-49C2-8613-307B859987A6";
paths = (
{
closed = 1;
nodes = (
"834 389 LINE",
"699 300 OFFCURVE",
"572 290 QCURVE",
"713 1092 LINE",
"805 1086 OFFCURVE",
"861 1030 QCURVE",
"877 856 LINE",
"932 856 LINE",
"977 1118 LINE",
"870 1161 OFFCURVE",
"727 1169 QCURVE",
"757 1341 LINE",
"675 1341 LINE",
"644 1167 LINE",
"512 1151 OFFCURVE",
"284 980 OFFCURVE",
"153 703 OFFCURVE",
"153 535 QCURVE SMOOTH",
"153 377 OFFCURVE",
"319 191 OFFCURVE",
"471 185 QCURVE",
"439 0 LINE",
"521 0 LINE",
"554 190 LINE",
"633 202 OFFCURVE",
"795 285 OFFCURVE",
"864 347 QCURVE"
);
},
{
closed = 1;
nodes = (
"330 747 OFFCURVE",
"498 1048 OFFCURVE",
"629 1084 QCURVE",
"490 293 LINE",
"330 321 OFFCURVE",
"330 545 QCURVE SMOOTH"
);
}
);
width = 1024;
}
);
note = cent;
unicode = 00A2;
},
{
glyphname = sterling;
lastChange = "2019-12-19 21:32:18 +0000";
layers = (
{
layerId = "10338F47-40ED-49C2-8613-307B859987A6";
paths = (
{
closed = 1;
nodes = (
"201 154 LINE",
"300 228 OFFCURVE",
"399 372 OFFCURVE",
"413 459 QCURVE SMOOTH",
"424 525 OFFCURVE",
"427 629 QCURVE",
"689 629 LINE",
"704 711 LINE",
"426 711 LINE",
"422 851 LINE SMOOTH",
"422 1053 OFFCURVE",
"579 1272 OFFCURVE",
"725 1272 QCURVE SMOOTH",
"775 1272 OFFCURVE",
"876 1243 OFFCURVE",
"908 1222 QCURVE",
"915 1035 LINE",
"980 1035 LINE",
"1025 1313 LINE",
"878 1356 OFFCURVE",
"740 1356 QCURVE SMOOTH",
"504 1356 OFFCURVE",
"251 1116 OFFCURVE",
"251 894 QCURVE SMOOTH",
"251 806 OFFCURVE",
"276 711 QCURVE",
"149 711 LINE",
"134 629 LINE",
"296 629 LINE",
"320 531 OFFCURVE",
"320 477 QCURVE SMOOTH",
"320 399 OFFCURVE",
"229 256 OFFCURVE",
"138 188 QCURVE SMOOTH",
"46 117 LINE",
"26 0 LINE",
"864 0 LINE",
"891 154 LINE"
);
}
);
width = 1024;
}
);
note = sterling;
unicode = 00A3;
},
{
glyphname = section;
lastChange = "2019-12-19 21:32:18 +0000";
layers = (
{
layerId = "10338F47-40ED-49C2-8613-307B859987A6";
paths = (
{
closed = 1;
nodes = (
"784 147 OFFCURVE",
"698 277 OFFCURVE",
"597 340 QCURVE",
"751 361 OFFCURVE",
"919 525 OFFCURVE",
"919 654 QCURVE SMOOTH",
"919 712 OFFCURVE",
"873 807 OFFCURVE",
"790 884 OFFCURVE",
"699 932 QCURVE SMOOTH",
"589 989 OFFCURVE",
"518 1042 OFFCURVE",
"478 1103 OFFCURVE",
"478 1143 QCURVE SMOOTH",
"478 1228 OFFCURVE",
"580 1309 OFFCURVE",
"667 1309 QCURVE SMOOTH",
"776 1309 OFFCURVE",
"841 1253 QCURVE",
"855 1145 LINE",
"900 1145 LINE",
"936 1354 LINE",
"779 1389 OFFCURVE",
"663 1389 QCURVE SMOOTH",
"498 1389 OFFCURVE",
"320 1230 OFFCURVE",
"320 1090 QCURVE SMOOTH",
"320 1016 OFFCURVE",
"401 897 OFFCURVE",
"496 845 QCURVE",
"343 823 OFFCURVE",
"185 664 OFFCURVE",
"185 542 QCURVE SMOOTH",
"185 456 OFFCURVE",
"292 319 OFFCURVE",
"404 256 QCURVE SMOOTH",
"521 190 OFFCURVE",
"622 83 OFFCURVE",
"622 19 QCURVE SMOOTH",
"622 -76 OFFCURVE",
"501 -181 OFFCURVE",
"383 -181 QCURVE SMOOTH",
"321 -181 OFFCURVE",
"201 -139 OFFCURVE",
"171 -109 QCURVE",
"152 28 LINE",
"107 28 LINE",
"66 -202 LINE",
"121 -226 OFFCURVE",
"295 -256 OFFCURVE",
"372 -256 QCURVE SMOOTH",
"784 -256 OFFCURVE",
"784 69 QCURVE SMOOTH"
);
},
{
closed = 1;
nodes = (
"757 510 OFFCURVE",
"630 409 OFFCURVE",
"493 404 QCURVE",
"424 437 OFFCURVE",
"343 522 OFFCURVE",
"343 586 QCURVE SMOOTH",
"343 675 OFFCURVE",
"483 784 OFFCURVE",
"599 790 QCURVE",
"687 744 OFFCURVE",
"757 658 OFFCURVE",
"757 604 QCURVE SMOOTH"
);
}
);
width = 1024;
}
);
note = section;
unicode = 00A7;
},
{
glyphname = bullet;
lastChange = "2019-12-19 21:32:18 +0000";
layers = (
{
layerId = "10338F47-40ED-49C2-8613-307B859987A6";
paths = (
{
closed = 1;
nodes = (
"623 780 OFFCURVE",
"481 922 OFFCURVE",
"379 922 QCURVE SMOOTH",
"278 922 OFFCURVE",
"136 780 OFFCURVE",
"136 678 QCURVE SMOOTH",
"136 576 OFFCURVE",
"278 434 OFFCURVE",
"379 434 QCURVE SMOOTH",
"481 434 OFFCURVE",
"623 576 OFFCURVE",
"623 678 QCURVE SMOOTH"
);
}
);
width = 717;
}
);
note = bullet;
unicode = 2022;
},
{
glyphname = paragraph;
lastChange = "2019-12-19 21:32:18 +0000";
layers = (
{
layerId = "10338F47-40ED-49C2-8613-307B859987A6";
paths = (
{
closed = 1;
nodes = (
"1018 1288 LINE",
"1018 1341 LINE",
"555 1341 LINE SMOOTH",
"345 1341 OFFCURVE",
"121 1146 OFFCURVE",
"121 963 QCURVE SMOOTH",
"121 776 OFFCURVE",
"359 565 OFFCURVE",
"568 565 QCURVE",
"566 -258 LINE",
"660 -258 LINE",
"660 1266 LINE",
"830 1266 LINE",
"830 -258 LINE",
"924 -258 LINE",
"924 1266 LINE"
);
}
);
width = 1071;
}
);
note = paragraph;
unicode = 00B6;
},
{
glyphname = germandbls;
lastChange = "2019-12-19 21:32:18 +0000";
layers = (
{
layerId = "10338F47-40ED-49C2-8613-307B859987A6";
paths = (
{
closed = 1;
nodes = (
"675 851 OFFCURVE",
"737 938 OFFCURVE",
"843 983 OFFCURVE",
"975 997 QCURVE",
"991 1087 OFFCURVE",
"991 1157 QCURVE SMOOTH",
"991 1306 OFFCURVE",
"847 1442 OFFCURVE",
"697 1442 QCURVE SMOOTH",
"518 1442 OFFCURVE",
"304 1249 OFFCURVE",
"270 1061 QCURVE SMOOTH",
"95 70 LINE",
"-50 45 LINE",
"-57 0 LINE",
"249 0 LINE",
"444 1110 LINE SMOOTH",
"487 1362 OFFCURVE",
"683 1362 QCURVE SMOOTH",
"759 1362 OFFCURVE",
"835 1286 OFFCURVE",
"835 1192 QCURVE SMOOTH",
"835 1132 OFFCURVE",
"820 1047 QCURVE",
"517 991 OFFCURVE",
"517 712 QCURVE SMOOTH",
"517 643 OFFCURVE",
"579 533 OFFCURVE",
"642 483 QCURVE SMOOTH",
"705 432 OFFCURVE",
"766 336 OFFCURVE",
"766 277 QCURVE SMOOTH",
"766 177 OFFCURVE",
"668 59 OFFCURVE",
"582 59 QCURVE SMOOTH",
"531 59 OFFCURVE",
"452 97 OFFCURVE",
"434 125 QCURVE",
"424 219 LINE",
"379 219 LINE",
"345 27 LINE",
"375 6 OFFCURVE",
"508 -20 OFFCURVE",
"570 -20 QCURVE SMOOTH",
"741 -20 OFFCURVE",
"927 168 OFFCURVE",
"927 333 QCURVE SMOOTH",
"927 407 OFFCURVE",
"865 523 OFFCURVE",
"801 575 QCURVE SMOOTH",
"732 631 OFFCURVE",
"675 720 OFFCURVE",
"675 775 QCURVE SMOOTH"
);
}
);
width = 1024;
}
);
note = germandbls;
unicode = 00DF;
},
{
glyphname = registered;
lastChange = "2019-12-19 21:32:18 +0000";
layers = (
{
layerId = "10338F47-40ED-49C2-8613-307B859987A6";
paths = (
{
closed = 1;
nodes = (
"118 484 OFFCURVE",
"302 164 OFFCURVE",
"622 -20 OFFCURVE",
"808 -20 QCURVE SMOOTH",
"998 -20 OFFCURVE",
"1319 168 OFFCURVE",
"1500 485 OFFCURVE",
"1500 670 QCURVE SMOOTH",
"1500 859 OFFCURVE",
"1315 1178 OFFCURVE",
"995 1362 OFFCURVE",
"808 1362 QCURVE SMOOTH",
"622 1362 OFFCURVE",
"305 1180 OFFCURVE",
"118 859 OFFCURVE",
"118 670 QCURVE SMOOTH"
);
},
{
closed = 1;
nodes = (
"188 836 OFFCURVE",
"353 1125 OFFCURVE",
"641 1292 OFFCURVE",
"808 1292 QCURVE SMOOTH",
"975 1292 OFFCURVE",
"1261 1128 OFFCURVE",
"1431 838 OFFCURVE",
"1431 670 QCURVE SMOOTH",
"1431 502 OFFCURVE",
"1263 214 OFFCURVE",
"975 49 OFFCURVE",
"808 49 QCURVE SMOOTH",
"642 49 OFFCURVE",
"355 214 OFFCURVE",
"188 503 OFFCURVE",
"188 670 QCURVE SMOOTH"
);
},
{
closed = 1;
nodes = (
"788 625 LINE",
"1017 276 LINE",
"1222 276 LINE",
"1222 319 LINE",
"1138 336 LINE",
"925 643 LINE",
"1013 671 OFFCURVE",
"1103 783 OFFCURVE",
"1103 860 QCURVE SMOOTH",
"1103 966 OFFCURVE",
"944 1081 OFFCURVE",
"788 1081 QCURVE SMOOTH",
"458 1081 LINE",
"458 1040 LINE",
"562 1024 LINE",
"562 336 LINE",
"466 319 LINE",
"466 276 LINE",
"812 276 LINE",
"812 319 LINE",
"698 336 LINE",
"698 625 LINE"
);
},
{
closed = 1;
nodes = (
"962 762 OFFCURVE",
"871 688 OFFCURVE",
"765 688 QCURVE SMOOTH",
"698 688 LINE",
"698 1020 LINE",
"761 1020 LINE SMOOTH",
"876 1020 OFFCURVE",
"962 947 OFFCURVE",
"962 858 QCURVE SMOOTH"
);
}
);
width = 1556;
}
);
note = registered;
unicode = 00AE;
},
{
glyphname = copyright;
lastChange = "2019-12-19 21:32:18 +0000";
layers = (
{
layerId = "10338F47-40ED-49C2-8613-307B859987A6";
paths = (
{
closed = 1;
nodes = (
"118 484 OFFCURVE",
"302 164 OFFCURVE",
"622 -20 OFFCURVE",
"808 -20 QCURVE SMOOTH",
"998 -20 OFFCURVE",
"1319 168 OFFCURVE",
"1500 485 OFFCURVE",
"1500 670 QCURVE SMOOTH",
"1500 859 OFFCURVE",
"1315 1178 OFFCURVE",
"995 1362 OFFCURVE",
"808 1362 QCURVE SMOOTH",
"622 1362 OFFCURVE",
"305 1180 OFFCURVE",
"118 859 OFFCURVE",
"118 670 QCURVE SMOOTH"
);
},
{
closed = 1;
nodes = (
"188 836 OFFCURVE",
"353 1125 OFFCURVE",
"641 1292 OFFCURVE",
"808 1292 QCURVE SMOOTH",
"975 1292 OFFCURVE",
"1261 1128 OFFCURVE",
"1431 838 OFFCURVE",
"1431 670 QCURVE SMOOTH",
"1431 502 OFFCURVE",
"1263 214 OFFCURVE",
"975 49 OFFCURVE",
"808 49 QCURVE SMOOTH",
"642 49 OFFCURVE",
"355 214 OFFCURVE",
"188 503 OFFCURVE",
"188 670 QCURVE SMOOTH"
);
},
{
closed = 1;
nodes = (
"983 258 OFFCURVE",
"1107 297 QCURVE",
"1111 496 LINE",
"1062 496 LINE",
"1040 377 LINE",
"966 317 OFFCURVE",
"825 317 QCURVE SMOOTH",
"556 317 OFFCURVE",
"556 666 QCURVE SMOOTH",
"556 854 OFFCURVE",
"684 1024 OFFCURVE",
"831 1024 QCURVE SMOOTH",
"949 1024 OFFCURVE",
"1031 973 QCURVE",
"1050 868 LINE",
"1099 868 LINE",
"1095 1055 LINE",
"942 1085 OFFCURVE",
"827 1085 QCURVE SMOOTH",
"620 1085 OFFCURVE",
"409 873 OFFCURVE",
"409 664 QCURVE SMOOTH",
"409 471 OFFCURVE",
"630 258 OFFCURVE",
"825 258 QCURVE SMOOTH"
);
}
);
width = 1556;
}
);
note = copyright;
unicode = 00A9;
},
{
glyphname = trademark;
lastChange = "2019-12-19 21:32:18 +0000";
layers = (
{
layerId = "10338F47-40ED-49C2-8613-307B859987A6";
paths = (
{
closed = 1;
nodes = (
"675 537 LINE",
"675 580 LINE",
"548 596 LINE",
"548 1278 LINE",
"577 1278 LINE SMOOTH",
"734 1278 OFFCURVE",
"778 1268 QCURVE",
"794 1143 LINE",
"835 1143 LINE",
"835 1341 LINE",
"126 1341 LINE",
"126 1143 LINE",
"167 1143 LINE",
"184 1268 LINE",
"234 1280 OFFCURVE",
"380 1280 QCURVE SMOOTH",
"411 1280 LINE",
"411 596 LINE",
"284 580 LINE",
"284 537 LINE"
);
},
{
closed = 1;
nodes = (
"1713 1204 LINE",
"1713 596 LINE",
"1605 580 LINE",
"1605 537 LINE",
"1953 537 LINE",
"1953 580 LINE",
"1851 596 LINE",
"1851 1284 LINE",
"1953 1300 LINE",
"1953 1341 LINE",
"1699 1341 LINE",
"1435 758 LINE",
"1191 1341 LINE",
"921 1341 LINE",
"921 1300 LINE",
"1025 1284 LINE",
"1025 596 LINE",
"921 580 LINE",
"921 537 LINE",
"1206 537 LINE",
"1206 580 LINE",
"1097 596 LINE",
"1097 1206 LINE",
"1382 537 LINE",
"1410 537 LINE"
);
}
);
width = 2007;
}
);
note = trademark;
unicode = 2122;
},
{
glyphname = acute;
lastChange = "2019-12-19 21:32:18 +0000";
layers = (
{
layerId = "10338F47-40ED-49C2-8613-307B859987A6";
paths = (
{
closed = 1;
nodes = (
"303 1118 LINE",
"704 1386 LINE",
"710 1423 LINE",
"497 1423 LINE",
"253 1151 LINE",
"248 1118 LINE"
);
}
);
width = 682;
}
);
note = acute;
unicode = 00B4;
},
{
glyphname = dieresis;
lastChange = "2019-12-19 21:32:18 +0000";
layers = (
{
layerId = "10338F47-40ED-49C2-8613-307B859987A6";
paths = (
{
closed = 1;
nodes = (
"760 1273 OFFCURVE",
"704 1331 OFFCURVE",
"662 1331 QCURVE SMOOTH",
"620 1331 OFFCURVE",
"562 1273 OFFCURVE",
"562 1231 QCURVE SMOOTH",
"562 1192 OFFCURVE",
"620 1130 OFFCURVE",
"662 1130 QCURVE SMOOTH",
"704 1130 OFFCURVE",
"760 1189 OFFCURVE",
"760 1231 QCURVE SMOOTH"
);
},
{
closed = 1;
nodes = (
"404 1273 OFFCURVE",
"348 1331 OFFCURVE",
"306 1331 QCURVE SMOOTH",
"267 1331 OFFCURVE",
"205 1273 OFFCURVE",
"205 1231 QCURVE SMOOTH",
"205 1190 OFFCURVE",
"265 1130 OFFCURVE",
"306 1130 QCURVE SMOOTH",
"348 1130 OFFCURVE",
"404 1189 OFFCURVE",
"404 1231 QCURVE SMOOTH"
);
}
);
width = 682;
}
);
note = dieresis;
unicode = 00A8;
},
{
glyphname = notequal;
lastChange = "2019-12-19 21:32:18 +0000";
layers = (
{
layerId = "10338F47-40ED-49C2-8613-307B859987A6";
paths = (
{
closed = 1;
nodes = (
"1025 1220 LINE",
"900 1220 LINE",
"702 936 LINE",
"109 936 LINE",
"109 834 LINE",
"631 834 LINE",
"416 526 LINE",
"109 526 LINE",
"109 424 LINE",
"345 424 LINE",
"147 140 LINE",
"270 140 LINE",
"468 424 LINE",
"1062 424 LINE",
"1062 526 LINE",
"540 526 LINE",
"755 834 LINE",
"1062 834 LINE",
"1062 936 LINE",
"826 936 LINE"
);
}
);
width = 1124;
}
);
note = notequal;
unicode = 2260;
},
{
glyphname = AE;
lastChange = "2019-12-19 21:32:18 +0000";
layers = (
{
layerId = "10338F47-40ED-49C2-8613-307B859987A6";
paths = (
{
closed = 1;
nodes = (
"731 80 LINE",
"556 53 LINE",
"546 0 LINE",
"1616 0 LINE",
"1698 354 LINE",
"1632 354 LINE",
"1531 106 LINE",
"1446 90 OFFCURVE",
"1190 90 QCURVE SMOOTH",
"926 90 LINE",
"1023 637 LINE",
"1385 637 LINE",
"1387 475 LINE",
"1451 475 LINE",
"1524 887 LINE",
"1460 887 LINE",
"1400 727 LINE",
"1038 727 LINE",
"1131 1251 LINE",
"1350 1251 LINE SMOOTH",
"1562 1251 OFFCURVE",
"1671 1237 QCURVE",
"1665 1020 LINE",
"1731 1020 LINE",
"1788 1341 LINE",
"699 1341 LINE",
"690 1288 LINE",
"850 1270 LINE",
"-6 80 LINE",
"-137 53 LINE",
"-146 0 LINE",
"256 0 LINE",
"265 53 LINE",
"112 80 LINE",
"387 467 LINE",
"799 467 LINE"
);
},
{
closed = 1;
nodes = (
"934 1231 LINE",
"815 557 LINE",
"452 557 LINE"
);
}
);
width = 1821;
}
);
note = AE;
unicode = 00C6;
},
{
glyphname = Oslash;
lastChange = "2019-12-19 21:32:18 +0000";
layers = (
{
layerId = "10338F47-40ED-49C2-8613-307B859987A6";
paths = (
{
closed = 1;
nodes = (
"885 -20 OFFCURVE",
"1230 187 OFFCURVE",
"1431 585 OFFCURVE",
"1431 822 QCURVE SMOOTH",
"1431 1021 OFFCURVE",
"1314 1163 QCURVE",
"1542 1391 LINE",
"1427 1391 LINE",
"1258 1222 LINE",
"1103 1356 OFFCURVE",
"871 1356 QCURVE SMOOTH",
"649 1356 OFFCURVE",
"303 1146 OFFCURVE",
"103 755 OFFCURVE",
"103 514 QCURVE SMOOTH",
"103 319 OFFCURVE",
"213 180 QCURVE",
"-22 -55 LINE",
"97 -55 LINE",
"270 118 LINE",
"427 -20 OFFCURVE",
"663 -20 QCURVE SMOOTH"
);
},
{
closed = 1;
nodes = (
"1231 644 OFFCURVE",
"1072 266 OFFCURVE",
"819 65 OFFCURVE",
"670 65 QCURVE SMOOTH",
"573 65 OFFCURVE",
"423 148 OFFCURVE",
"375 223 QCURVE",
"1194 1043 LINE",
"1231 949 OFFCURVE",
"1231 832 QCURVE SMOOTH"
);
},
{
closed = 1;
nodes = (
"303 695 OFFCURVE",
"460 1073 OFFCURVE",
"709 1276 OFFCURVE",
"858 1276 QCURVE SMOOTH",
"954 1276 OFFCURVE",
"1105 1194 OFFCURVE",
"1154 1119 QCURVE",
"336 302 LINE",
"303 389 OFFCURVE",
"303 503 QCURVE SMOOTH"
);
}
);
width = 1479;
}
);
note = Oslash;
unicode = 00D8;
},
{
glyphname = infinity;
lastChange = "2019-12-19 21:32:18 +0000";
layers = (
{
layerId = "10338F47-40ED-49C2-8613-307B859987A6";
paths = (
{
closed = 1;
nodes = (
"1402 765 OFFCURVE",
"1224 977 OFFCURVE",
"1079 977 QCURVE SMOOTH",
"971 977 OFFCURVE",
"809 850 OFFCURVE",
"743 725 QCURVE",
"680 851 OFFCURVE",
"496 983 OFFCURVE",
"385 983 QCURVE SMOOTH",
"240 983 OFFCURVE",
"57 764 OFFCURVE",
"57 596 QCURVE SMOOTH",
"57 420 OFFCURVE",
"240 209 OFFCURVE",
"385 209 QCURVE SMOOTH",
"481 209 OFFCURVE",
"650 340 OFFCURVE",
"716 467 QCURVE",
"863 203 OFFCURVE",
"1077 203 QCURVE SMOOTH",
"1216 203 OFFCURVE",
"1402 424 OFFCURVE",
"1402 590 QCURVE SMOOTH"
);
},
{
closed = 1;
nodes = (
"1199 872 OFFCURVE",
"1327 714 OFFCURVE",
"1327 592 QCURVE SMOOTH",
"1327 466 OFFCURVE",
"1200 307 OFFCURVE",
"1101 307 QCURVE SMOOTH",
"1012 307 OFFCURVE",
"873 449 OFFCURVE",
"811 590 QCURVE",
"877 732 OFFCURVE",
"1016 872 OFFCURVE",
"1099 872 QCURVE SMOOTH"
);
},
{
closed = 1;
nodes = (
"582 454 OFFCURVE",
"442 313 OFFCURVE",
"358 313 QCURVE SMOOTH",
"254 313 OFFCURVE",
"133 468 OFFCURVE",
"133 594 QCURVE SMOOTH",
"133 719 OFFCURVE",
"258 879 OFFCURVE",
"354 879 QCURVE SMOOTH",
"447 879 OFFCURVE",
"586 736 OFFCURVE",
"645 596 QCURVE"
);
}
);
width = 1460;
}
);
note = infinity;
unicode = 221E;
},
{
glyphname = plusminus;
lastChange = "2019-12-19 21:32:18 +0000";
layers = (
{
layerId = "10338F47-40ED-49C2-8613-307B859987A6";
paths = (
{
closed = 1;
nodes = (
"1048 629 LINE",
"1048 731 LINE",
"622 731 LINE",
"622 1157 LINE",
"519 1157 LINE",
"519 731 LINE",
"95 731 LINE",
"95 629 LINE",
"519 629 LINE",
"519 203 LINE",
"622 203 LINE",
"622 629 LINE"
);
},
{
closed = 1;
nodes = (
"95 102 LINE",
"95 0 LINE",
"1048 0 LINE",
"1048 102 LINE"
);
}
);
width = 1124;
}
);
note = plusminus;
unicode = 00B1;
},
{
glyphname = lessequal;
lastChange = "2019-12-19 21:32:18 +0000";
layers = (
{
layerId = "10338F47-40ED-49C2-8613-307B859987A6";
paths = (
{
closed = 1;
nodes = (
"1050 186 LINE",
"1050 289 LINE",
"241 680 LINE",
"1050 1071 LINE",
"1050 1174 LINE",
"97 705 LINE",
"97 655 LINE"
);
},
{
closed = 1;
nodes = (
"97 102 LINE",
"97 0 LINE",
"1050 0 LINE",
"1050 102 LINE"
);
}
);
width = 1124;
}
);
note = lessequal;
unicode = 2264;
},
{
glyphname = greaterequal;
lastChange = "2019-12-19 21:32:18 +0000";
layers = (
{
layerId = "10338F47-40ED-49C2-8613-307B859987A6";
paths = (
{
closed = 1;
nodes = (
"1052 655 LINE",
"1052 705 LINE",
"99 1174 LINE",
"99 1071 LINE",
"908 680 LINE",
"99 289 LINE",
"99 186 LINE"
);
},
{
closed = 1;
nodes = (
"97 102 LINE",
"97 0 LINE",
"1050 0 LINE",
"1050 102 LINE"
);
}
);
width = 1124;
}
);
note = greaterequal;
unicode = 2265;
},
{
glyphname = yen;
lastChange = "2019-12-19 21:32:18 +0000";
layers = (
{
layerId = "10338F47-40ED-49C2-8613-307B859987A6";
paths = (
{
closed = 1;
nodes = (
"581 393 LINE",
"605 528 LINE",
"622 557 LINE",
"889 557 LINE",
"903 639 LINE",
"671 639 LINE",
"1046 1262 LINE",
"1155 1288 LINE",
"1164 1341 LINE",
"818 1341 LINE",
"809 1288 LINE",
"927 1262 LINE",
"566 634 LINE",
"429 1262 LINE",
"565 1288 LINE",
"574 1341 LINE",
"144 1341 LINE",
"135 1288 LINE",
"230 1262 LINE",
"383 639 LINE",
"153 639 LINE",
"139 557 LINE",
"406 557 LINE",
"412 522 LINE",
"389 393 LINE",
"110 393 LINE",
"95 311 LINE",
"374 311 LINE",
"334 80 LINE",
"157 53 LINE",
"148 0 LINE",
"684 0 LINE",
"693 53 LINE",
"526 80 LINE",
"566 311 LINE",
"845 311 LINE",
"860 393 LINE"
);
}
);
width = 1024;
}
);
note = yen;
unicode = 00A5;
},
{
glyphname = uni00B5;
lastChange = "2019-12-19 21:32:18 +0000";
layers = (
{
layerId = "10338F47-40ED-49C2-8613-307B859987A6";
paths = (
{
closed = 1;
nodes = (
"718 0 LINE",
"996 0 LINE",
"1004 45 LINE",
"871 70 LINE",
"1025 940 LINE",
"862 940 LINE",
"731 213 LINE",
"685 162 OFFCURVE",
"556 96 OFFCURVE",
"508 96 QCURVE SMOOTH",
"444 96 OFFCURVE",
"368 173 OFFCURVE",
"368 242 QCURVE",
"372 288 LINE",
"487 940 LINE",
"181 940 LINE",
"173 895 LINE",
"308 870 LINE",
"167 69 LINE SMOOTH",
"145 -55 OFFCURVE",
"69 -320 OFFCURVE",
"35 -391 QCURVE",
"27 -436 LINE",
"204 -436 LINE",
"276 -223 OFFCURVE",
"325 58 QCURVE",
"355 -20 OFFCURVE",
"461 -20 QCURVE SMOOTH",
"575 -20 OFFCURVE",
"719 124 QCURVE"
);
}
);
width = 1180;
}
);
note = uni00B5;
unicode = 00B5;
},
{
glyphname = partialdiff;
lastChange = "2019-12-19 21:32:18 +0000";
layers = (
{
layerId = "10338F47-40ED-49C2-8613-307B859987A6";
paths = (
{
closed = 1;
nodes = (
"928 1200 OFFCURVE",
"732 1477 OFFCURVE",
"549 1477 QCURVE SMOOTH",
"471 1477 OFFCURVE",
"392 1442 QCURVE",
"287 1292 LINE",
"323 1259 LINE",
"444 1343 OFFCURVE",
"551 1343 QCURVE SMOOTH",
"693 1343 OFFCURVE",
"842 1101 OFFCURVE",
"842 874 QCURVE SMOOTH",
"838 758 LINE",
"834 758 LINE",
"800 841 OFFCURVE",
"657 940 OFFCURVE",
"564 940 QCURVE SMOOTH",
"428 940 OFFCURVE",
"208 789 OFFCURVE",
"68 487 OFFCURVE",
"68 332 QCURVE SMOOTH",
"68 160 OFFCURVE",
"236 -27 OFFCURVE",
"388 -27 QCURVE SMOOTH",
"512 -27 OFFCURVE",
"713 115 OFFCURVE",
"856 390 OFFCURVE",
"928 768 OFFCURVE",
"928 938 QCURVE SMOOTH"
);
},
{
closed = 1;
nodes = (
"791 466 OFFCURVE",
"679 184 OFFCURVE",
"532 43 OFFCURVE",
"451 43 QCURVE SMOOTH",
"362 43 OFFCURVE",
"258 181 OFFCURVE",
"258 305 QCURVE SMOOTH",
"258 444 OFFCURVE",
"355 718 OFFCURVE",
"505 856 OFFCURVE",
"596 856 QCURVE SMOOTH",
"674 856 OFFCURVE",
"795 735 OFFCURVE",
"813 643 QCURVE"
);
}
);
width = 1012;
}
);
note = partialdiff;
unicode = 2202;
},
{
glyphname = summation;
lastChange = "2019-12-19 21:32:18 +0000";
layers = (
{
layerId = "10338F47-40ED-49C2-8613-307B859987A6";
paths = (
{
closed = 1;
nodes = (
"378 1251 LINE",
"782 1251 LINE SMOOTH",
"1019 1251 OFFCURVE",
"1134 1237 QCURVE",
"1176 990 LINE",
"1242 990 LINE",
"1242 1341 LINE",
"137 1341 LINE",
"137 1262 LINE",
"670 481 LINE",
"92 -362 LINE",
"92 -436 LINE",
"1298 -436 LINE",
"1317 -22 LINE",
"1251 -22 LINE",
"1194 -250 LINE",
"1184 -252 OFFCURVE",
"1128 -256 OFFCURVE",
"1051 -259 OFFCURVE",
"956 -263 OFFCURVE",
"857 -265 OFFCURVE",
"760 -266 OFFCURVE",
"719 -266 QCURVE SMOOTH",
"274 -266 LINE",
"831 548 LINE",
"831 587 LINE"
);
}
);
width = 1460;
}
);
note = summation;
unicode = 2211;
},
{
glyphname = product;
lastChange = "2019-12-19 21:32:18 +0000";
layers = (
{
layerId = "10338F47-40ED-49C2-8613-307B859987A6";
paths = (
{
closed = 1;
nodes = (
"651 -436 LINE",
"651 -383 LINE",
"479 -356 LINE",
"479 1251 LINE",
"1210 1251 LINE",
"1210 -356 LINE",
"1038 -383 LINE",
"1038 -436 LINE",
"1574 -436 LINE",
"1574 -383 LINE",
"1402 -356 LINE",
"1402 1262 LINE",
"1574 1288 LINE",
"1574 1341 LINE",
"114 1341 LINE",
"114 1288 LINE",
"286 1262 LINE",
"286 -356 LINE",
"114 -383 LINE",
"114 -436 LINE"
);
}
);
width = 1686;
}
);
note = product;
unicode = 220F;
},
{
glyphname = integral;
lastChange = "2019-12-19 21:32:18 +0000";
layers = (
{
layerId = "10338F47-40ED-49C2-8613-307B859987A6";
paths = (
{
closed = 1;
nodes = (
"192 -166 LINE SMOOTH",
"192 -289 OFFCURVE",
"122 -446 OFFCURVE",
"69 -446 QCURVE SMOOTH",
"11 -446 OFFCURVE",
"-58 -377 QCURVE",
"-78 -377 LINE",
"-82 -400 OFFCURVE",
"-103 -495 OFFCURVE",
"-107 -508 QCURVE",
"-107 -516 LINE",
"-95 -526 OFFCURVE",
"-13 -549 OFFCURVE",
"16 -549 QCURVE SMOOTH",
"86 -549 OFFCURVE",
"241 -435 OFFCURVE",
"342 -247 OFFCURVE",
"348 -137 QCURVE SMOOTH",
"357 146 OFFCURVE",
"364 468 OFFCURVE",
"364 541 QCURVE SMOOTH",
"360 1079 LINE SMOOTH",
"360 1203 OFFCURVE",
"430 1360 OFFCURVE",
"483 1360 QCURVE SMOOTH",
"540 1360 OFFCURVE",
"610 1290 QCURVE",
"631 1290 LINE",
"647 1355 LINE",
"665 1421 LINE",
"665 1430 LINE",
"650 1442 OFFCURVE",
"561 1462 OFFCURVE",
"536 1462 QCURVE SMOOTH",
"466 1462 OFFCURVE",
"306 1342 OFFCURVE",
"207 1153 OFFCURVE",
"200 1047 QCURVE SMOOTH",
"186 774 OFFCURVE",
"186 506 QCURVE SMOOTH"
);
}
);
width = 561;
}
);
note = integral;
unicode = 222B;
},
{
glyphname = ordfeminine;
lastChange = "2019-12-19 21:32:18 +0000";
layers = (
{
layerId = "10338F47-40ED-49C2-8613-307B859987A6";
paths = (
{
closed = 1;
nodes = (
"646 1357 LINE",
"616 1357 LINE",
"584 1339 LINE",
"578 1336 LINE",
"511 1362 OFFCURVE",
"446 1362 QCURVE SMOOTH",
"341 1362 OFFCURVE",
"179 1263 OFFCURVE",
"92 1090 OFFCURVE",
"92 983 QCURVE SMOOTH",
"92 886 OFFCURVE",
"180 767 OFFCURVE",
"250 767 QCURVE SMOOTH",
"354 767 OFFCURVE",
"438 856 QCURVE",
"426 782 LINE",
"626 782 LINE",
"635 821 LINE",
"549 836 LINE"
);
},
{
closed = 1;
nodes = (
"440 895 LINE",
"369 853 OFFCURVE",
"308 853 QCURVE SMOOTH",
"218 853 OFFCURVE",
"218 992 QCURVE SMOOTH",
"218 1127 OFFCURVE",
"325 1305 OFFCURVE",
"410 1305 QCURVE SMOOTH",
"464 1305 OFFCURVE",
"508 1278 QCURVE"
);
}
);
width = 565;
}
);
note = ordfeminine;
unicode = 00AA;
},
{
glyphname = ordmasculine;
lastChange = "2019-12-19 21:32:18 +0000";
layers = (
{
layerId = "10338F47-40ED-49C2-8613-307B859987A6";
paths = (
{
closed = 1;
nodes = (
"485 1305 OFFCURVE",
"544 1218 OFFCURVE",
"544 1133 QCURVE SMOOTH",
"544 1007 OFFCURVE",
"433 829 OFFCURVE",
"353 829 QCURVE SMOOTH",
"300 829 OFFCURVE",
"241 917 OFFCURVE",
"241 998 QCURVE SMOOTH",
"241 1129 OFFCURVE",
"352 1305 OFFCURVE",
"430 1305 QCURVE SMOOTH"
);
},
{
closed = 1;
nodes = (
"485 770 OFFCURVE",
"672 974 OFFCURVE",
"672 1125 QCURVE SMOOTH",
"672 1235 OFFCURVE",
"547 1362 OFFCURVE",
"446 1362 QCURVE SMOOTH",
"351 1362 OFFCURVE",
"199 1269 OFFCURVE",
"114 1104 OFFCURVE",
"114 1007 QCURVE SMOOTH",
"114 897 OFFCURVE",
"239 770 OFFCURVE",
"340 770 QCURVE SMOOTH"
);
}
);
width = 635;
}
);
note = ordmasculine;
unicode = 00BA;
},
{
glyphname = uni2126;
lastChange = "2019-12-19 21:32:18 +0000";
layers = (
{
layerId = "10338F47-40ED-49C2-8613-307B859987A6";
paths = (
{
closed = 1;
nodes = (
"1012 1276 OFFCURVE",
"1232 1050 OFFCURVE",
"1232 801 QCURVE SMOOTH",
"1232 602 OFFCURVE",
"1049 364 OFFCURVE",
"879 343 QCURVE",
"852 0 LINE",
"1421 0 LINE",
"1440 330 LINE",
"1374 330 LINE",
"1317 186 LINE",
"1237 170 OFFCURVE",
"1033 170 QCURVE SMOOTH",
"961 170 LINE",
"971 271 LINE",
"1185 304 OFFCURVE",
"1441 590 OFFCURVE",
"1441 801 QCURVE SMOOTH",
"1441 1073 OFFCURVE",
"1109 1356 OFFCURVE",
"786 1356 QCURVE SMOOTH",
"463 1356 OFFCURVE",
"131 1073 OFFCURVE",
"131 801 QCURVE SMOOTH",
"131 590 OFFCURVE",
"386 304 OFFCURVE",
"601 271 QCURVE",
"611 170 LINE",
"539 170 LINE SMOOTH",
"335 170 OFFCURVE",
"255 186 QCURVE",
"198 330 LINE",
"132 330 LINE",
"151 0 LINE",
"720 0 LINE",
"693 343 LINE",
"524 364 OFFCURVE",
"340 602 OFFCURVE",
"340 801 QCURVE SMOOTH",
"340 1049 OFFCURVE",
"560 1276 OFFCURVE",
"786 1276 QCURVE SMOOTH"
);
}
);
width = 1573;
}
);
note = uni2126;
unicode = 2126;
},
{
glyphname = ae;
lastChange = "2019-12-19 21:32:18 +0000";
layers = (
{
layerId = "10338F47-40ED-49C2-8613-307B859987A6";
paths = (
{
closed = 1;
nodes = (
"1320 860 OFFCURVE",
"1192 965 OFFCURVE",
"1077 965 QCURVE SMOOTH",
"934 965 OFFCURVE",
"841 891 QCURVE",
"800 921 OFFCURVE",
"680 964 OFFCURVE",
"618 964 QCURVE SMOOTH",
"466 964 OFFCURVE",
"211 793 OFFCURVE",
"63 489 OFFCURVE",
"63 317 QCURVE SMOOTH",
"63 166 OFFCURVE",
"198 -21 OFFCURVE",
"304 -21 QCURVE SMOOTH",
"373 -21 OFFCURVE",
"541 69 OFFCURVE",
"621 147 QCURVE",
"663 58 OFFCURVE",
"787 -20 OFFCURVE",
"890 -20 QCURVE SMOOTH",
"1060 -20 OFFCURVE",
"1246 142 QCURVE",
"1217 184 LINE",
"1077 84 OFFCURVE",
"956 84 QCURVE SMOOTH",
"771 84 OFFCURVE",
"771 296 QCURVE SMOOTH",
"771 359 OFFCURVE",
"779 413 QCURVE",
"936 425 OFFCURVE",
"1187 526 OFFCURVE",
"1320 680 OFFCURVE",
"1320 771 QCURVE SMOOTH"
);
},
{
closed = 1;
nodes = (
"323 104 OFFCURVE",
"241 225 OFFCURVE",
"241 335 QCURVE SMOOTH",
"241 465 OFFCURVE",
"339 725 OFFCURVE",
"500 885 OFFCURVE",
"591 885 QCURVE SMOOTH",
"678 885 OFFCURVE",
"767 819 QCURVE",
"595 604 OFFCURVE",
"595 309 QCURVE SMOOTH",
"595 272 OFFCURVE",
"603 216 QCURVE",
"551 166 OFFCURVE",
"437 104 OFFCURVE",
"391 104 QCURVE SMOOTH"
);
},
{
closed = 1;
nodes = (
"1145 651 OFFCURVE",
"960 493 OFFCURVE",
"789 476 QCURVE",
"822 672 OFFCURVE",
"957 888 OFFCURVE",
"1048 888 QCURVE SMOOTH",
"1096 888 OFFCURVE",
"1145 827 OFFCURVE",
"1145 774 QCURVE SMOOTH"
);
}
);
width = 1366;
}
);
note = ae;
unicode = 00E6;
},
{
glyphname = oslash;
lastChange = "2019-12-19 21:32:18 +0000";
layers = (
{
layerId = "10338F47-40ED-49C2-8613-307B859987A6";
paths = (
{
closed = 1;
nodes = (
"580 -20 OFFCURVE",
"825 136 OFFCURVE",
"963 410 OFFCURVE",
"963 571 QCURVE SMOOTH",
"963 729 OFFCURVE",
"884 833 QCURVE",
"1049 1022 LINE",
"945 1022 LINE",
"828 890 LINE",
"735 965 OFFCURVE",
"597 965 QCURVE SMOOTH",
"444 965 OFFCURVE",
"199 809 OFFCURVE",
"61 535 OFFCURVE",
"61 374 QCURVE SMOOTH",
"61 214 OFFCURVE",
"142 108 QCURVE",
"-27 -84 LINE",
"80 -84 LINE",
"199 52 LINE",
"291 -20 OFFCURVE",
"427 -20 QCURVE SMOOTH"
);
},
{
closed = 1;
nodes = (
"690 890 OFFCURVE",
"742 792 QCURVE",
"253 234 LINE",
"241 286 OFFCURVE",
"241 354 QCURVE SMOOTH",
"241 501 OFFCURVE",
"331 750 OFFCURVE",
"488 890 OFFCURVE",
"579 890 QCURVE SMOOTH"
);
},
{
closed = 1;
nodes = (
"783 444 OFFCURVE",
"691 200 OFFCURVE",
"533 59 OFFCURVE",
"442 59 QCURVE SMOOTH",
"337 59 OFFCURVE",
"285 150 QCURVE",
"772 706 LINE",
"783 653 OFFCURVE",
"783 590 QCURVE SMOOTH"
);
}
);
width = 1024;
}
);
note = oslash;
unicode = 00F8;
},
{
glyphname = questiondown;
lastChange = "2019-12-19 21:32:18 +0000";
layers = (
{
layerId = "10338F47-40ED-49C2-8613-307B859987A6";
paths = (
{
closed = 1;
nodes = (
"534 322 LINE",
"475 309 LINE SMOOTH",
"88 227 OFFCURVE",
"88 -131 QCURVE SMOOTH",
"88 -424 OFFCURVE",
"454 -424 QCURVE SMOOTH",
"614 -424 OFFCURVE",
"773 -358 QCURVE",
"804 -104 LINE",
"738 -104 LINE",
"688 -268 LINE",
"647 -298 OFFCURVE",
"524 -340 OFFCURVE",
"465 -340 QCURVE SMOOTH",
"266 -340 OFFCURVE",
"266 -119 QCURVE SMOOTH",
"266 35 OFFCURVE",
"376 196 OFFCURVE",
"492 219 QCURVE SMOOTH",
"640 248 LINE",
"673 582 LINE",
"593 582 LINE"
);
},
{
closed = 1;
nodes = (
"550 788 OFFCURVE",
"620 719 OFFCURVE",
"670 719 QCURVE SMOOTH",
"721 719 OFFCURVE",
"791 789 OFFCURVE",
"791 840 QCURVE SMOOTH",
"791 889 OFFCURVE",
"722 961 OFFCURVE",
"670 961 QCURVE SMOOTH",
"619 961 OFFCURVE",
"550 889 OFFCURVE",
"550 840 QCURVE SMOOTH"
);
}
);
width = 1024;
}
);
note = questiondown;
unicode = 00BF;
},
{
glyphname = exclamdown;
lastChange = "2019-12-19 21:32:18 +0000";
layers = (
{
layerId = "10338F47-40ED-49C2-8613-307B859987A6";
paths = (
{
closed = 1;
nodes = (
"328 789 OFFCURVE",
"398 719 OFFCURVE",
"449 719 QCURVE SMOOTH",
"500 719 OFFCURVE",
"570 789 OFFCURVE",
"570 840 QCURVE SMOOTH",
"570 889 OFFCURVE",
"501 961 OFFCURVE",
"449 961 QCURVE SMOOTH",
"397 961 OFFCURVE",
"328 889 OFFCURVE",
"328 840 QCURVE SMOOTH"
);
},
{
closed = 1;
nodes = (
"459 543 LINE",
"365 543 LINE",
"136 -409 LINE",
"354 -409 LINE"
);
}
);
width = 797;
}
);
note = exclamdown;
unicode = 00A1;
},
{
glyphname = logicalnot;
lastChange = "2019-12-19 21:32:18 +0000";
layers = (
{
layerId = "10338F47-40ED-49C2-8613-307B859987A6";
paths = (
{
closed = 1;
nodes = (
"225 731 LINE",
"225 629 LINE",
"1075 629 LINE",
"1075 203 LINE",
"1178 203 LINE",
"1178 731 LINE"
);
}
);
width = 1382;
}
);
note = logicalnot;
unicode = 00AC;
},
{
glyphname = radical;
lastChange = "2019-12-19 21:32:18 +0000";
layers = (
{
layerId = "10338F47-40ED-49C2-8613-307B859987A6";
paths = (
{
closed = 1;
nodes = (
"1122 1620 LINE",
"1032 1620 LINE",
"580 158 LINE",
"322 895 LINE",
"51 895 LINE",
"51 815 LINE",
"219 815 LINE",
"516 -14 LINE",
"623 -14 LINE"
);
}
);
width = 1124;
}
);
note = radical;
unicode = 221A;
},
{
glyphname = florin;
lastChange = "2019-12-19 21:32:18 +0000";
layers = (
{
layerId = "10338F47-40ED-49C2-8613-307B859987A6";
paths = (
{
closed = 1;
nodes = (
"395 -285 LINE",
"572 702 LINE",
"820 702 LINE",
"837 786 LINE",
"588 786 LINE",
"626 1001 LINE SMOOTH",
"641 1082 OFFCURVE",
"671 1200 OFFCURVE",
"736 1280 OFFCURVE",
"795 1280 QCURVE SMOOTH",
"849 1280 OFFCURVE",
"881 1257 QCURVE",
"910 1161 LINE",
"957 1161 LINE",
"964 1343 LINE",
"903 1362 OFFCURVE",
"810 1362 QCURVE SMOOTH",
"674 1362 OFFCURVE",
"488 1178 OFFCURVE",
"460 1018 QCURVE SMOOTH",
"420 786 LINE",
"253 752 LINE",
"243 702 LINE",
"404 702 LINE",
"233 -285 LINE"
);
}
);
width = 1024;
}
);
note = florin;
unicode = 0192;
},
{
glyphname = approxequal;
lastChange = "2019-12-19 21:32:18 +0000";
layers = (
{
layerId = "10338F47-40ED-49C2-8613-307B859987A6";
paths = (
{
closed = 1;
nodes = (
"893 711 OFFCURVE",
"999 787 OFFCURVE",
"1063 925 OFFCURVE",
"1080 1055 QCURVE",
"977 1055 LINE",
"958 918 OFFCURVE",
"880 813 OFFCURVE",
"811 813 QCURVE SMOOTH",
"776 813 OFFCURVE",
"693 862 OFFCURVE",
"607 934 QCURVE SMOOTH",
"532 997 OFFCURVE",
"412 1055 OFFCURVE",
"357 1055 QCURVE SMOOTH",
"239 1055 OFFCURVE",
"106 898 OFFCURVE",
"88 711 QCURVE",
"189 711 LINE",
"202 843 OFFCURVE",
"280 952 OFFCURVE",
"357 952 QCURVE SMOOTH",
"395 952 OFFCURVE",
"492 895 OFFCURVE",
"566 832 QCURVE SMOOTH",
"705 711 OFFCURVE",
"811 711 QCURVE SMOOTH"
);
},
{
closed = 1;
nodes = (
"893 301 OFFCURVE",
"999 377 OFFCURVE",
"1063 515 OFFCURVE",
"1080 645 QCURVE",
"977 645 LINE",
"958 508 OFFCURVE",
"880 403 OFFCURVE",
"811 403 QCURVE SMOOTH",
"776 403 OFFCURVE",
"693 452 OFFCURVE",
"607 524 QCURVE SMOOTH",
"532 587 OFFCURVE",
"412 645 OFFCURVE",
"357 645 QCURVE SMOOTH",
"239 645 OFFCURVE",
"106 488 OFFCURVE",
"88 301 QCURVE",
"189 301 LINE",
"202 433 OFFCURVE",
"280 542 OFFCURVE",
"357 542 QCURVE SMOOTH",
"395 542 OFFCURVE",
"492 485 OFFCURVE",
"566 422 QCURVE SMOOTH",
"705 301 OFFCURVE",
"811 301 QCURVE SMOOTH"
);
}
);
width = 1124;
}
);
note = approxequal;
unicode = 2248;
},
{
glyphname = uni2206;
lastChange = "2019-12-19 21:32:18 +0000";
layers = (
{
layerId = "10338F47-40ED-49C2-8613-307B859987A6";
paths = (
{
closed = 1;
nodes = (
"1208 80 LINE",
"713 1352 LINE",
"523 1352 LINE",
"46 80 LINE",
"46 0 LINE",
"1208 0 LINE"
);
},
{
closed = 1;
nodes = (
"980 109 LINE",
"174 109 LINE",
"574 1196 LINE"
);
}
);
width = 1253;
}
);
note = uni2206;
unicode = 2206;
},
{
glyphname = guillemotleft;
lastChange = "2019-12-19 21:32:18 +0000";
layers = (
{
layerId = "10338F47-40ED-49C2-8613-307B859987A6";
paths = (
{
closed = 1;
nodes = (
"122 496 LINE",
"111 430 LINE",
"402 74 LINE",
"463 74 LINE",
"280 457 LINE",
"600 852 LINE",
"539 852 LINE"
);
},
{
closed = 1;
nodes = (
"531 496 LINE",
"520 430 LINE",
"812 74 LINE",
"873 74 LINE",
"689 457 LINE",
"1010 852 LINE",
"949 852 LINE"
);
}
);
width = 1024;
}
);
note = guillemotleft;
unicode = 00AB;
},
{
glyphname = guillemotright;
lastChange = "2019-12-19 21:32:18 +0000";
layers = (
{
layerId = "10338F47-40ED-49C2-8613-307B859987A6";
paths = (
{
closed = 1;
nodes = (
"901 430 LINE",
"912 496 LINE",
"621 852 LINE",
"560 852 LINE",
"744 470 LINE",
"423 74 LINE",
"484 74 LINE"
);
},
{
closed = 1;
nodes = (
"492 430 LINE",
"503 496 LINE",
"211 852 LINE",
"150 852 LINE",
"335 470 LINE",
"13 74 LINE",
"74 74 LINE"
);
}
);
width = 1024;
}
);
note = guillemotright;
unicode = 00BB;
},
{
glyphname = ellipsis;
lastChange = "2019-12-19 21:32:18 +0000";
layers = (
{
layerId = "10338F47-40ED-49C2-8613-307B859987A6";
paths = (
{
closed = 1;
nodes = (
"310 143 OFFCURVE",
"240 213 OFFCURVE",
"189 213 QCURVE SMOOTH",
"138 213 OFFCURVE",
"68 143 OFFCURVE",
"68 92 QCURVE SMOOTH",
"68 43 OFFCURVE",
"137 -29 OFFCURVE",
"189 -29 QCURVE SMOOTH",
"241 -29 OFFCURVE",
"310 43 OFFCURVE",
"310 92 QCURVE SMOOTH"
);
},
{
closed = 1;
nodes = (
"996 143 OFFCURVE",
"926 213 OFFCURVE",
"875 213 QCURVE SMOOTH",
"824 213 OFFCURVE",
"754 143 OFFCURVE",
"754 92 QCURVE SMOOTH",
"754 43 OFFCURVE",
"823 -29 OFFCURVE",
"875 -29 QCURVE SMOOTH",
"927 -29 OFFCURVE",
"996 43 OFFCURVE",
"996 92 QCURVE SMOOTH"
);
},
{
closed = 1;
nodes = (
"1682 143 OFFCURVE",
"1612 213 OFFCURVE",
"1561 213 QCURVE SMOOTH",
"1510 213 OFFCURVE",
"1440 143 OFFCURVE",
"1440 92 QCURVE SMOOTH",
"1440 43 OFFCURVE",
"1509 -29 OFFCURVE",
"1561 -29 QCURVE SMOOTH",
"1613 -29 OFFCURVE",
"1682 43 OFFCURVE",
"1682 92 QCURVE SMOOTH"
);
}
);
width = 1821;
}
);
note = ellipsis;
unicode = 2026;
},
{
glyphname = OE;
lastChange = "2019-12-19 21:32:18 +0000";
layers = (
{
layerId = "10338F47-40ED-49C2-8613-307B859987A6";
paths = (
{
closed = 1;
nodes = (
"839 -6 OFFCURVE",
"917 0 QCURVE",
"1728 0 LINE",
"1810 354 LINE",
"1744 354 LINE",
"1643 106 LINE",
"1558 90 OFFCURVE",
"1302 90 QCURVE SMOOTH",
"1038 90 LINE",
"1135 637 LINE",
"1497 637 LINE",
"1499 475 LINE",
"1563 475 LINE",
"1636 887 LINE",
"1572 887 LINE",
"1512 727 LINE",
"1150 727 LINE",
"1243 1251 LINE",
"1462 1251 LINE SMOOTH",
"1674 1251 OFFCURVE",
"1783 1237 QCURVE",
"1777 1020 LINE",
"1843 1020 LINE",
"1900 1341 LINE",
"1136 1341 LINE",
"871 1348 LINE SMOOTH",
"646 1348 OFFCURVE",
"295 1133 OFFCURVE",
"103 749 OFFCURVE",
"103 514 QCURVE SMOOTH",
"103 268 OFFCURVE",
"389 -6 OFFCURVE",
"642 -6 QCURVE SMOOTH"
);
},
{
closed = 1;
nodes = (
"487 65 OFFCURVE",
"303 294 OFFCURVE",
"303 503 QCURVE SMOOTH",
"303 695 OFFCURVE",
"460 1073 OFFCURVE",
"709 1276 OFFCURVE",
"858 1276 QCURVE SMOOTH",
"982 1276 OFFCURVE",
"1048 1252 QCURVE",
"844 87 LINE",
"768 65 OFFCURVE",
"655 65 QCURVE SMOOTH"
);
}
);
width = 1933;
}
);
note = OE;
unicode = 0152;
},
{
glyphname = oe;
lastChange = "2019-12-19 21:32:18 +0000";
layers = (
{
layerId = "10338F47-40ED-49C2-8613-307B859987A6";
paths = (
{
closed = 1;
nodes = (
"536 -20 OFFCURVE",
"663 131 QCURVE",
"716 -20 OFFCURVE",
"898 -20 QCURVE SMOOTH",
"1066 -20 OFFCURVE",
"1246 142 QCURVE",
"1217 184 LINE",
"1077 84 OFFCURVE",
"956 84 QCURVE SMOOTH",
"877 84 OFFCURVE",
"795 168 OFFCURVE",
"795 270 QCURVE SMOOTH",
"795 310 OFFCURVE",
"807 406 OFFCURVE",
"808 413 QCURVE",
"966 426 OFFCURVE",
"1197 525 OFFCURVE",
"1320 682 OFFCURVE",
"1320 777 QCURVE SMOOTH",
"1320 867 OFFCURVE",
"1198 965 OFFCURVE",
"1092 965 QCURVE SMOOTH",
"997 965 OFFCURVE",
"840 886 OFFCURVE",
"792 820 QCURVE",
"718 965 OFFCURVE",
"557 965 QCURVE SMOOTH",
"414 965 OFFCURVE",
"187 798 OFFCURVE",
"61 504 OFFCURVE",
"61 328 QCURVE SMOOTH",
"61 162 OFFCURVE",
"208 -20 OFFCURVE",
"341 -20 QCURVE SMOOTH"
);
},
{
closed = 1;
nodes = (
"299 62 OFFCURVE",
"235 176 OFFCURVE",
"235 279 QCURVE SMOOTH",
"235 428 OFFCURVE",
"318 714 OFFCURVE",
"457 887 OFFCURVE",
"532 887 QCURVE SMOOTH",
"594 887 OFFCURVE",
"663 772 OFFCURVE",
"663 667 QCURVE SMOOTH",
"663 511 OFFCURVE",
"574 230 OFFCURVE",
"434 62 OFFCURVE",
"360 62 QCURVE SMOOTH"
);
},
{
closed = 1;
nodes = (
"848 660 OFFCURVE",
"987 888 OFFCURVE",
"1068 888 QCURVE SMOOTH",
"1103 888 OFFCURVE",
"1149 827 OFFCURVE",
"1149 767 QCURVE SMOOTH",
"1149 642 OFFCURVE",
"981 492 OFFCURVE",
"818 476 QCURVE"
);
}
);
width = 1366;
}
);
note = oe;
unicode = 0153;
},
{
glyphname = endash;
lastChange = "2019-12-19 21:32:18 +0000";
layers = (
{
layerId = "10338F47-40ED-49C2-8613-307B859987A6";
paths = (
{
closed = 1;
nodes = (
"-14 528 LINE",
"-14 426 LINE",
"1038 426 LINE",
"1038 528 LINE"
);
}
);
width = 1024;
}
);
note = endash;
unicode = 2013;
},
{
glyphname = emdash;
lastChange = "2019-12-19 21:32:18 +0000";
layers = (
{
layerId = "10338F47-40ED-49C2-8613-307B859987A6";
paths = (
{
closed = 1;
nodes = (
"-14 528 LINE",
"-14 426 LINE",
"1831 426 LINE",
"1831 528 LINE"
);
}
);
width = 1821;
}
);
note = emdash;
unicode = 2014;
},
{
glyphname = quotedblleft;
lastChange = "2019-12-19 21:32:18 +0000";
layers = (
{
layerId = "10338F47-40ED-49C2-8613-307B859987A6";
paths = (
{
closed = 1;
nodes = (
"713 926 OFFCURVE",
"785 836 OFFCURVE",
"846 836 QCURVE SMOOTH",
"899 836 OFFCURVE",
"967 893 OFFCURVE",
"967 947 QCURVE SMOOTH",
"967 989 OFFCURVE",
"928 1032 OFFCURVE",
"881 1061 OFFCURVE",
"842 1089 OFFCURVE",
"842 1117 QCURVE SMOOTH",
"842 1226 OFFCURVE",
"1028 1285 QCURVE",
"1028 1362 LINE",
"879 1319 OFFCURVE",
"713 1136 OFFCURVE",
"713 1005 QCURVE SMOOTH"
);
},
{
closed = 1;
nodes = (
"300 926 OFFCURVE",
"372 836 OFFCURVE",
"433 836 QCURVE SMOOTH",
"486 836 OFFCURVE",
"554 893 OFFCURVE",
"554 947 QCURVE SMOOTH",
"554 989 OFFCURVE",
"515 1032 OFFCURVE",
"468 1061 OFFCURVE",
"429 1089 OFFCURVE",
"429 1117 QCURVE SMOOTH",
"429 1226 OFFCURVE",
"615 1285 QCURVE",
"615 1362 LINE",
"466 1319 OFFCURVE",
"300 1136 OFFCURVE",
"300 1005 QCURVE SMOOTH"
);
}
);
width = 1139;
}
);
note = quotedblleft;
unicode = 201C;
},
{
glyphname = quotedblright;
lastChange = "2019-12-19 21:32:18 +0000";
layers = (
{
layerId = "10338F47-40ED-49C2-8613-307B859987A6";
paths = (
{
closed = 1;
nodes = (
"620 1272 OFFCURVE",
"548 1362 OFFCURVE",
"487 1362 QCURVE SMOOTH",
"434 1362 OFFCURVE",
"366 1305 OFFCURVE",
"366 1251 QCURVE SMOOTH",
"366 1209 OFFCURVE",
"405 1166 OFFCURVE",
"452 1137 OFFCURVE",
"491 1109 OFFCURVE",
"491 1081 QCURVE SMOOTH",
"491 972 OFFCURVE",
"305 913 QCURVE",
"305 836 LINE",
"454 879 OFFCURVE",
"620 1062 OFFCURVE",
"620 1193 QCURVE SMOOTH"
);
},
{
closed = 1;
nodes = (
"1033 1272 OFFCURVE",
"961 1362 OFFCURVE",
"900 1362 QCURVE SMOOTH",
"847 1362 OFFCURVE",
"779 1305 OFFCURVE",
"779 1251 QCURVE SMOOTH",
"779 1209 OFFCURVE",
"818 1166 OFFCURVE",
"865 1137 OFFCURVE",
"904 1109 OFFCURVE",
"904 1081 QCURVE SMOOTH",
"904 972 OFFCURVE",
"718 913 QCURVE",
"718 836 LINE",
"867 879 OFFCURVE",
"1033 1062 OFFCURVE",
"1033 1193 QCURVE SMOOTH"
);
}
);
width = 1139;
}
);
note = quotedblright;
unicode = 201D;
},
{
glyphname = quoteleft;
lastChange = "2019-12-19 21:32:18 +0000";
layers = (
{
layerId = "10338F47-40ED-49C2-8613-307B859987A6";
paths = (
{
closed = 1;
nodes = (
"302 926 OFFCURVE",
"374 836 OFFCURVE",
"435 836 QCURVE SMOOTH",
"488 836 OFFCURVE",
"556 893 OFFCURVE",
"556 947 QCURVE SMOOTH",
"556 989 OFFCURVE",
"517 1032 OFFCURVE",
"470 1061 OFFCURVE",
"431 1089 OFFCURVE",
"431 1117 QCURVE SMOOTH",
"431 1226 OFFCURVE",
"617 1285 QCURVE",
"617 1362 LINE",
"468 1319 OFFCURVE",
"302 1136 OFFCURVE",
"302 1005 QCURVE SMOOTH"
);
}
);
width = 682;
}
);
note = quoteleft;
unicode = 2018;
},
{
glyphname = quoteright;
lastChange = "2019-12-19 21:32:18 +0000";
layers = (
{
layerId = "10338F47-40ED-49C2-8613-307B859987A6";
paths = (
{
closed = 1;
nodes = (
"620 1272 OFFCURVE",
"548 1362 OFFCURVE",
"487 1362 QCURVE SMOOTH",
"434 1362 OFFCURVE",
"366 1305 OFFCURVE",
"366 1251 QCURVE SMOOTH",
"366 1209 OFFCURVE",
"405 1166 OFFCURVE",
"452 1137 OFFCURVE",
"491 1109 OFFCURVE",
"491 1081 QCURVE SMOOTH",
"491 972 OFFCURVE",
"305 913 QCURVE",
"305 836 LINE",
"454 879 OFFCURVE",
"620 1062 OFFCURVE",
"620 1193 QCURVE SMOOTH"
);
}
);
width = 682;
}
);
note = quoteright;
unicode = 2019;
},
{
glyphname = divide;
lastChange = "2019-12-19 21:32:18 +0000";
layers = (
{
layerId = "10338F47-40ED-49C2-8613-307B859987A6";
paths = (
{
closed = 1;
nodes = (
"688 1103 OFFCURVE",
"632 1159 OFFCURVE",
"592 1159 QCURVE SMOOTH",
"551 1159 OFFCURVE",
"495 1103 OFFCURVE",
"495 1063 QCURVE SMOOTH",
"495 1023 OFFCURVE",
"551 967 OFFCURVE",
"592 967 QCURVE SMOOTH",
"632 967 OFFCURVE",
"688 1023 OFFCURVE",
"688 1063 QCURVE SMOOTH"
);
},
{
closed = 1;
nodes = (
"688 337 OFFCURVE",
"632 393 OFFCURVE",
"592 393 QCURVE SMOOTH",
"551 393 OFFCURVE",
"495 337 OFFCURVE",
"495 297 QCURVE SMOOTH",
"495 257 OFFCURVE",
"551 201 OFFCURVE",
"592 201 QCURVE SMOOTH",
"632 201 OFFCURVE",
"688 257 OFFCURVE",
"688 297 QCURVE SMOOTH"
);
},
{
closed = 1;
nodes = (
"116 731 LINE",
"116 629 LINE",
"1069 629 LINE",
"1069 731 LINE"
);
}
);
width = 1124;
}
);
note = divide;
unicode = 00F7;
},
{
glyphname = lozenge;
lastChange = "2019-12-19 21:32:18 +0000";
layers = (
{
layerId = "10338F47-40ED-49C2-8613-307B859987A6";
paths = (
{
closed = 1;
nodes = (
"1006 721 LINE",
"547 1440 LINE",
"465 1440 LINE",
"8 719 LINE",
"465 0 LINE",
"547 0 LINE"
);
},
{
closed = 1;
nodes = (
"860 721 LINE",
"508 147 LINE",
"154 721 LINE",
"508 1286 LINE"
);
}
);
width = 1012;
}
);
note = lozenge;
unicode = 25CA;
},
{
glyphname = fraction;
lastChange = "2019-12-19 21:32:18 +0000";
layers = (
{
layerId = "10338F47-40ED-49C2-8613-307B859987A6";
paths = (
{
closed = 1;
nodes = (
"702 1341 LINE",
"602 1341 LINE",
"-362 0 LINE",
"-260 0 LINE"
);
}
);
width = 342;
}
);
note = fraction;
unicode = "2044,2215";
},
{
glyphname = Euro;
lastChange = "2019-12-19 21:32:18 +0000";
layers = (
{
layerId = "10338F47-40ED-49C2-8613-307B859987A6";
paths = (
{
closed = 1;
nodes = (
"82 829 LINE",
"68 748 LINE",
"174 748 LINE",
"154 673 OFFCURVE",
"144 584 QCURVE",
"39 584 LINE",
"24 502 LINE",
"136 502 LINE",
"134 446 LINE SMOOTH",
"134 227 OFFCURVE",
"356 -20 OFFCURVE",
"557 -20 QCURVE SMOOTH",
"740 -20 OFFCURVE",
"901 43 QCURVE",
"954 317 LINE",
"887 317 LINE",
"834 158 LINE",
"793 117 OFFCURVE",
"661 57 OFFCURVE",
"579 57 QCURVE SMOOTH",
"466 57 OFFCURVE",
"339 227 OFFCURVE",
"339 401 QCURVE",
"343 502 LINE",
"693 502 LINE",
"708 584 LINE",
"352 584 LINE",
"363 670 OFFCURVE",
"382 748 QCURVE",
"737 748 LINE",
"751 829 LINE",
"401 829 LINE",
"461 1057 OFFCURVE",
"649 1276 OFFCURVE",
"792 1276 QCURVE SMOOTH",
"852 1276 OFFCURVE",
"961 1229 OFFCURVE",
"999 1186 QCURVE",
"995 1053 LINE",
"1063 1053 LINE",
"1104 1305 LINE",
"1005 1335 OFFCURVE",
"859 1356 OFFCURVE",
"785 1356 QCURVE SMOOTH",
"574 1356 OFFCURVE",
"272 1098 OFFCURVE",
"194 829 QCURVE"
);
}
);
width = 1024;
}
);
note = Euro;
unicode = 20AC;
},
{
glyphname = guilsinglleft;
lastChange = "2019-12-19 21:32:18 +0000";
layers = (
{
layerId = "10338F47-40ED-49C2-8613-307B859987A6";
paths = (
{
closed = 1;
nodes = (
"122 496 LINE",
"111 430 LINE",
"402 74 LINE",
"463 74 LINE",
"280 457 LINE",
"600 852 LINE",
"539 852 LINE"
);
}
);
width = 682;
}
);
note = guilsinglleft;
unicode = 2039;
},
{
glyphname = guilsinglright;
lastChange = "2019-12-19 21:32:18 +0000";
layers = (
{
layerId = "10338F47-40ED-49C2-8613-307B859987A6";
paths = (
{
closed = 1;
nodes = (
"561 430 LINE",
"572 496 LINE",
"280 852 LINE",
"219 852 LINE",
"404 470 LINE",
"82 74 LINE",
"143 74 LINE"
);
}
);
width = 682;
}
);
note = guilsinglright;
unicode = 203A;
},
{
glyphname = uniFB01;
lastChange = "2019-12-19 21:32:18 +0000";
layers = (
{
layerId = "10338F47-40ED-49C2-8613-307B859987A6";
paths = (
{
closed = 1;
nodes = (
"414 856 LINE",
"714 856 LINE",
"564 0 LINE",
"891 0 LINE",
"899 45 LINE",
"742 70 LINE",
"895 940 LINE",
"428 940 LINE",
"455 1096 LINE",
"488 1240 OFFCURVE",
"592 1362 OFFCURVE",
"682 1362 QCURVE SMOOTH",
"757 1362 OFFCURVE",
"795 1341 QCURVE",
"820 1227 LINE",
"886 1227 LINE",
"921 1423 LINE",
"840 1442 OFFCURVE",
"741 1442 QCURVE SMOOTH",
"536 1442 OFFCURVE",
"317 1236 OFFCURVE",
"276 1010 QCURVE SMOOTH",
"264 944 LINE",
"94 905 LINE",
"86 856 LINE",
"248 856 LINE",
"23 -436 LINE",
"189 -436 LINE"
);
}
);
width = 1024;
}
);
note = uniFB01;
unicode = "F001,FB01";
},
{
glyphname = uniFB02;
lastChange = "2019-12-19 21:32:18 +0000";
layers = (
{
layerId = "10338F47-40ED-49C2-8613-307B859987A6";
paths = (
{
closed = 1;
nodes = (
"981 1429 LINE",
"963 1432 OFFCURVE",
"790 1442 OFFCURVE",
"745 1442 QCURVE SMOOTH",
"597 1442 OFFCURVE",
"416 1358 OFFCURVE",
"307 1177 OFFCURVE",
"276 1010 QCURVE SMOOTH",
"264 944 LINE",
"94 905 LINE",
"86 856 LINE",
"248 856 LINE",
"23 -436 LINE",
"189 -436 LINE",
"414 856 LINE",
"623 856 LINE",
"637 940 LINE",
"428 940 LINE",
"455 1096 LINE",
"487 1238 OFFCURVE",
"594 1362 OFFCURVE",
"686 1362 QCURVE SMOOTH",
"761 1362 OFFCURVE",
"799 1341 QCURVE",
"799 1340 LINE",
"564 0 LINE",
"891 0 LINE",
"899 45 LINE",
"742 70 LINE"
);
}
);
width = 1024;
}
);
note = uniFB02;
unicode = "F002,FB02";
},
{
glyphname = daggerdbl;
lastChange = "2019-12-19 21:32:18 +0000";
layers = (
{
layerId = "10338F47-40ED-49C2-8613-307B859987A6";
paths = (
{
closed = 1;
nodes = (
"437 242 LINE",
"29 289 LINE",
"3 133 LINE",
"425 176 LINE",
"309 -240 LINE",
"465 -240 LINE",
"491 176 LINE",
"900 133 LINE",
"927 289 LINE",
"503 242 LINE",
"598 401 LINE",
"554 590 LINE",
"665 780 LINE",
"626 940 LINE",
"1034 893 LINE",
"1061 1049 LINE",
"638 1006 LINE",
"758 1421 LINE",
"602 1421 LINE",
"572 1006 LINE",
"163 1049 LINE",
"136 893 LINE",
"560 940 LINE",
"469 780 LINE",
"508 590 LINE",
"402 401 LINE"
);
}
);
width = 1024;
}
);
note = daggerdbl;
unicode = 2021;
},
{
glyphname = periodcentered;
lastChange = "2019-12-19 21:32:18 +0000";
layers = (
{
layerId = "10338F47-40ED-49C2-8613-307B859987A6";
paths = (
{
closed = 1;
nodes = (
"407 727 OFFCURVE",
"338 799 OFFCURVE",
"286 799 QCURVE SMOOTH",
"234 799 OFFCURVE",
"165 727 OFFCURVE",
"165 678 QCURVE SMOOTH",
"165 627 OFFCURVE",
"235 557 OFFCURVE",
"286 557 QCURVE SMOOTH",
"337 557 OFFCURVE",
"407 627 OFFCURVE",
"407 678 QCURVE SMOOTH"
);
}
);
width = 512;
}
);
note = periodcentered;
unicode = 2219;
},
{
glyphname = quotesinglbase;
lastChange = "2019-12-19 21:32:18 +0000";
layers = (
{
layerId = "10338F47-40ED-49C2-8613-307B859987A6";
paths = (
{
closed = 1;
nodes = (
"483 121 OFFCURVE",
"411 211 OFFCURVE",
"350 211 QCURVE SMOOTH",
"297 211 OFFCURVE",
"229 154 OFFCURVE",
"229 100 QCURVE SMOOTH",
"229 58 OFFCURVE",
"268 15 OFFCURVE",
"315 -14 OFFCURVE",
"354 -42 OFFCURVE",
"354 -70 QCURVE SMOOTH",
"354 -179 OFFCURVE",
"168 -238 QCURVE",
"168 -315 LINE",
"317 -272 OFFCURVE",
"483 -89 OFFCURVE",
"483 42 QCURVE SMOOTH"
);
}
);
width = 682;
}
);
note = quotesinglbase;
unicode = 201A;
},
{
glyphname = quotedblbase;
lastChange = "2019-12-19 21:32:18 +0000";
layers = (
{
layerId = "10338F47-40ED-49C2-8613-307B859987A6";
paths = (
{
closed = 1;
nodes = (
"398 121 OFFCURVE",
"326 211 OFFCURVE",
"265 211 QCURVE SMOOTH",
"212 211 OFFCURVE",
"144 154 OFFCURVE",
"144 100 QCURVE SMOOTH",
"144 58 OFFCURVE",
"183 15 OFFCURVE",
"230 -14 OFFCURVE",
"269 -42 OFFCURVE",
"269 -70 QCURVE SMOOTH",
"269 -179 OFFCURVE",
"83 -238 QCURVE",
"83 -315 LINE",
"232 -272 OFFCURVE",
"398 -89 OFFCURVE",
"398 42 QCURVE SMOOTH"
);
},
{
closed = 1;
nodes = (
"811 121 OFFCURVE",
"739 211 OFFCURVE",
"678 211 QCURVE SMOOTH",
"625 211 OFFCURVE",
"557 154 OFFCURVE",
"557 100 QCURVE SMOOTH",
"557 58 OFFCURVE",
"596 15 OFFCURVE",
"643 -14 OFFCURVE",
"682 -42 OFFCURVE",
"682 -70 QCURVE SMOOTH",
"682 -179 OFFCURVE",
"496 -238 QCURVE",
"496 -315 LINE",
"645 -272 OFFCURVE",
"811 -89 OFFCURVE",
"811 42 QCURVE SMOOTH"
);
}
);
width = 1139;
}
);
note = quotedblbase;
unicode = 201E;
},
{
glyphname = perthousand;
lastChange = "2019-12-19 21:32:18 +0000";
layers = (
{
layerId = "10338F47-40ED-49C2-8613-307B859987A6";
paths = (
{
closed = 1;
nodes = (
"462 664 OFFCURVE",
"595 725 OFFCURVE",
"686 850 OFFCURVE",
"735 1041 OFFCURVE",
"735 1125 QCURVE SMOOTH",
"735 1362 OFFCURVE",
"498 1362 QCURVE SMOOTH",
"374 1362 OFFCURVE",
"209 1256 OFFCURVE",
"123 1033 OFFCURVE",
"123 911 QCURVE SMOOTH",
"123 664 OFFCURVE",
"376 664 QCURVE SMOOTH"
);
},
{
closed = 1;
nodes = (
"582 1054 OFFCURVE",
"531 834 OFFCURVE",
"454 737 OFFCURVE",
"391 737 QCURVE SMOOTH",
"328 737 OFFCURVE",
"275 812 OFFCURVE",
"275 886 QCURVE SMOOTH",
"275 972 OFFCURVE",
"323 1194 OFFCURVE",
"406 1288 OFFCURVE",
"477 1288 QCURVE SMOOTH",
"533 1288 OFFCURVE",
"582 1218 OFFCURVE",
"582 1145 QCURVE SMOOTH"
);
},
{
closed = 1;
nodes = (
"1363 1362 LINE",
"1251 1362 LINE",
"59 -20 LINE",
"171 -20 LINE"
);
},
{
closed = 1;
nodes = (
"1009 -29 OFFCURVE",
"1142 32 OFFCURVE",
"1233 157 OFFCURVE",
"1282 348 OFFCURVE",
"1282 432 QCURVE SMOOTH",
"1282 669 OFFCURVE",
"1045 669 QCURVE SMOOTH",
"921 669 OFFCURVE",
"756 563 OFFCURVE",
"670 340 OFFCURVE",
"670 218 QCURVE SMOOTH",
"670 -29 OFFCURVE",
"923 -29 QCURVE SMOOTH"
);
},
{
closed = 1;
nodes = (
"1129 361 OFFCURVE",
"1078 141 OFFCURVE",
"1001 44 OFFCURVE",
"938 44 QCURVE SMOOTH",
"875 44 OFFCURVE",
"822 119 OFFCURVE",
"822 193 QCURVE SMOOTH",
"822 279 OFFCURVE",
"870 501 OFFCURVE",
"953 595 OFFCURVE",
"1024 595 QCURVE SMOOTH",
"1080 595 OFFCURVE",
"1129 525 OFFCURVE",
"1129 452 QCURVE SMOOTH"
);
},
{
closed = 1;
nodes = (
"1705 -29 OFFCURVE",
"1838 32 OFFCURVE",
"1929 157 OFFCURVE",
"1978 348 OFFCURVE",
"1978 432 QCURVE SMOOTH",
"1978 669 OFFCURVE",
"1741 669 QCURVE SMOOTH",
"1617 669 OFFCURVE",
"1452 563 OFFCURVE",
"1366 340 OFFCURVE",
"1366 218 QCURVE SMOOTH",
"1366 -29 OFFCURVE",
"1619 -29 QCURVE SMOOTH"
);
},
{
closed = 1;
nodes = (
"1825 361 OFFCURVE",
"1774 141 OFFCURVE",
"1697 44 OFFCURVE",
"1634 44 QCURVE SMOOTH",
"1571 44 OFFCURVE",
"1518 119 OFFCURVE",
"1518 193 QCURVE SMOOTH",
"1518 279 OFFCURVE",
"1566 501 OFFCURVE",
"1649 595 OFFCURVE",
"1720 595 QCURVE SMOOTH",
"1776 595 OFFCURVE",
"1825 525 OFFCURVE",
"1825 452 QCURVE SMOOTH"
);
}
);
width = 2048;
}
);
note = perthousand;
unicode = 2030;
},
{
glyphname = dotlessi;
lastChange = "2019-12-19 21:32:18 +0000";
layers = (
{
layerId = "10338F47-40ED-49C2-8613-307B859987A6";
paths = (
{
closed = 1;
nodes = (
"440 940 LINE",
"141 940 LINE",
"133 895 LINE",
"262 870 LINE",
"109 0 LINE",
"436 0 LINE",
"444 45 LINE",
"287 70 LINE"
);
}
);
width = 569;
}
);
note = dotlessi;
unicode = 0131;
},
{
glyphname = circumflex;
lastChange = "2019-12-19 21:32:18 +0000";
layers = (
{
layerId = "10338F47-40ED-49C2-8613-307B859987A6";
paths = (
{
closed = 1;
nodes = (
"238 1118 LINE",
"508 1301 LINE",
"714 1118 LINE",
"761 1118 LINE",
"766 1151 LINE",
"627 1424 LINE",
"414 1424 LINE",
"179 1151 LINE",
"174 1118 LINE"
);
}
);
width = 682;
}
);
note = circumflex;
unicode = 02C6;
},
{
glyphname = tilde;
lastChange = "2019-12-19 21:32:18 +0000";
layers = (
{
layerId = "10338F47-40ED-49C2-8613-307B859987A6";
paths = (
{
closed = 1;
nodes = (
"661 1119 OFFCURVE",
"778 1235 OFFCURVE",
"810 1360 QCURVE",
"758 1360 LINE",
"735 1290 OFFCURVE",
"679 1242 OFFCURVE",
"637 1242 QCURVE SMOOTH",
"605 1242 OFFCURVE",
"546 1285 OFFCURVE",
"483 1338 OFFCURVE",
"409 1381 OFFCURVE",
"361 1381 QCURVE SMOOTH",
"272 1381 OFFCURVE",
"155 1266 OFFCURVE",
"123 1139 QCURVE",
"175 1139 LINE",
"194 1195 OFFCURVE",
"223 1235 OFFCURVE",
"264 1258 OFFCURVE",
"296 1258 QCURVE SMOOTH",
"329 1258 OFFCURVE",
"388 1215 OFFCURVE",
"451 1162 OFFCURVE",
"524 1119 OFFCURVE",
"572 1119 QCURVE SMOOTH"
);
}
);
width = 682;
}
);
note = tilde;
unicode = 02DC;
},
{
glyphname = uni02C9;
lastChange = "2019-12-19 21:32:18 +0000";
layers = (
{
layerId = "10338F47-40ED-49C2-8613-307B859987A6";
paths = (
{
closed = 1;
nodes = (
"786 1161 LINE",
"805 1270 LINE",
"177 1270 LINE",
"158 1161 LINE"
);
}
);
width = 682;
}
);
note = uni02C9;
unicode = 02C9;
},
{
glyphname = breve;
lastChange = "2019-12-19 21:32:18 +0000";
layers = (
{
layerId = "10338F47-40ED-49C2-8613-307B859987A6";
paths = (
{
closed = 1;
nodes = (
"599 1119 OFFCURVE",
"774 1269 OFFCURVE",
"801 1399 QCURVE",
"727 1399 LINE",
"701 1335 OFFCURVE",
"576 1260 OFFCURVE",
"490 1260 QCURVE SMOOTH",
"406 1260 OFFCURVE",
"305 1334 OFFCURVE",
"301 1399 QCURVE",
"227 1399 LINE",
"223 1343 LINE",
"223 1237 OFFCURVE",
"349 1119 OFFCURVE",
"465 1119 QCURVE SMOOTH"
);
}
);
width = 682;
}
);
note = breve;
unicode = 02D8;
},
{
glyphname = dotaccent;
lastChange = "2019-12-19 21:32:18 +0000";
layers = (
{
layerId = "10338F47-40ED-49C2-8613-307B859987A6";
paths = (
{
closed = 1;
nodes = (
"580 1292 OFFCURVE",
"516 1356 OFFCURVE",
"471 1356 QCURVE SMOOTH",
"427 1356 OFFCURVE",
"363 1292 OFFCURVE",
"363 1247 QCURVE SMOOTH",
"363 1203 OFFCURVE",
"427 1139 OFFCURVE",
"471 1139 QCURVE SMOOTH",
"516 1139 OFFCURVE",
"580 1203 OFFCURVE",
"580 1247 QCURVE SMOOTH"
);
}
);
width = 682;
}
);
note = dotaccent;
unicode = 02D9;
},
{
glyphname = ring;
lastChange = "2019-12-19 21:32:18 +0000";
layers = (
{
layerId = "10338F47-40ED-49C2-8613-307B859987A6";
paths = (
{
closed = 1;
nodes = (
"675 1361 OFFCURVE",
"556 1480 OFFCURVE",
"472 1480 QCURVE SMOOTH",
"388 1480 OFFCURVE",
"269 1361 OFFCURVE",
"269 1277 QCURVE SMOOTH",
"269 1193 OFFCURVE",
"388 1074 OFFCURVE",
"472 1074 QCURVE SMOOTH",
"556 1074 OFFCURVE",
"675 1193 OFFCURVE",
"675 1277 QCURVE SMOOTH"
);
},
{
closed = 1;
nodes = (
"595 1224 OFFCURVE",
"520 1154 OFFCURVE",
"472 1154 QCURVE SMOOTH",
"423 1154 OFFCURVE",
"349 1225 OFFCURVE",
"349 1277 QCURVE SMOOTH",
"349 1328 OFFCURVE",
"421 1400 OFFCURVE",
"472 1400 QCURVE SMOOTH",
"523 1400 OFFCURVE",
"595 1328 OFFCURVE",
"595 1277 QCURVE SMOOTH"
);
}
);
width = 682;
}
);
note = ring;
unicode = 02DA;
},
{
glyphname = cedilla;
lastChange = "2019-12-19 21:32:18 +0000";
layers = (
{
layerId = "10338F47-40ED-49C2-8613-307B859987A6";
paths = (
{
closed = 1;
nodes = (
"526 -145 OFFCURVE",
"439 -63 OFFCURVE",
"359 -55 QCURVE",
"392 27 LINE",
"306 27 LINE",
"238 -126 LINE",
"303 -132 OFFCURVE",
"371 -191 OFFCURVE",
"371 -235 QCURVE SMOOTH",
"371 -292 OFFCURVE",
"295 -347 OFFCURVE",
"234 -347 QCURVE SMOOTH",
"185 -347 OFFCURVE",
"137 -331 QCURVE",
"114 -406 LINE",
"175 -427 OFFCURVE",
"247 -427 QCURVE SMOOTH",
"383 -427 OFFCURVE",
"526 -310 OFFCURVE",
"526 -212 QCURVE SMOOTH"
);
}
);
width = 682;
}
);
note = cedilla;
unicode = 00B8;
},
{
glyphname = hungarumlaut;
lastChange = "2019-12-19 21:32:18 +0000";
layers = (
{
layerId = "10338F47-40ED-49C2-8613-307B859987A6";
paths = (
{
closed = 1;
nodes = (
"158 1118 LINE",
"502 1407 LINE",
"508 1444 LINE",
"316 1444 LINE",
"89 1151 LINE",
"83 1118 LINE"
);
},
{
closed = 1;
nodes = (
"509 1118 LINE",
"852 1407 LINE",
"858 1444 LINE",
"666 1444 LINE",
"439 1151 LINE",
"433 1118 LINE"
);
}
);
width = 682;
}
);
note = hungarumlaut;
unicode = 02DD;
},
{
glyphname = ogonek;
lastChange = "2019-12-19 21:32:18 +0000";
layers = (
{
layerId = "10338F47-40ED-49C2-8613-307B859987A6";
paths = (
{
closed = 1;
nodes = (
"479 -297 LINE",
"436 -315 OFFCURVE",
"390 -315 QCURVE SMOOTH",
"333 -315 OFFCURVE",
"271 -256 OFFCURVE",
"271 -202 QCURVE SMOOTH",
"271 -145 OFFCURVE",
"319 -31 OFFCURVE",
"361 16 QCURVE",
"252 16 LINE",
"190 -35 OFFCURVE",
"122 -158 OFFCURVE",
"122 -221 QCURVE SMOOTH",
"122 -306 OFFCURVE",
"227 -403 OFFCURVE",
"319 -403 QCURVE SMOOTH",
"415 -403 OFFCURVE",
"495 -354 QCURVE"
);
}
);
width = 682;
}
);
note = ogonek;
unicode = 02DB;
},
{
glyphname = caron;
lastChange = "2019-12-19 21:32:18 +0000";
layers = (
{
layerId = "10338F47-40ED-49C2-8613-307B859987A6";
paths = (
{
closed = 1;
nodes = (
"189 1424 LINE",
"184 1391 LINE",
"324 1118 LINE",
"537 1118 LINE",
"772 1391 LINE",
"777 1424 LINE",
"717 1424 LINE",
"447 1241 LINE",
"241 1424 LINE"
);
}
);
width = 682;
}
);
note = caron;
unicode = 02C7;
},
{
glyphname = Lslash;
lastChange = "2019-12-19 21:32:18 +0000";
layers = (
{
layerId = "10338F47-40ED-49C2-8613-307B859987A6";
paths = (
{
closed = 1;
nodes = (
"563 1262 LINE",
"774 1288 LINE",
"784 1341 LINE",
"212 1341 LINE",
"202 1288 LINE",
"370 1262 LINE",
"257 625 LINE",
"52 518 LINE",
"36 422 LINE",
"240 530 LINE",
"161 80 LINE",
"-14 53 LINE",
"-24 0 LINE",
"956 0 LINE",
"1042 385 LINE",
"977 385 LINE",
"866 106 LINE",
"759 86 OFFCURVE",
"569 86 QCURVE SMOOTH",
"355 86 LINE",
"453 642 LINE",
"793 821 LINE",
"810 915 LINE",
"470 736 LINE"
);
}
);
width = 1139;
}
);
note = Lslash;
unicode = 0141;
},
{
glyphname = lslash;
lastChange = "2019-12-19 21:32:18 +0000";
layers = (
{
layerId = "10338F47-40ED-49C2-8613-307B859987A6";
paths = (
{
closed = 1;
nodes = (
"524 1421 LINE",
"225 1421 LINE",
"217 1376 LINE",
"346 1352 LINE",
"217 621 LINE",
"19 518 LINE",
"3 422 LINE",
"201 526 LINE",
"109 0 LINE",
"436 0 LINE",
"444 45 LINE",
"287 70 LINE",
"384 622 LINE",
"596 735 LINE",
"612 829 LINE",
"400 716 LINE"
);
}
);
width = 569;
}
);
note = lslash;
unicode = 0142;
},
{
glyphname = brokenbar;
lastChange = "2019-12-19 21:32:18 +0000";
layers = (
{
layerId = "10338F47-40ED-49C2-8613-307B859987A6";
paths = (
{
closed = 1;
nodes = (
"369 801 LINE",
"369 1421 LINE",
"267 1421 LINE",
"267 801 LINE"
);
},
{
closed = 1;
nodes = (
"369 -442 LINE",
"369 180 LINE",
"267 180 LINE",
"267 -442 LINE"
);
}
);
width = 563;
}
);
note = brokenbar;
unicode = 00A6;
},
{
glyphname = Eth;
lastChange = "2019-12-19 21:32:18 +0000";
layers = (
{
layerId = "10338F47-40ED-49C2-8613-307B859987A6";
paths = (
{
closed = 1;
nodes = (
"212 1341 LINE",
"203 1288 LINE",
"370 1262 LINE",
"273 711 LINE",
"93 711 LINE",
"78 629 LINE",
"258 629 LINE",
"162 80 LINE",
"-14 53 LINE",
"-23 0 LINE",
"629 -4 LINE SMOOTH",
"875 -4 OFFCURVE",
"1247 189 OFFCURVE",
"1448 553 OFFCURVE",
"1448 792 QCURVE SMOOTH",
"1448 1058 OFFCURVE",
"1107 1341 OFFCURVE",
"784 1341 QCURVE SMOOTH"
);
},
{
closed = 1;
nodes = (
"1238 449 OFFCURVE",
"915 86 OFFCURVE",
"621 86 QCURVE SMOOTH",
"517 86 OFFCURVE",
"357 94 QCURVE",
"451 629 LINE",
"826 629 LINE",
"841 711 LINE",
"466 711 LINE",
"561 1251 LINE",
"723 1251 LINE SMOOTH",
"1238 1251 OFFCURVE",
"1238 785 QCURVE SMOOTH"
);
}
);
width = 1479;
}
);
note = Eth;
unicode = 00D0;
},
{
glyphname = eth;
lastChange = "2019-12-19 21:32:18 +0000";
layers = (
{
layerId = "10338F47-40ED-49C2-8613-307B859987A6";
paths = (
{
closed = 1;
nodes = (
"959 842 OFFCURVE",
"854 1152 OFFCURVE",
"759 1235 QCURVE",
"973 1350 LINE",
"990 1444 LINE",
"696 1288 LINE",
"577 1377 OFFCURVE",
"405 1421 QCURVE",
"391 1343 LINE",
"501 1307 OFFCURVE",
"590 1233 QCURVE",
"339 1102 LINE",
"322 1006 LINE",
"648 1178 LINE",
"752 1061 OFFCURVE",
"781 859 QCURVE",
"693 907 OFFCURVE",
"590 907 QCURVE SMOOTH",
"439 907 OFFCURVE",
"196 762 OFFCURVE",
"57 501 OFFCURVE",
"57 348 QCURVE SMOOTH",
"57 177 OFFCURVE",
"256 -25 OFFCURVE",
"423 -25 QCURVE SMOOTH",
"679 -25 OFFCURVE",
"959 331 OFFCURVE",
"959 658 QCURVE SMOOTH"
);
},
{
closed = 1;
nodes = (
"666 825 OFFCURVE",
"771 684 OFFCURVE",
"771 548 QCURVE SMOOTH",
"771 417 OFFCURVE",
"681 190 OFFCURVE",
"526 59 OFFCURVE",
"438 59 QCURVE SMOOTH",
"344 59 OFFCURVE",
"237 200 OFFCURVE",
"237 331 QCURVE SMOOTH",
"237 465 OFFCURVE",
"327 696 OFFCURVE",
"479 825 OFFCURVE",
"567 825 QCURVE SMOOTH"
);
}
);
width = 1024;
}
);
note = eth;
unicode = 00F0;
},
{
glyphname = Thorn;
lastChange = "2019-12-19 21:32:18 +0000";
layers = (
{
layerId = "10338F47-40ED-49C2-8613-307B859987A6";
paths = (
{
closed = 1;
nodes = (
"403 358 LINE",
"515 993 LINE",
"663 993 LINE SMOOTH",
"809 993 OFFCURVE",
"954 858 OFFCURVE",
"954 715 QCURVE SMOOTH",
"954 358 OFFCURVE",
"566 358 QCURVE SMOOTH"
);
},
{
closed = 1;
nodes = (
"531 1083 LINE",
"563 1262 LINE",
"739 1288 LINE",
"749 1341 LINE",
"225 1341 LINE",
"215 1288 LINE",
"370 1262 LINE",
"161 80 LINE",
"-1 53 LINE",
"-11 0 LINE",
"563 0 LINE",
"573 53 LINE",
"354 80 LINE",
"387 268 LINE",
"588 268 LINE SMOOTH",
"860 268 OFFCURVE",
"1153 504 OFFCURVE",
"1153 728 QCURVE SMOOTH",
"1153 904 OFFCURVE",
"919 1083 OFFCURVE",
"703 1083 QCURVE SMOOTH"
);
}
);
width = 1251;
}
);
note = Thorn;
unicode = 00DE;
},
{
glyphname = thorn;
lastChange = "2019-12-19 21:32:18 +0000";
layers = (
{
layerId = "10338F47-40ED-49C2-8613-307B859987A6";
paths = (
{
closed = 1;
nodes = (
"468 1421 LINE",
"165 1421 LINE",
"157 1376 LINE",
"290 1352 LINE",
"-13 -365 LINE",
"-136 -389 LINE",
"-144 -436 LINE",
"302 -436 LINE",
"310 -389 LINE",
"150 -365 LINE",
"200 -88 LINE",
"211 2 LINE",
"236 -6 OFFCURVE",
"334 -20 OFFCURVE",
"382 -20 QCURVE SMOOTH",
"542 -20 OFFCURVE",
"810 156 OFFCURVE",
"962 459 OFFCURVE",
"962 631 QCURVE SMOOTH",
"962 786 OFFCURVE",
"808 965 OFFCURVE",
"680 965 QCURVE SMOOTH",
"538 965 OFFCURVE",
"355 788 QCURVE"
);
},
{
closed = 1;
nodes = (
"342 701 LINE",
"405 764 OFFCURVE",
"553 840 OFFCURVE",
"607 840 QCURVE SMOOTH",
"689 840 OFFCURVE",
"783 715 OFFCURVE",
"783 605 QCURVE SMOOTH",
"783 468 OFFCURVE",
"677 204 OFFCURVE",
"506 59 OFFCURVE",
"399 59 QCURVE SMOOTH",
"293 59 OFFCURVE",
"233 107 QCURVE"
);
}
);
width = 1024;
}
);
note = thorn;
unicode = 00FE;
},
{
glyphname = minus;
lastChange = "2019-12-19 21:32:18 +0000";
layers = (
{
layerId = "10338F47-40ED-49C2-8613-307B859987A6";
paths = (
{
closed = 1;
nodes = (
"233 731 LINE",
"233 629 LINE",
"1186 629 LINE",
"1186 731 LINE"
);
}
);
width = 1382;
}
);
note = minus;
unicode = 2212;
},
{
glyphname = multiply;
lastChange = "2019-12-19 21:32:18 +0000";
layers = (
{
layerId = "10338F47-40ED-49C2-8613-307B859987A6";
paths = (
{
closed = 1;
nodes = (
"1054 264 LINE",
"1125 336 LINE",
"781 682 LINE",
"1125 1026 LINE",
"1054 1098 LINE",
"708 754 LINE",
"366 1098 LINE",
"292 1024 LINE",
"636 682 LINE",
"292 336 LINE",
"363 264 LINE",
"708 608 LINE"
);
}
);
width = 1382;
}
);
note = multiply;
unicode = 00D7;
},
{
glyphname = uni00B9;
lastChange = "2019-12-19 21:32:18 +0000";
layers = (
{
layerId = "10338F47-40ED-49C2-8613-307B859987A6";
paths = (
{
closed = 1;
nodes = (
"520 1346 LINE",
"448 1346 LINE",
"191 1212 LINE",
"183 1165 LINE",
"354 1223 LINE",
"244 598 LINE",
"77 584 LINE",
"69 535 LINE",
"543 535 LINE",
"552 584 LINE",
"388 598 LINE"
);
}
);
width = 614;
}
);
note = uni00B9;
unicode = 00B9;
},
{
glyphname = uni00B2;
lastChange = "2019-12-19 21:32:18 +0000";
layers = (
{
layerId = "10338F47-40ED-49C2-8613-307B859987A6";
paths = (
{
closed = 1;
nodes = (
"566 643 LINE",
"179 643 LINE",
"352 770 LINE SMOOTH",
"504 879 OFFCURVE",
"641 1064 OFFCURVE",
"641 1161 QCURVE SMOOTH",
"641 1248 OFFCURVE",
"515 1350 OFFCURVE",
"399 1350 QCURVE SMOOTH",
"318 1350 OFFCURVE",
"205 1323 QCURVE",
"174 1151 LINE",
"229 1151 LINE",
"267 1249 LINE",
"325 1282 OFFCURVE",
"387 1282 QCURVE SMOOTH",
"442 1282 OFFCURVE",
"498 1213 OFFCURVE",
"498 1161 QCURVE SMOOTH",
"498 1079 OFFCURVE",
"424 932 OFFCURVE",
"274 784 OFFCURVE",
"64 631 QCURVE",
"49 535 LINE",
"547 535 LINE"
);
}
);
width = 614;
}
);
note = uni00B2;
unicode = 00B2;
},
{
glyphname = uni00B3;
lastChange = "2019-12-19 21:32:18 +0000";
layers = (
{
layerId = "10338F47-40ED-49C2-8613-307B859987A6";
paths = (
{
closed = 1;
nodes = (
"421 522 OFFCURVE",
"606 669 OFFCURVE",
"606 788 QCURVE SMOOTH",
"606 858 OFFCURVE",
"508 945 OFFCURVE",
"413 956 QCURVE",
"526 973 OFFCURVE",
"640 1086 OFFCURVE",
"640 1176 QCURVE SMOOTH",
"640 1256 OFFCURVE",
"503 1350 OFFCURVE",
"388 1350 QCURVE SMOOTH",
"302 1350 OFFCURVE",
"196 1323 QCURVE",
"165 1151 LINE",
"220 1151 LINE",
"258 1253 LINE",
"312 1282 OFFCURVE",
"377 1282 QCURVE SMOOTH",
"499 1282 OFFCURVE",
"499 1174 QCURVE SMOOTH",
"499 1082 OFFCURVE",
"412 996 OFFCURVE",
"340 993 QCURVE SMOOTH",
"253 989 LINE",
"241 924 LINE",
"326 918 LINE SMOOTH",
"465 907 OFFCURVE",
"465 784 QCURVE SMOOTH",
"465 684 OFFCURVE",
"362 590 OFFCURVE",
"259 590 QCURVE SMOOTH",
"222 590 OFFCURVE",
"149 610 OFFCURVE",
"129 623 QCURVE",
"122 735 LINE",
"67 735 LINE",
"41 549 LINE",
"147 522 OFFCURVE",
"259 522 QCURVE SMOOTH"
);
}
);
width = 614;
}
);
note = uni00B3;
unicode = 00B3;
},
{
glyphname = franc;
lastChange = "2019-12-19 21:32:18 +0000";
layers = (
{
layerId = "10338F47-40ED-49C2-8613-307B859987A6";
paths = (
{
closed = 1;
nodes = (
"790 612 LINE",
"793 450 LINE",
"854 450 LINE",
"926 862 LINE",
"865 862 LINE",
"806 702 LINE",
"441 702 LINE",
"538 1251 LINE",
"651 1251 LINE SMOOTH",
"864 1251 OFFCURVE",
"972 1237 QCURVE",
"966 1020 LINE",
"1032 1020 LINE",
"1089 1341 LINE",
"189 1341 LINE",
"179 1288 LINE",
"347 1262 LINE",
"192 384 LINE",
"20 384 LINE",
"5 302 LINE",
"177 302 LINE",
"138 80 LINE",
"-24 53 LINE",
"-34 0 LINE",
"520 0 LINE",
"530 53 LINE",
"331 80 LINE",
"370 302 LINE",
"644 302 LINE",
"659 384 LINE",
"385 384 LINE",
"425 612 LINE"
);
}
);
width = 1024;
}
);
note = franc;
unicode = 20A3;
},
{
glyphname = uni0111;
lastChange = "2019-12-19 21:32:18 +0000";
layers = (
{
layerId = "10338F47-40ED-49C2-8613-307B859987A6";
paths = (
{
closed = 1;
nodes = (
"712 964 OFFCURVE",
"618 964 QCURVE SMOOTH",
"465 964 OFFCURVE",
"209 789 OFFCURVE",
"62 488 OFFCURVE",
"62 317 QCURVE SMOOTH",
"62 164 OFFCURVE",
"206 -21 OFFCURVE",
"329 -21 QCURVE SMOOTH",
"469 -21 OFFCURVE",
"638 156 QCURVE",
"609 0 LINE",
"894 0 LINE",
"902 45 LINE",
"789 70 LINE",
"974 1112 LINE",
"1090 1112 LINE",
"1105 1196 LINE",
"989 1196 LINE",
"1029 1421 LINE",
"705 1421 LINE",
"697 1376 LINE",
"851 1352 LINE",
"823 1196 LINE",
"527 1196 LINE",
"512 1112 LINE",
"808 1112 LINE",
"808 1108 LINE",
"794 1023 LINE",
"783 941 LINE"
);
},
{
closed = 1;
nodes = (
"651 243 LINE",
"590 177 OFFCURVE",
"459 104 OFFCURVE",
"403 104 QCURVE SMOOTH",
"328 104 OFFCURVE",
"240 232 OFFCURVE",
"240 339 QCURVE SMOOTH",
"240 478 OFFCURVE",
"340 738 OFFCURVE",
"504 886 OFFCURVE",
"598 886 QCURVE SMOOTH",
"651 886 OFFCURVE",
"725 860 OFFCURVE",
"760 837 QCURVE"
);
}
);
width = 1024;
}
);
note = uni0111;
unicode = 0111;
},
{
glyphname = uni00AF;
lastChange = "2019-12-19 21:32:18 +0000";
layers = (
{
layerId = "10338F47-40ED-49C2-8613-307B859987A6";
paths = (
{
closed = 1;
nodes = (
"1205 1546 LINE",
"146 1546 LINE",
"146 1452 LINE",
"1205 1452 LINE"
);
}
);
width = 1024;
}
);
note = uni00AF;
unicode = 00AF;
},
{
glyphname = Gamma;
lastChange = "2019-12-19 21:32:18 +0000";
layers = (
{
layerId = "10338F47-40ED-49C2-8613-307B859987A6";
paths = (
{
closed = 1;
nodes = (
"562 53 LINE",
"360 79 LINE",
"568 1255 LINE",
"822 1255 LINE SMOOTH",
"879 1255 OFFCURVE",
"1070 1242 OFFCURVE",
"1102 1235 QCURVE",
"1115 956 LINE",
"1180 956 LINE",
"1230 1341 LINE",
"219 1341 LINE",
"209 1288 LINE",
"376 1261 LINE",
"167 79 LINE",
"-8 53 LINE",
"-17 0 LINE",
"553 0 LINE"
);
}
);
width = 1165;
}
);
note = Gamma;
unicode = 0393;
},
{
glyphname = Theta;
lastChange = "2019-12-19 21:32:18 +0000";
layers = (
{
layerId = "10338F47-40ED-49C2-8613-307B859987A6";
paths = (
{
closed = 1;
nodes = (
"937 610 LINE",
"940 468 LINE",
"1004 468 LINE",
"1085 880 LINE",
"1021 880 LINE",
"962 740 LINE",
"600 740 LINE",
"597 880 LINE",
"533 880 LINE",
"452 468 LINE",
"516 468 LINE",
"575 610 LINE"
);
},
{
closed = 1;
nodes = (
"1231 644 OFFCURVE",
"1072 266 OFFCURVE",
"819 65 OFFCURVE",
"670 65 QCURVE SMOOTH",
"504 65 OFFCURVE",
"303 305 OFFCURVE",
"303 503 QCURVE SMOOTH",
"303 695 OFFCURVE",
"460 1073 OFFCURVE",
"709 1276 OFFCURVE",
"858 1276 QCURVE SMOOTH",
"1026 1276 OFFCURVE",
"1231 1032 OFFCURVE",
"1231 832 QCURVE SMOOTH"
);
},
{
closed = 1;
nodes = (
"885 -20 OFFCURVE",
"1230 187 OFFCURVE",
"1431 585 OFFCURVE",
"1431 822 QCURVE SMOOTH",
"1431 976 OFFCURVE",
"1289 1221 OFFCURVE",
"1032 1356 OFFCURVE",
"871 1356 QCURVE SMOOTH",
"649 1356 OFFCURVE",
"303 1146 OFFCURVE",
"103 755 OFFCURVE",
"103 514 QCURVE SMOOTH",
"103 361 OFFCURVE",
"245 115 OFFCURVE",
"502 -20 OFFCURVE",
"663 -20 QCURVE SMOOTH"
);
}
);
width = 1479;
}
);
note = Theta;
unicode = 0398;
},
{
glyphname = Phi;
lastChange = "2019-12-19 21:32:18 +0000";
layers = (
{
layerId = "10338F47-40ED-49C2-8613-307B859987A6";
paths = (
{
closed = 1;
nodes = (
"829 300 LINE",
"962 1059 LINE",
"995 1059 LINE SMOOTH",
"1147 1059 OFFCURVE",
"1306 889 OFFCURVE",
"1306 727 QCURVE SMOOTH",
"1306 300 OFFCURVE",
"918 300 QCURVE SMOOTH"
);
},
{
closed = 1;
nodes = (
"780 1059 LINE",
"646 300 LINE",
"604 300 LINE SMOOTH",
"452 300 OFFCURVE",
"293 470 OFFCURVE",
"293 632 QCURVE SMOOTH",
"293 1059 OFFCURVE",
"681 1059 QCURVE SMOOTH"
);
},
{
closed = 1;
nodes = (
"608 80 LINE",
"430 53 LINE",
"421 0 LINE",
"947 0 LINE",
"956 53 LINE",
"790 80 LINE",
"814 222 LINE",
"928 222 LINE SMOOTH",
"1208 222 OFFCURVE",
"1506 483 OFFCURVE",
"1506 726 QCURVE SMOOTH",
"1506 919 OFFCURVE",
"1261 1137 OFFCURVE",
"1033 1137 QCURVE SMOOTH",
"977 1137 LINE",
"998 1262 LINE",
"1175 1288 LINE",
"1185 1341 LINE",
"659 1341 LINE",
"649 1288 LINE",
"816 1262 LINE",
"795 1137 LINE",
"671 1137 LINE SMOOTH",
"393 1137 OFFCURVE",
"101 879 OFFCURVE",
"101 635 QCURVE SMOOTH",
"101 431 OFFCURVE",
"343 222 OFFCURVE",
"566 222 QCURVE SMOOTH",
"632 222 LINE"
);
}
);
width = 1559;
}
);
note = Phi;
unicode = 03A6;
},
{
glyphname = alpha;
lastChange = "2019-12-19 21:32:18 +0000";
layers = (
{
layerId = "10338F47-40ED-49C2-8613-307B859987A6";
paths = (
{
closed = 1;
nodes = (
"894 60 LINE",
"866 126 OFFCURVE",
"831 317 OFFCURVE",
"823 471 QCURVE",
"954 688 OFFCURVE",
"1063 856 OFFCURVE",
"1101 900 QCURVE",
"1109 940 LINE",
"952 940 LINE",
"825 704 LINE",
"811 674 LINE",
"810 703 LINE",
"771 966 OFFCURVE",
"542 966 QCURVE SMOOTH",
"434 966 OFFCURVE",
"254 875 OFFCURVE",
"125 698 OFFCURVE",
"61 462 OFFCURVE",
"61 347 QCURVE SMOOTH",
"61 177 OFFCURVE",
"211 -21 OFFCURVE",
"338 -21 QCURVE SMOOTH",
"450 -21 OFFCURVE",
"611 102 OFFCURVE",
"692 253 QCURVE",
"695 191 OFFCURVE",
"723 46 OFFCURVE",
"740 0 QCURVE",
"953 0 LINE",
"961 45 LINE"
);
},
{
closed = 1;
nodes = (
"705 514 LINE",
"704 433 LINE",
"616 236 OFFCURVE",
"466 78 OFFCURVE",
"383 78 QCURVE SMOOTH",
"314 78 OFFCURVE",
"237 206 OFFCURVE",
"237 316 QCURVE SMOOTH",
"237 438 OFFCURVE",
"315 738 OFFCURVE",
"449 886 OFFCURVE",
"543 886 QCURVE SMOOTH",
"626 886 OFFCURVE",
"705 738 OFFCURVE",
"705 572 QCURVE SMOOTH"
);
}
);
width = 1075;
}
);
note = alpha;
unicode = 03B1;
},
{
glyphname = delta;
lastChange = "2019-12-19 21:32:18 +0000";
layers = (
{
layerId = "10338F47-40ED-49C2-8613-307B859987A6";
paths = (
{
closed = 1;
nodes = (
"559 -20 OFFCURVE",
"775 112 OFFCURVE",
"899 358 OFFCURVE",
"899 499 QCURVE SMOOTH",
"899 614 OFFCURVE",
"811 805 OFFCURVE",
"717 901 QCURVE SMOOTH",
"603 1014 OFFCURVE",
"532 1132 OFFCURVE",
"532 1185 QCURVE SMOOTH",
"532 1268 OFFCURVE",
"640 1351 OFFCURVE",
"727 1351 QCURVE SMOOTH",
"772 1351 OFFCURVE",
"852 1327 OFFCURVE",
"874 1304 QCURVE",
"897 1195 LINE",
"944 1195 LINE",
"979 1393 LINE",
"849 1431 OFFCURVE",
"739 1431 QCURVE SMOOTH",
"567 1431 OFFCURVE",
"379 1294 OFFCURVE",
"379 1169 QCURVE SMOOTH",
"379 1026 OFFCURVE",
"525 870 QCURVE",
"292 799 OFFCURVE",
"60 527 OFFCURVE",
"60 340 QCURVE SMOOTH",
"60 172 OFFCURVE",
"253 -20 OFFCURVE",
"420 -20 QCURVE SMOOTH"
);
},
{
closed = 1;
nodes = (
"332 59 OFFCURVE",
"231 190 OFFCURVE",
"231 316 QCURVE SMOOTH",
"231 492 OFFCURVE",
"414 766 OFFCURVE",
"576 818 QCURVE",
"720 682 OFFCURVE",
"720 498 QCURVE SMOOTH",
"720 381 OFFCURVE",
"645 166 OFFCURVE",
"515 59 OFFCURVE",
"429 59 QCURVE SMOOTH"
);
}
);
width = 952;
}
);
note = delta;
unicode = 03B4;
},
{
glyphname = epsilon;
lastChange = "2019-12-19 21:32:18 +0000";
layers = (
{
layerId = "10338F47-40ED-49C2-8613-307B859987A6";
paths = (
{
closed = 1;
nodes = (
"372 965 OFFCURVE",
"165 832 OFFCURVE",
"165 715 QCURVE SMOOTH",
"165 648 OFFCURVE",
"243 540 OFFCURVE",
"309 513 QCURVE",
"307 506 LINE",
"187 487 OFFCURVE",
"44 343 OFFCURVE",
"44 239 QCURVE SMOOTH",
"44 116 OFFCURVE",
"205 -20 OFFCURVE",
"353 -20 QCURVE SMOOTH",
"560 -20 OFFCURVE",
"727 132 QCURVE",
"695 180 LINE",
"558 84 OFFCURVE",
"405 84 QCURVE SMOOTH",
"318 84 OFFCURVE",
"220 170 OFFCURVE",
"220 254 QCURVE SMOOTH",
"220 333 OFFCURVE",
"304 445 OFFCURVE",
"385 469 QCURVE",
"548 456 OFFCURVE",
"582 456 QCURVE SMOOTH",
"634 456 LINE",
"650 559 LINE",
"599 559 LINE SMOOTH",
"542 559 OFFCURVE",
"422 541 QCURVE",
"387 554 OFFCURVE",
"332 642 OFFCURVE",
"332 695 QCURVE SMOOTH",
"332 785 OFFCURVE",
"448 887 OFFCURVE",
"544 887 QCURVE SMOOTH",
"589 887 OFFCURVE",
"672 863 OFFCURVE",
"692 848 QCURVE",
"721 733 LINE",
"769 733 LINE",
"805 929 LINE",
"759 945 OFFCURVE",
"614 965 OFFCURVE",
"550 965 QCURVE SMOOTH"
);
}
);
width = 807;
}
);
note = epsilon;
unicode = 03B5;
},
{
glyphname = sigma;
lastChange = "2019-12-19 21:32:18 +0000";
layers = (
{
layerId = "10338F47-40ED-49C2-8613-307B859987A6";
paths = (
{
closed = 1;
nodes = (
"342 59 OFFCURVE",
"236 221 OFFCURVE",
"236 368 QCURVE SMOOTH",
"236 600 OFFCURVE",
"474 856 OFFCURVE",
"684 856 QCURVE",
"735 735 OFFCURVE",
"735 567 QCURVE SMOOTH",
"735 434 OFFCURVE",
"657 190 OFFCURVE",
"523 59 OFFCURVE",
"438 59 QCURVE SMOOTH"
);
},
{
closed = 1;
nodes = (
"1023 856 LINE",
"1075 1056 LINE",
"1018 1056 LINE",
"942 940 LINE",
"632 940 LINE SMOOTH",
"361 940 OFFCURVE",
"61 642 OFFCURVE",
"61 377 QCURVE SMOOTH",
"61 195 OFFCURVE",
"261 -20 OFFCURVE",
"432 -20 QCURVE SMOOTH",
"568 -20 OFFCURVE",
"790 119 OFFCURVE",
"912 369 OFFCURVE",
"912 523 QCURVE SMOOTH",
"912 704 OFFCURVE",
"801 849 QCURVE",
"802 856 LINE"
);
}
);
width = 1010;
}
);
note = sigma;
unicode = 03C3;
},
{
glyphname = tau;
lastChange = "2019-12-19 21:32:18 +0000";
layers = (
{
layerId = "10338F47-40ED-49C2-8613-307B859987A6";
paths = (
{
closed = 1;
nodes = (
"394 212 OFFCURVE",
"412 307 QCURVE SMOOTH",
"509 856 LINE",
"780 856 LINE",
"795 940 LINE",
"103 940 LINE",
"45 728 LINE",
"102 728 LINE",
"172 856 LINE",
"343 856 LINE",
"239 270 OFFCURVE",
"228 191 OFFCURVE",
"228 162 QCURVE SMOOTH",
"228 76 OFFCURVE",
"309 -20 OFFCURVE",
"381 -20 QCURVE SMOOTH",
"452 -20 OFFCURVE",
"560 34 OFFCURVE",
"608 74 QCURVE",
"583 120 LINE",
"509 84 OFFCURVE",
"460 84 QCURVE SMOOTH",
"394 84 OFFCURVE",
"394 174 QCURVE SMOOTH"
);
}
);
width = 733;
}
);
note = tau;
unicode = 03C4;
},
{
glyphname = phi;
lastChange = "2019-12-19 21:32:18 +0000";
layers = (
{
layerId = "10338F47-40ED-49C2-8613-307B859987A6";
paths = (
{
closed = 1;
nodes = (
"702 966 OFFCURVE",
"575 823 OFFCURVE",
"548 670 QCURVE SMOOTH",
"440 58 LINE",
"241 95 OFFCURVE",
"241 351 QCURVE SMOOTH",
"241 483 OFFCURVE",
"307 718 OFFCURVE",
"421 862 OFFCURVE",
"502 891 QCURVE",
"484 954 LINE",
"360 937 OFFCURVE",
"167 784 OFFCURVE",
"61 534 OFFCURVE",
"61 375 QCURVE SMOOTH",
"61 195 OFFCURVE",
"252 -2 OFFCURVE",
"427 -16 QCURVE",
"353 -436 LINE",
"459 -436 LINE",
"533 -17 LINE",
"803 0 OFFCURVE",
"1077 328 OFFCURVE",
"1077 630 QCURVE SMOOTH",
"1077 791 OFFCURVE",
"939 966 OFFCURVE",
"809 966 QCURVE SMOOTH"
);
},
{
closed = 1;
nodes = (
"843 885 OFFCURVE",
"900 778 OFFCURVE",
"900 666 QCURVE SMOOTH",
"900 390 OFFCURVE",
"713 71 OFFCURVE",
"546 60 QCURVE",
"654 670 LINE SMOOTH",
"673 781 OFFCURVE",
"741 885 OFFCURVE",
"796 885 QCURVE SMOOTH"
);
}
);
width = 1133;
}
);
note = phi;
unicode = 03C6;
},
{
glyphname = uni207F;
lastChange = "2019-12-19 21:32:18 +0000";
layers = (
{
layerId = "10338F47-40ED-49C2-8613-307B859987A6";
paths = (
{
closed = 1;
nodes = (
"480 952 OFFCURVE",
"467 884 QCURVE SMOOTH",
"406 535 LINE",
"631 535 LINE",
"639 580 LINE",
"560 594 LINE",
"619 931 OFFCURVE",
"625 978 OFFCURVE",
"625 994 QCURVE SMOOTH",
"625 1114 OFFCURVE",
"504 1114 QCURVE SMOOTH",
"397 1114 OFFCURVE",
"299 984 QCURVE",
"315 1100 LINE",
"104 1100 LINE",
"97 1055 LINE",
"167 1040 LINE",
"78 535 LINE",
"222 535 LINE",
"288 911 LINE",
"365 1025 OFFCURVE",
"438 1025 QCURVE SMOOTH",
"480 1025 OFFCURVE",
"480 984 QCURVE SMOOTH"
);
}
);
width = 645;
}
);
note = uni207F;
unicode = 207F;
},
{
glyphname = peseta;
lastChange = "2019-12-19 21:32:18 +0000";
layers = (
{
layerId = "10338F47-40ED-49C2-8613-307B859987A6";
paths = (
{
closed = 1;
nodes = (
"425 616 LINE",
"537 1251 LINE",
"563 1251 LINE SMOOTH",
"709 1251 OFFCURVE",
"854 1116 OFFCURVE",
"854 973 QCURVE SMOOTH",
"854 616 OFFCURVE",
"469 616 QCURVE SMOOTH"
);
},
{
closed = 1;
nodes = (
"1125 -20 OFFCURVE",
"1252 16 OFFCURVE",
"1287 39 QCURVE",
"1270 90 LINE",
"1217 74 OFFCURVE",
"1174 74 QCURVE SMOOTH",
"1108 74 OFFCURVE",
"1108 161 QCURVE",
"1112 205 LINE",
"1185 616 LINE",
"1350 616 LINE",
"1363 690 LINE",
"1198 690 LINE",
"1230 873 LINE",
"1167 873 LINE",
"1032 690 LINE",
"932 651 LINE",
"926 616 LINE",
"1019 616 LINE",
"945 197 LINE SMOOTH",
"939 159 OFFCURVE",
"939 128 QCURVE SMOOTH",
"939 -20 OFFCURVE",
"1074 -20 QCURVE SMOOTH"
);
},
{
closed = 1;
nodes = (
"1708 -20 OFFCURVE",
"1863 107 OFFCURVE",
"1863 224 QCURVE SMOOTH",
"1863 286 OFFCURVE",
"1782 376 OFFCURVE",
"1700 411 QCURVE SMOOTH",
"1600 454 OFFCURVE",
"1537 503 OFFCURVE",
"1537 535 QCURVE SMOOTH",
"1537 582 OFFCURVE",
"1607 640 OFFCURVE",
"1663 640 QCURVE SMOOTH",
"1706 640 OFFCURVE",
"1775 615 OFFCURVE",
"1791 593 QCURVE",
"1813 484 LINE",
"1860 484 LINE",
"1895 679 LINE",
"1768 710 OFFCURVE",
"1676 710 QCURVE SMOOTH",
"1539 710 OFFCURVE",
"1381 596 OFFCURVE",
"1381 490 QCURVE SMOOTH",
"1381 428 OFFCURVE",
"1462 342 OFFCURVE",
"1541 313 QCURVE SMOOTH",
"1624 282 OFFCURVE",
"1700 220 OFFCURVE",
"1700 177 QCURVE SMOOTH",
"1700 116 OFFCURVE",
"1625 49 OFFCURVE",
"1552 49 QCURVE SMOOTH",
"1499 49 OFFCURVE",
"1421 89 OFFCURVE",
"1401 117 QCURVE",
"1381 227 LINE",
"1336 227 LINE",
"1299 20 LINE",
"1332 6 OFFCURVE",
"1499 -20 OFFCURVE",
"1561 -20 QCURVE SMOOTH"
);
},
{
closed = 1;
nodes = (
"488 526 LINE SMOOTH",
"760 526 OFFCURVE",
"1053 762 OFFCURVE",
"1053 986 QCURVE SMOOTH",
"1053 1162 OFFCURVE",
"819 1341 OFFCURVE",
"603 1341 QCURVE SMOOTH",
"217 1341 LINE",
"208 1288 LINE",
"355 1262 LINE",
"147 80 LINE",
"-16 53 LINE",
"-25 0 LINE",
"489 0 LINE",
"498 53 LINE",
"330 80 LINE",
"409 526 LINE"
);
}
);
width = 2027;
}
);
note = peseta;
unicode = 20A7;
},
{
glyphname = arrowleft;
lastChange = "2019-12-19 21:32:18 +0000";
layers = (
{
layerId = "10338F47-40ED-49C2-8613-307B859987A6";
paths = (
{
closed = 1;
nodes = (
"1630 427 LINE",
"1630 513 LINE",
"641 513 LINE",
"698 580 OFFCURVE",
"760 710 QCURVE",
"688 710 LINE",
"561 561 OFFCURVE",
"418 488 QCURVE",
"418 452 LINE",
"561 379 OFFCURVE",
"688 230 QCURVE",
"760 230 LINE",
"698 360 OFFCURVE",
"641 427 QCURVE"
);
}
);
width = 2048;
}
);
note = arrowleft;
unicode = 2190;
},
{
glyphname = arrowup;
lastChange = "2019-12-19 21:32:18 +0000";
layers = (
{
layerId = "10338F47-40ED-49C2-8613-307B859987A6";
paths = (
{
closed = 1;
nodes = (
"469 -61 LINE",
"555 -61 LINE",
"555 928 LINE",
"622 871 OFFCURVE",
"752 809 QCURVE",
"752 881 LINE",
"603 1008 OFFCURVE",
"530 1151 QCURVE",
"494 1151 LINE",
"421 1008 OFFCURVE",
"272 881 QCURVE",
"272 809 LINE",
"402 871 OFFCURVE",
"469 928 QCURVE"
);
}
);
width = 1024;
}
);
note = arrowup;
unicode = 2191;
},
{
glyphname = arrowright;
lastChange = "2019-12-19 21:32:18 +0000";
layers = (
{
layerId = "10338F47-40ED-49C2-8613-307B859987A6";
paths = (
{
closed = 1;
nodes = (
"418 513 LINE",
"418 427 LINE",
"1407 427 LINE",
"1350 360 OFFCURVE",
"1288 230 QCURVE",
"1360 230 LINE",
"1487 379 OFFCURVE",
"1630 452 QCURVE",
"1630 488 LINE",
"1487 561 OFFCURVE",
"1360 710 QCURVE",
"1288 710 LINE",
"1350 580 OFFCURVE",
"1407 513 QCURVE"
);
}
);
width = 2048;
}
);
note = arrowright;
unicode = 2192;
},
{
glyphname = arrowdown;
lastChange = "2019-12-19 21:32:18 +0000";
layers = (
{
layerId = "10338F47-40ED-49C2-8613-307B859987A6";
paths = (
{
closed = 1;
nodes = (
"555 1151 LINE",
"469 1151 LINE",
"469 162 LINE",
"402 219 OFFCURVE",
"272 281 QCURVE",
"272 209 LINE",
"421 82 OFFCURVE",
"494 -61 QCURVE",
"530 -61 LINE",
"603 82 OFFCURVE",
"752 209 QCURVE",
"752 281 LINE",
"622 219 OFFCURVE",
"555 162 QCURVE"
);
}
);
width = 1024;
}
);
note = arrowdown;
unicode = 2193;
},
{
glyphname = arrowboth;
lastChange = "2019-12-19 21:32:18 +0000";
layers = (
{
layerId = "10338F47-40ED-49C2-8613-307B859987A6";
paths = (
{
closed = 1;
nodes = (
"1407 427 LINE",
"1350 360 OFFCURVE",
"1288 230 QCURVE",
"1360 230 LINE",
"1487 379 OFFCURVE",
"1630 452 QCURVE",
"1630 488 LINE",
"1487 561 OFFCURVE",
"1360 710 QCURVE",
"1288 710 LINE",
"1350 580 OFFCURVE",
"1407 513 QCURVE",
"641 513 LINE",
"698 580 OFFCURVE",
"760 710 QCURVE",
"688 710 LINE",
"561 561 OFFCURVE",
"418 488 QCURVE",
"418 452 LINE",
"561 379 OFFCURVE",
"688 230 QCURVE",
"760 230 LINE",
"698 360 OFFCURVE",
"641 427 QCURVE"
);
}
);
width = 2048;
}
);
note = arrowboth;
unicode = 2194;
},
{
glyphname = arrowupdn;
lastChange = "2019-12-19 21:32:18 +0000";
layers = (
{
layerId = "10338F47-40ED-49C2-8613-307B859987A6";
paths = (
{
closed = 1;
nodes = (
"469 162 LINE",
"402 219 OFFCURVE",
"272 281 QCURVE",
"272 209 LINE",
"421 82 OFFCURVE",
"494 -61 QCURVE",
"530 -61 LINE",
"603 82 OFFCURVE",
"752 209 QCURVE",
"752 281 LINE",
"622 219 OFFCURVE",
"555 162 QCURVE",
"555 928 LINE",
"622 871 OFFCURVE",
"752 809 QCURVE",
"752 881 LINE",
"603 1008 OFFCURVE",
"530 1151 QCURVE",
"494 1151 LINE",
"421 1008 OFFCURVE",
"272 881 QCURVE",
"272 809 LINE",
"402 871 OFFCURVE",
"469 928 QCURVE"
);
}
);
width = 1024;
}
);
note = arrowupdn;
unicode = 2195;
},
{
glyphname = arrowupdnbse;
lastChange = "2019-12-19 21:32:18 +0000";
layers = (
{
layerId = "10338F47-40ED-49C2-8613-307B859987A6";
paths = (
{
closed = 1;
nodes = (
"272 -184 LINE",
"752 -184 LINE",
"752 -104 LINE",
"272 -104 LINE"
);
},
{
closed = 1;
nodes = (
"469 162 LINE",
"402 219 OFFCURVE",
"272 281 QCURVE",
"272 209 LINE",
"421 82 OFFCURVE",
"494 -61 QCURVE",
"530 -61 LINE",
"603 82 OFFCURVE",
"752 209 QCURVE",
"752 281 LINE",
"622 219 OFFCURVE",
"555 162 QCURVE",
"555 928 LINE",
"622 871 OFFCURVE",
"752 809 QCURVE",
"752 881 LINE",
"603 1008 OFFCURVE",
"530 1151 QCURVE",
"494 1151 LINE",
"421 1008 OFFCURVE",
"272 881 QCURVE",
"272 809 LINE",
"402 871 OFFCURVE",
"469 928 QCURVE"
);
}
);
width = 1024;
}
);
note = arrowupdnbse;
unicode = 21A8;
},
{
glyphname = orthogonal;
lastChange = "2019-12-19 21:32:18 +0000";
layers = (
{
layerId = "10338F47-40ED-49C2-8613-307B859987A6";
paths = (
{
closed = 1;
nodes = (
"408 0 LINE",
"1632 0 LINE",
"1632 94 LINE",
"502 94 LINE",
"502 1223 LINE",
"408 1223 LINE"
);
}
);
width = 2005;
}
);
note = orthogonal;
unicode = 221F;
},
{
glyphname = intersection;
lastChange = "2019-12-19 21:32:18 +0000";
layers = (
{
layerId = "10338F47-40ED-49C2-8613-307B859987A6";
paths = (
{
closed = 1;
nodes = (
"385 -2 LINE",
"385 510 LINE SMOOTH",
"385 704 OFFCURVE",
"577 930 OFFCURVE",
"739 930 QCURVE SMOOTH",
"899 930 OFFCURVE",
"1095 702 OFFCURVE",
"1095 512 QCURVE SMOOTH",
"1095 -2 LINE",
"1198 -2 LINE",
"1198 510 LINE SMOOTH",
"1198 658 OFFCURVE",
"1079 900 OFFCURVE",
"868 1032 OFFCURVE",
"737 1032 QCURVE SMOOTH",
"607 1032 OFFCURVE",
"398 899 OFFCURVE",
"282 660 OFFCURVE",
"282 510 QCURVE SMOOTH",
"282 -2 LINE"
);
}
);
width = 1479;
}
);
note = intersection;
unicode = 2229;
},
{
glyphname = equivalence;
lastChange = "2019-12-19 21:32:18 +0000";
layers = (
{
layerId = "10338F47-40ED-49C2-8613-307B859987A6";
paths = (
{
closed = 1;
nodes = (
"233 436 LINE",
"233 334 LINE",
"1186 334 LINE",
"1186 436 LINE"
);
},
{
closed = 1;
nodes = (
"233 1026 LINE",
"233 924 LINE",
"1186 924 LINE",
"1186 1026 LINE"
);
},
{
closed = 1;
nodes = (
"233 731 LINE",
"233 629 LINE",
"1186 629 LINE",
"1186 731 LINE"
);
}
);
width = 1382;
}
);
note = equivalence;
unicode = 2261;
},
{
glyphname = house;
lastChange = "2019-12-19 21:32:18 +0000";
layers = (
{
layerId = "10338F47-40ED-49C2-8613-307B859987A6";
paths = (
{
closed = 1;
nodes = (
"1076 0 LINE",
"1076 635 LINE",
"615 1153 LINE",
"154 635 LINE",
"154 0 LINE"
);
},
{
closed = 1;
nodes = (
"234 600 LINE",
"615 1026 LINE",
"996 600 LINE",
"996 82 LINE",
"234 82 LINE"
);
}
);
width = 1229;
}
);
note = house;
unicode = 2302;
},
{
glyphname = revlogicalnot;
lastChange = "2019-12-19 21:32:18 +0000";
layers = (
{
layerId = "10338F47-40ED-49C2-8613-307B859987A6";
paths = (
{
closed = 1;
nodes = (
"1186 629 LINE",
"1186 731 LINE",
"233 731 LINE",
"233 203 LINE",
"336 203 LINE",
"336 629 LINE"
);
}
);
width = 1382;
}
);
note = revlogicalnot;
unicode = 2310;
},
{
glyphname = integraltp;
lastChange = "2019-12-19 21:32:18 +0000";
layers = (
{
layerId = "10338F47-40ED-49C2-8613-307B859987A6";
paths = (
{
closed = 1;
nodes = (
"693 1423 LINE SMOOTH",
"693 1528 OFFCURVE",
"699 1563 QCURVE SMOOTH",
"708 1602 OFFCURVE",
"744 1602 QCURVE SMOOTH",
"760 1602 OFFCURVE",
"793 1563 QCURVE SMOOTH",
"831 1521 OFFCURVE",
"847 1513 QCURVE",
"860 1503 OFFCURVE",
"890 1503 QCURVE SMOOTH",
"927 1503 OFFCURVE",
"978 1555 OFFCURVE",
"978 1595 QCURVE SMOOTH",
"978 1643 OFFCURVE",
"903 1706 OFFCURVE",
"840 1706 QCURVE SMOOTH",
"714 1706 OFFCURVE",
"546 1460 OFFCURVE",
"546 1264 QCURVE SMOOTH",
"546 -614 LINE",
"693 -614 LINE"
);
}
);
width = 1237;
}
);
note = integraltp;
unicode = 2320;
},
{
glyphname = integralbt;
lastChange = "2019-12-19 21:32:18 +0000";
layers = (
{
layerId = "10338F47-40ED-49C2-8613-307B859987A6";
paths = (
{
closed = 1;
nodes = (
"546 -334 LINE SMOOTH",
"546 -461 OFFCURVE",
"523 -512 OFFCURVE",
"494 -512 QCURVE SMOOTH",
"478 -512 OFFCURVE",
"447 -475 QCURVE SMOOTH",
"416 -434 OFFCURVE",
"406 -430 QCURVE",
"380 -414 OFFCURVE",
"347 -414 QCURVE SMOOTH",
"311 -414 OFFCURVE",
"261 -467 OFFCURVE",
"261 -506 QCURVE SMOOTH",
"261 -553 OFFCURVE",
"339 -614 OFFCURVE",
"398 -614 QCURVE SMOOTH",
"530 -614 OFFCURVE",
"693 -369 OFFCURVE",
"693 -174 QCURVE SMOOTH",
"693 1706 LINE",
"546 1706 LINE"
);
}
);
width = 1237;
}
);
note = integralbt;
unicode = 2321;
},
{
glyphname = uni2500;
lastChange = "2019-12-19 21:32:18 +0000";
layers = (
{
layerId = "10338F47-40ED-49C2-8613-307B859987A6";
paths = (
{
closed = 1;
nodes = (
"1461 549 LINE",
"1461 694 LINE",
"-10 694 LINE",
"-10 549 LINE"
);
}
);
width = 1451;
}
);
note = uni2500;
unicode = 2500;
},
{
glyphname = uni2502;
lastChange = "2019-12-19 21:32:18 +0000";
layers = (
{
layerId = "10338F47-40ED-49C2-8613-307B859987A6";
paths = (
{
closed = 1;
nodes = (
"448 -621 LINE",
"593 -621 LINE",
"593 1864 LINE",
"448 1864 LINE"
);
}
);
width = 1261;
}
);
note = uni2502;
unicode = 2502;
},
{
glyphname = uni250C;
lastChange = "2019-12-19 21:32:18 +0000";
layers = (
{
layerId = "10338F47-40ED-49C2-8613-307B859987A6";
paths = (
{
closed = 1;
nodes = (
"653 -621 LINE",
"798 -621 LINE",
"798 549 LINE",
"1461 549 LINE",
"1461 694 LINE",
"653 694 LINE"
);
}
);
width = 1451;
}
);
note = uni250C;
unicode = 250C;
},
{
glyphname = uni2510;
lastChange = "2019-12-19 21:32:18 +0000";
layers = (
{
layerId = "10338F47-40ED-49C2-8613-307B859987A6";
paths = (
{
closed = 1;
nodes = (
"653 549 LINE",
"653 -621 LINE",
"798 -621 LINE",
"798 694 LINE",
"-10 694 LINE",
"-10 549 LINE"
);
}
);
width = 1451;
}
);
note = uni2510;
unicode = 2510;
},
{
glyphname = uni2514;
lastChange = "2019-12-19 21:32:18 +0000";
layers = (
{
layerId = "10338F47-40ED-49C2-8613-307B859987A6";
paths = (
{
closed = 1;
nodes = (
"653 549 LINE",
"1461 549 LINE",
"1461 694 LINE",
"798 694 LINE",
"798 1864 LINE",
"653 1864 LINE"
);
}
);
width = 1451;
}
);
note = uni2514;
unicode = 2514;
},
{
glyphname = uni2518;
lastChange = "2019-12-19 21:32:18 +0000";
layers = (
{
layerId = "10338F47-40ED-49C2-8613-307B859987A6";
paths = (
{
closed = 1;
nodes = (
"798 549 LINE",
"798 1864 LINE",
"653 1864 LINE",
"653 694 LINE",
"-10 694 LINE",
"-10 549 LINE"
);
}
);
width = 1451;
}
);
note = uni2518;
unicode = 2518;
},
{
glyphname = uni251C;
lastChange = "2019-12-19 21:32:18 +0000";
layers = (
{
layerId = "10338F47-40ED-49C2-8613-307B859987A6";
paths = (
{
closed = 1;
nodes = (
"653 -621 LINE",
"798 -621 LINE",
"798 549 LINE",
"1461 549 LINE",
"1461 694 LINE",
"798 694 LINE",
"798 1864 LINE",
"653 1864 LINE"
);
}
);
width = 1451;
}
);
note = uni251C;
unicode = 251C;
},
{
glyphname = uni2524;
lastChange = "2019-12-19 21:32:18 +0000";
layers = (
{
layerId = "10338F47-40ED-49C2-8613-307B859987A6";
paths = (
{
closed = 1;
nodes = (
"653 549 LINE",
"653 -621 LINE",
"798 -621 LINE",
"798 1864 LINE",
"653 1864 LINE",
"653 694 LINE",
"-10 694 LINE",
"-10 549 LINE"
);
}
);
width = 1451;
}
);
note = uni2524;
unicode = 2524;
},
{
glyphname = uni252C;
lastChange = "2019-12-19 21:32:18 +0000";
layers = (
{
layerId = "10338F47-40ED-49C2-8613-307B859987A6";
paths = (
{
closed = 1;
nodes = (
"653 549 LINE",
"653 -621 LINE",
"798 -621 LINE",
"798 549 LINE",
"1461 549 LINE",
"1461 694 LINE",
"-10 694 LINE",
"-10 549 LINE"
);
}
);
width = 1451;
}
);
note = uni252C;
unicode = 252C;
},
{
glyphname = uni2534;
lastChange = "2019-12-19 21:32:18 +0000";
layers = (
{
layerId = "10338F47-40ED-49C2-8613-307B859987A6";
paths = (
{
closed = 1;
nodes = (
"1461 549 LINE",
"1461 694 LINE",
"798 694 LINE",
"798 1864 LINE",
"653 1864 LINE",
"653 694 LINE",
"-10 694 LINE",
"-10 549 LINE"
);
}
);
width = 1451;
}
);
note = uni2534;
unicode = 2534;
},
{
glyphname = uni253C;
lastChange = "2019-12-19 21:32:18 +0000";
layers = (
{
layerId = "10338F47-40ED-49C2-8613-307B859987A6";
paths = (
{
closed = 1;
nodes = (
"653 549 LINE",
"653 -621 LINE",
"798 -621 LINE",
"798 549 LINE",
"1461 549 LINE",
"1461 694 LINE",
"798 694 LINE",
"798 1864 LINE",
"653 1864 LINE",
"653 694 LINE",
"-10 694 LINE",
"-10 549 LINE"
);
}
);
width = 1451;
}
);
note = uni253C;
unicode = 253C;
},
{
glyphname = uni2550;
lastChange = "2019-12-19 21:32:18 +0000";
layers = (
{
layerId = "10338F47-40ED-49C2-8613-307B859987A6";
paths = (
{
closed = 1;
nodes = (
"1461 729 LINE",
"1461 874 LINE",
"-10 874 LINE",
"-10 729 LINE"
);
},
{
closed = 1;
nodes = (
"1461 369 LINE",
"1461 514 LINE",
"-10 514 LINE",
"-10 369 LINE"
);
}
);
width = 1451;
}
);
note = uni2550;
unicode = 2550;
},
{
glyphname = uni2551;
lastChange = "2019-12-19 21:32:18 +0000";
layers = (
{
layerId = "10338F47-40ED-49C2-8613-307B859987A6";
paths = (
{
closed = 1;
nodes = (
"473 -621 LINE",
"618 -621 LINE",
"618 1864 LINE",
"473 1864 LINE"
);
},
{
closed = 1;
nodes = (
"833 -621 LINE",
"978 -621 LINE",
"978 1864 LINE",
"833 1864 LINE"
);
}
);
width = 1451;
}
);
note = uni2551;
unicode = 2551;
},
{
glyphname = uni2552;
lastChange = "2019-12-19 21:32:18 +0000";
layers = (
{
layerId = "10338F47-40ED-49C2-8613-307B859987A6";
paths = (
{
closed = 1;
nodes = (
"653 -621 LINE",
"798 -621 LINE",
"798 369 LINE",
"1461 369 LINE",
"1461 514 LINE",
"798 514 LINE",
"798 729 LINE",
"1461 729 LINE",
"1461 874 LINE",
"653 874 LINE"
);
}
);
width = 1451;
}
);
note = uni2552;
unicode = 2552;
},
{
glyphname = uni2553;
lastChange = "2019-12-19 21:32:18 +0000";
layers = (
{
layerId = "10338F47-40ED-49C2-8613-307B859987A6";
paths = (
{
closed = 1;
nodes = (
"473 694 LINE",
"473 -621 LINE",
"618 -621 LINE",
"618 549 LINE",
"833 549 LINE",
"833 -621 LINE",
"978 -621 LINE",
"978 549 LINE",
"1461 549 LINE",
"1461 694 LINE"
);
}
);
width = 1451;
}
);
note = uni2553;
unicode = 2553;
},
{
glyphname = uni2554;
lastChange = "2019-12-19 21:32:18 +0000";
layers = (
{
layerId = "10338F47-40ED-49C2-8613-307B859987A6";
paths = (
{
closed = 1;
nodes = (
"473 -621 LINE",
"618 -621 LINE",
"618 729 LINE",
"1461 729 LINE",
"1461 874 LINE",
"473 874 LINE"
);
},
{
closed = 1;
nodes = (
"833 -621 LINE",
"978 -621 LINE",
"978 369 LINE",
"1461 369 LINE",
"1461 514 LINE",
"833 514 LINE"
);
}
);
width = 1451;
}
);
note = uni2554;
unicode = 2554;
},
{
glyphname = uni2555;
lastChange = "2019-12-19 21:32:18 +0000";
layers = (
{
layerId = "10338F47-40ED-49C2-8613-307B859987A6";
paths = (
{
closed = 1;
nodes = (
"653 369 LINE",
"653 -621 LINE",
"798 -621 LINE",
"798 874 LINE",
"-10 874 LINE",
"-10 729 LINE",
"653 729 LINE",
"653 514 LINE",
"-10 514 LINE",
"-10 369 LINE"
);
}
);
width = 1451;
}
);
note = uni2555;
unicode = 2555;
},
{
glyphname = uni2556;
lastChange = "2019-12-19 21:32:18 +0000";
layers = (
{
layerId = "10338F47-40ED-49C2-8613-307B859987A6";
paths = (
{
closed = 1;
nodes = (
"473 549 LINE",
"473 -621 LINE",
"618 -621 LINE",
"618 549 LINE",
"833 549 LINE",
"833 -621 LINE",
"978 -621 LINE",
"978 694 LINE",
"-10 694 LINE",
"-10 549 LINE"
);
}
);
width = 1451;
}
);
note = uni2556;
unicode = 2556;
},
{
glyphname = uni2557;
lastChange = "2019-12-19 21:32:18 +0000";
layers = (
{
layerId = "10338F47-40ED-49C2-8613-307B859987A6";
paths = (
{
closed = 1;
nodes = (
"-10 874 LINE",
"-10 729 LINE",
"833 729 LINE",
"833 -621 LINE",
"978 -621 LINE",
"978 874 LINE"
);
},
{
closed = 1;
nodes = (
"618 514 LINE",
"-10 514 LINE",
"-10 369 LINE",
"473 369 LINE",
"473 -621 LINE",
"618 -621 LINE"
);
}
);
width = 1451;
}
);
note = uni2557;
unicode = 2557;
},
{
glyphname = uni2558;
lastChange = "2019-12-19 21:32:18 +0000";
layers = (
{
layerId = "10338F47-40ED-49C2-8613-307B859987A6";
paths = (
{
closed = 1;
nodes = (
"653 369 LINE",
"1461 369 LINE",
"1461 514 LINE",
"798 514 LINE",
"798 729 LINE",
"1461 729 LINE",
"1461 874 LINE",
"798 874 LINE",
"798 1864 LINE",
"653 1864 LINE"
);
}
);
width = 1451;
}
);
note = uni2558;
unicode = 2558;
},
{
glyphname = uni2559;
lastChange = "2019-12-19 21:32:18 +0000";
layers = (
{
layerId = "10338F47-40ED-49C2-8613-307B859987A6";
paths = (
{
closed = 1;
nodes = (
"833 694 LINE",
"618 694 LINE",
"618 1864 LINE",
"473 1864 LINE",
"473 549 LINE",
"1461 549 LINE",
"1461 694 LINE",
"978 694 LINE",
"978 1864 LINE",
"833 1864 LINE"
);
}
);
width = 1451;
}
);
note = uni2559;
unicode = 2559;
},
{
glyphname = uni255A;
lastChange = "2019-12-19 21:32:18 +0000";
layers = (
{
layerId = "10338F47-40ED-49C2-8613-307B859987A6";
paths = (
{
closed = 1;
nodes = (
"473 369 LINE",
"1461 369 LINE",
"1461 514 LINE",
"618 514 LINE",
"618 1864 LINE",
"473 1864 LINE"
);
},
{
closed = 1;
nodes = (
"833 729 LINE",
"1461 729 LINE",
"1461 874 LINE",
"978 874 LINE",
"978 1864 LINE",
"833 1864 LINE"
);
}
);
width = 1451;
}
);
note = uni255A;
unicode = 255A;
},
{
glyphname = uni255B;
lastChange = "2019-12-19 21:32:18 +0000";
layers = (
{
layerId = "10338F47-40ED-49C2-8613-307B859987A6";
paths = (
{
closed = 1;
nodes = (
"798 369 LINE",
"798 1864 LINE",
"653 1864 LINE",
"653 874 LINE",
"-10 874 LINE",
"-10 729 LINE",
"653 729 LINE",
"653 514 LINE",
"-10 514 LINE",
"-10 369 LINE"
);
}
);
width = 1451;
}
);
note = uni255B;
unicode = 255B;
},
{
glyphname = uni255C;
lastChange = "2019-12-19 21:32:18 +0000";
layers = (
{
layerId = "10338F47-40ED-49C2-8613-307B859987A6";
paths = (
{
closed = 1;
nodes = (
"978 1864 LINE",
"833 1864 LINE",
"833 694 LINE",
"618 694 LINE",
"618 1864 LINE",
"473 1864 LINE",
"473 694 LINE",
"-10 694 LINE",
"-10 549 LINE",
"978 549 LINE"
);
}
);
width = 1451;
}
);
note = uni255C;
unicode = 255C;
},
{
glyphname = uni255D;
lastChange = "2019-12-19 21:32:18 +0000";
layers = (
{
layerId = "10338F47-40ED-49C2-8613-307B859987A6";
paths = (
{
closed = 1;
nodes = (
"978 1864 LINE",
"833 1864 LINE",
"833 514 LINE",
"-10 514 LINE",
"-10 369 LINE",
"978 369 LINE"
);
},
{
closed = 1;
nodes = (
"473 874 LINE",
"-10 874 LINE",
"-10 729 LINE",
"618 729 LINE",
"618 1864 LINE",
"473 1864 LINE"
);
}
);
width = 1451;
}
);
note = uni255D;
unicode = 255D;
},
{
glyphname = uni255E;
lastChange = "2019-12-19 21:32:18 +0000";
layers = (
{
layerId = "10338F47-40ED-49C2-8613-307B859987A6";
paths = (
{
closed = 1;
nodes = (
"653 -621 LINE",
"798 -621 LINE",
"798 369 LINE",
"1461 369 LINE",
"1461 514 LINE",
"798 514 LINE",
"798 729 LINE",
"1461 729 LINE",
"1461 874 LINE",
"798 874 LINE",
"798 1864 LINE",
"653 1864 LINE"
);
}
);
width = 1451;
}
);
note = uni255E;
unicode = 255E;
},
{
glyphname = uni255F;
lastChange = "2019-12-19 21:32:18 +0000";
layers = (
{
layerId = "10338F47-40ED-49C2-8613-307B859987A6";
paths = (
{
closed = 1;
nodes = (
"833 -621 LINE",
"978 -621 LINE",
"978 549 LINE",
"1461 549 LINE",
"1461 694 LINE",
"978 694 LINE",
"978 1864 LINE",
"833 1864 LINE"
);
},
{
closed = 1;
nodes = (
"473 -621 LINE",
"618 -621 LINE",
"618 1864 LINE",
"473 1864 LINE"
);
}
);
width = 1451;
}
);
note = uni255F;
unicode = 255F;
},
{
glyphname = uni2560;
lastChange = "2019-12-19 21:32:18 +0000";
layers = (
{
layerId = "10338F47-40ED-49C2-8613-307B859987A6";
paths = (
{
closed = 1;
nodes = (
"618 1864 LINE",
"473 1864 LINE",
"473 -621 LINE",
"618 -621 LINE"
);
},
{
closed = 1;
nodes = (
"833 -621 LINE",
"978 -621 LINE",
"978 369 LINE",
"1461 369 LINE",
"1461 514 LINE",
"833 514 LINE"
);
},
{
closed = 1;
nodes = (
"833 729 LINE",
"1461 729 LINE",
"1461 874 LINE",
"978 874 LINE",
"978 1864 LINE",
"833 1864 LINE"
);
}
);
width = 1451;
}
);
note = uni2560;
unicode = 2560;
},
{
glyphname = uni2561;
lastChange = "2019-12-19 21:32:18 +0000";
layers = (
{
layerId = "10338F47-40ED-49C2-8613-307B859987A6";
paths = (
{
closed = 1;
nodes = (
"653 369 LINE",
"653 -621 LINE",
"798 -621 LINE",
"798 1864 LINE",
"653 1864 LINE",
"653 874 LINE",
"-10 874 LINE",
"-10 729 LINE",
"653 729 LINE",
"653 514 LINE",
"-10 514 LINE",
"-10 369 LINE"
);
}
);
width = 1451;
}
);
note = uni2561;
unicode = 2561;
},
{
glyphname = uni2562;
lastChange = "2019-12-19 21:32:18 +0000";
layers = (
{
layerId = "10338F47-40ED-49C2-8613-307B859987A6";
paths = (
{
closed = 1;
nodes = (
"473 549 LINE",
"473 -621 LINE",
"618 -621 LINE",
"618 1864 LINE",
"473 1864 LINE",
"473 694 LINE",
"-10 694 LINE",
"-10 549 LINE"
);
},
{
closed = 1;
nodes = (
"833 -621 LINE",
"978 -621 LINE",
"978 1864 LINE",
"833 1864 LINE"
);
}
);
width = 1451;
}
);
note = uni2562;
unicode = 2562;
},
{
glyphname = uni2563;
lastChange = "2019-12-19 21:32:18 +0000";
layers = (
{
layerId = "10338F47-40ED-49C2-8613-307B859987A6";
paths = (
{
closed = 1;
nodes = (
"833 -621 LINE",
"978 -621 LINE",
"978 1864 LINE",
"833 1864 LINE"
);
},
{
closed = 1;
nodes = (
"473 874 LINE",
"-10 874 LINE",
"-10 729 LINE",
"618 729 LINE",
"618 1864 LINE",
"473 1864 LINE"
);
},
{
closed = 1;
nodes = (
"618 514 LINE",
"-10 514 LINE",
"-10 369 LINE",
"473 369 LINE",
"473 -621 LINE",
"618 -621 LINE"
);
}
);
width = 1451;
}
);
note = uni2563;
unicode = 2563;
},
{
glyphname = uni2564;
lastChange = "2019-12-19 21:32:18 +0000";
layers = (
{
layerId = "10338F47-40ED-49C2-8613-307B859987A6";
paths = (
{
closed = 1;
nodes = (
"653 369 LINE",
"653 -621 LINE",
"798 -621 LINE",
"798 369 LINE",
"1461 369 LINE",
"1461 514 LINE",
"-10 514 LINE",
"-10 369 LINE"
);
},
{
closed = 1;
nodes = (
"1461 729 LINE",
"1461 874 LINE",
"-10 874 LINE",
"-10 729 LINE"
);
}
);
width = 1451;
}
);
note = uni2564;
unicode = 2564;
},
{
glyphname = uni2565;
lastChange = "2019-12-19 21:32:18 +0000";
layers = (
{
layerId = "10338F47-40ED-49C2-8613-307B859987A6";
paths = (
{
closed = 1;
nodes = (
"473 549 LINE",
"473 -621 LINE",
"618 -621 LINE",
"618 549 LINE",
"833 549 LINE",
"833 -621 LINE",
"978 -621 LINE",
"978 549 LINE",
"1461 549 LINE",
"1461 694 LINE",
"-10 694 LINE",
"-10 549 LINE"
);
}
);
width = 1451;
}
);
note = uni2565;
unicode = 2565;
},
{
glyphname = uni2566;
lastChange = "2019-12-19 21:32:18 +0000";
layers = (
{
layerId = "10338F47-40ED-49C2-8613-307B859987A6";
paths = (
{
closed = 1;
nodes = (
"618 514 LINE",
"-10 514 LINE",
"-10 369 LINE",
"473 369 LINE",
"473 -621 LINE",
"618 -621 LINE"
);
},
{
closed = 1;
nodes = (
"833 -621 LINE",
"978 -621 LINE",
"978 369 LINE",
"1461 369 LINE",
"1461 514 LINE",
"833 514 LINE"
);
},
{
closed = 1;
nodes = (
"-10 874 LINE",
"-10 729 LINE",
"1461 729 LINE",
"1461 874 LINE"
);
}
);
width = 1451;
}
);
note = uni2566;
unicode = 2566;
},
{
glyphname = uni2567;
lastChange = "2019-12-19 21:32:18 +0000";
layers = (
{
layerId = "10338F47-40ED-49C2-8613-307B859987A6";
paths = (
{
closed = 1;
nodes = (
"1461 729 LINE",
"1461 874 LINE",
"798 874 LINE",
"798 1864 LINE",
"653 1864 LINE",
"653 874 LINE",
"-10 874 LINE",
"-10 729 LINE"
);
},
{
closed = 1;
nodes = (
"1461 369 LINE",
"1461 514 LINE",
"-10 514 LINE",
"-10 369 LINE"
);
}
);
width = 1451;
}
);
note = uni2567;
unicode = 2567;
},
{
glyphname = uni2568;
lastChange = "2019-12-19 21:32:18 +0000";
layers = (
{
layerId = "10338F47-40ED-49C2-8613-307B859987A6";
paths = (
{
closed = 1;
nodes = (
"1461 549 LINE",
"1461 694 LINE",
"978 694 LINE",
"978 1864 LINE",
"833 1864 LINE",
"833 694 LINE",
"618 694 LINE",
"618 1864 LINE",
"473 1864 LINE",
"473 694 LINE",
"-10 694 LINE",
"-10 549 LINE"
);
}
);
width = 1451;
}
);
note = uni2568;
unicode = 2568;
},
{
glyphname = uni2569;
lastChange = "2019-12-19 21:32:18 +0000";
layers = (
{
layerId = "10338F47-40ED-49C2-8613-307B859987A6";
paths = (
{
closed = 1;
nodes = (
"833 729 LINE",
"1461 729 LINE",
"1461 874 LINE",
"978 874 LINE",
"978 1864 LINE",
"833 1864 LINE"
);
},
{
closed = 1;
nodes = (
"473 874 LINE",
"-10 874 LINE",
"-10 729 LINE",
"618 729 LINE",
"618 1864 LINE",
"473 1864 LINE"
);
},
{
closed = 1;
nodes = (
"1461 369 LINE",
"1461 514 LINE",
"-10 514 LINE",
"-10 369 LINE"
);
}
);
width = 1451;
}
);
note = uni2569;
unicode = 2569;
},
{
glyphname = uni256A;
lastChange = "2019-12-19 21:32:18 +0000";
layers = (
{
layerId = "10338F47-40ED-49C2-8613-307B859987A6";
paths = (
{
closed = 1;
nodes = (
"653 369 LINE",
"653 -621 LINE",
"798 -621 LINE",
"798 369 LINE",
"1461 369 LINE",
"1461 514 LINE",
"798 514 LINE",
"798 729 LINE",
"1461 729 LINE",
"1461 874 LINE",
"798 874 LINE",
"798 1864 LINE",
"653 1864 LINE",
"653 874 LINE",
"-10 874 LINE",
"-10 729 LINE",
"653 729 LINE",
"653 514 LINE",
"-10 514 LINE",
"-10 369 LINE"
);
}
);
width = 1451;
}
);
note = uni256A;
unicode = 256A;
},
{
glyphname = uni256B;
lastChange = "2019-12-19 21:32:18 +0000";
layers = (
{
layerId = "10338F47-40ED-49C2-8613-307B859987A6";
paths = (
{
closed = 1;
nodes = (
"833 694 LINE",
"618 694 LINE",
"618 1864 LINE",
"473 1864 LINE",
"473 694 LINE",
"-10 694 LINE",
"-10 549 LINE",
"473 549 LINE",
"473 -621 LINE",
"618 -621 LINE",
"618 549 LINE",
"833 549 LINE",
"833 -621 LINE",
"978 -621 LINE",
"978 549 LINE",
"1461 549 LINE",
"1461 694 LINE",
"978 694 LINE",
"978 1864 LINE",
"833 1864 LINE"
);
}
);
width = 1451;
}
);
note = uni256B;
unicode = 256B;
},
{
glyphname = uni256C;
lastChange = "2019-12-19 21:32:18 +0000";
layers = (
{
layerId = "10338F47-40ED-49C2-8613-307B859987A6";
paths = (
{
closed = 1;
nodes = (
"833 729 LINE",
"1461 729 LINE",
"1461 874 LINE",
"978 874 LINE",
"978 1864 LINE",
"833 1864 LINE"
);
},
{
closed = 1;
nodes = (
"618 514 LINE",
"-10 514 LINE",
"-10 369 LINE",
"473 369 LINE",
"473 -621 LINE",
"618 -621 LINE"
);
},
{
closed = 1;
nodes = (
"833 -621 LINE",
"978 -621 LINE",
"978 369 LINE",
"1461 369 LINE",
"1461 514 LINE",
"833 514 LINE"
);
},
{
closed = 1;
nodes = (
"473 874 LINE",
"-10 874 LINE",
"-10 729 LINE",
"618 729 LINE",
"618 1864 LINE",
"473 1864 LINE"
);
}
);
width = 1451;
}
);
note = uni256C;
unicode = 256C;
},
{
glyphname = upblock;
lastChange = "2019-12-19 21:32:18 +0000";
layers = (
{
layerId = "10338F47-40ED-49C2-8613-307B859987A6";
paths = (
{
closed = 1;
nodes = (
"1451 1864 LINE",
"0 1864 LINE",
"0 621 LINE",
"1451 621 LINE"
);
}
);
width = 1451;
}
);
note = upblock;
unicode = 2580;
},
{
glyphname = dnblock;
lastChange = "2019-12-19 21:32:18 +0000";
layers = (
{
layerId = "10338F47-40ED-49C2-8613-307B859987A6";
paths = (
{
closed = 1;
nodes = (
"1451 621 LINE",
"0 621 LINE",
"0 -621 LINE",
"1451 -621 LINE"
);
}
);
width = 1451;
}
);
note = dnblock;
unicode = 2584;
},
{
glyphname = block;
lastChange = "2019-12-19 21:32:18 +0000";
layers = (
{
layerId = "10338F47-40ED-49C2-8613-307B859987A6";
paths = (
{
closed = 1;
nodes = (
"1451 1864 LINE",
"0 1864 LINE",
"0 -621 LINE",
"1451 -621 LINE"
);
}
);
width = 1451;
}
);
note = block;
unicode = 2588;
},
{
glyphname = lfblock;
lastChange = "2019-12-19 21:32:18 +0000";
layers = (
{
layerId = "10338F47-40ED-49C2-8613-307B859987A6";
paths = (
{
closed = 1;
nodes = (
"726 1864 LINE",
"0 1864 LINE",
"0 -621 LINE",
"726 -621 LINE"
);
}
);
width = 1451;
}
);
note = lfblock;
unicode = 258C;
},
{
glyphname = rtblock;
lastChange = "2019-12-19 21:32:18 +0000";
layers = (
{
layerId = "10338F47-40ED-49C2-8613-307B859987A6";
paths = (
{
closed = 1;
nodes = (
"1451 1864 LINE",
"725 1864 LINE",
"725 -621 LINE",
"1451 -621 LINE"
);
}
);
width = 1451;
}
);
note = rtblock;
unicode = 2590;
},
{
glyphname = ltshade;
lastChange = "2019-12-19 21:32:18 +0000";
layers = (
{
layerId = "10338F47-40ED-49C2-8613-307B859987A6";
paths = (
{
closed = 1;
nodes = (
"103 1216 LINE",
"207 1216 LINE",
"207 1314 LINE",
"103 1314 LINE"
);
},
{
closed = 1;
nodes = (
"517 1216 LINE",
"621 1216 LINE",
"621 1314 LINE",
"517 1314 LINE"
);
},
{
closed = 1;
nodes = (
"933 1216 LINE",
"1036 1216 LINE",
"1036 1314 LINE",
"933 1314 LINE"
);
},
{
closed = 1;
nodes = (
"310 1023 LINE",
"414 1023 LINE",
"414 1119 LINE",
"310 1119 LINE"
);
},
{
closed = 1;
nodes = (
"725 1023 LINE",
"829 1023 LINE",
"829 1119 LINE",
"725 1119 LINE"
);
},
{
closed = 1;
nodes = (
"1140 1023 LINE",
"1244 1023 LINE",
"1244 1119 LINE",
"1140 1119 LINE"
);
},
{
closed = 1;
nodes = (
"933 831 LINE",
"1036 831 LINE",
"1036 927 LINE",
"933 927 LINE"
);
},
{
closed = 1;
nodes = (
"517 831 LINE",
"621 831 LINE",
"621 927 LINE",
"517 927 LINE"
);
},
{
closed = 1;
nodes = (
"103 831 LINE",
"207 831 LINE",
"207 927 LINE",
"103 927 LINE"
);
},
{
closed = 1;
nodes = (
"1140 636 LINE",
"1244 636 LINE",
"1244 732 LINE",
"1140 732 LINE"
);
},
{
closed = 1;
nodes = (
"725 636 LINE",
"829 636 LINE",
"829 732 LINE",
"725 732 LINE"
);
},
{
closed = 1;
nodes = (
"310 636 LINE",
"414 636 LINE",
"414 732 LINE",
"310 732 LINE"
);
},
{
closed = 1;
nodes = (
"103 444 LINE",
"207 444 LINE",
"207 540 LINE",
"103 540 LINE"
);
},
{
closed = 1;
nodes = (
"517 444 LINE",
"621 444 LINE",
"621 540 LINE",
"517 540 LINE"
);
},
{
closed = 1;
nodes = (
"933 444 LINE",
"1036 444 LINE",
"1036 540 LINE",
"933 540 LINE"
);
},
{
closed = 1;
nodes = (
"1140 249 LINE",
"1244 249 LINE",
"1244 345 LINE",
"1140 345 LINE"
);
},
{
closed = 1;
nodes = (
"725 249 LINE",
"829 249 LINE",
"829 345 LINE",
"725 345 LINE"
);
},
{
closed = 1;
nodes = (
"310 249 LINE",
"414 249 LINE",
"414 345 LINE",
"310 345 LINE"
);
},
{
closed = 1;
nodes = (
"103 56 LINE",
"207 56 LINE",
"207 153 LINE",
"103 153 LINE"
);
},
{
closed = 1;
nodes = (
"517 56 LINE",
"621 56 LINE",
"621 153 LINE",
"517 153 LINE"
);
},
{
closed = 1;
nodes = (
"933 56 LINE",
"1036 56 LINE",
"1036 153 LINE",
"933 153 LINE"
);
},
{
closed = 1;
nodes = (
"310 -136 LINE",
"414 -136 LINE",
"414 -42 LINE",
"310 -42 LINE"
);
},
{
closed = 1;
nodes = (
"725 -136 LINE",
"829 -136 LINE",
"829 -42 LINE",
"725 -42 LINE"
);
},
{
closed = 1;
nodes = (
"1140 -136 LINE",
"1244 -136 LINE",
"1244 -42 LINE",
"1140 -42 LINE"
);
},
{
closed = 1;
nodes = (
"933 -331 LINE",
"1036 -331 LINE",
"1036 -234 LINE",
"933 -234 LINE"
);
},
{
closed = 1;
nodes = (
"517 -331 LINE",
"621 -331 LINE",
"621 -234 LINE",
"517 -234 LINE"
);
},
{
closed = 1;
nodes = (
"103 -331 LINE",
"207 -331 LINE",
"207 -234 LINE",
"103 -234 LINE"
);
},
{
closed = 1;
nodes = (
"310 -523 LINE",
"414 -523 LINE",
"414 -427 LINE",
"310 -427 LINE"
);
},
{
closed = 1;
nodes = (
"725 -523 LINE",
"829 -523 LINE",
"829 -427 LINE",
"725 -427 LINE"
);
},
{
closed = 1;
nodes = (
"1140 -523 LINE",
"1244 -523 LINE",
"1244 -427 LINE",
"1140 -427 LINE"
);
},
{
closed = 1;
nodes = (
"310 1408 LINE",
"414 1408 LINE",
"414 1506 LINE",
"310 1506 LINE"
);
},
{
closed = 1;
nodes = (
"725 1408 LINE",
"829 1408 LINE",
"829 1506 LINE",
"725 1506 LINE"
);
},
{
closed = 1;
nodes = (
"1140 1408 LINE",
"1244 1408 LINE",
"1244 1506 LINE",
"1140 1506 LINE"
);
},
{
closed = 1;
nodes = (
"103 1603 LINE",
"207 1603 LINE",
"207 1699 LINE",
"103 1699 LINE"
);
},
{
closed = 1;
nodes = (
"517 1603 LINE",
"621 1603 LINE",
"621 1699 LINE",
"517 1699 LINE"
);
},
{
closed = 1;
nodes = (
"933 1603 LINE",
"1036 1603 LINE",
"1036 1699 LINE",
"933 1699 LINE"
);
},
{
closed = 1;
nodes = (
"1347 1216 LINE",
"1451 1216 LINE",
"1451 1314 LINE",
"1347 1314 LINE"
);
},
{
closed = 1;
nodes = (
"1347 831 LINE",
"1451 831 LINE",
"1451 927 LINE",
"1347 927 LINE"
);
},
{
closed = 1;
nodes = (
"1347 444 LINE",
"1451 444 LINE",
"1451 540 LINE",
"1347 540 LINE"
);
},
{
closed = 1;
nodes = (
"1347 56 LINE",
"1451 56 LINE",
"1451 153 LINE",
"1347 153 LINE"
);
},
{
closed = 1;
nodes = (
"1347 -331 LINE",
"1451 -331 LINE",
"1451 -234 LINE",
"1347 -234 LINE"
);
},
{
closed = 1;
nodes = (
"1347 1603 LINE",
"1451 1603 LINE",
"1451 1699 LINE",
"1347 1699 LINE"
);
}
);
width = 1451;
}
);
note = ltshade;
unicode = 2591;
},
{
glyphname = shade;
lastChange = "2019-12-19 21:32:18 +0000";
layers = (
{
layerId = "10338F47-40ED-49C2-8613-307B859987A6";
paths = (
{
closed = 1;
nodes = (
"103 1216 LINE",
"207 1216 LINE",
"207 1314 LINE",
"103 1314 LINE"
);
},
{
closed = 1;
nodes = (
"310 1216 LINE",
"414 1216 LINE",
"414 1314 LINE",
"310 1314 LINE"
);
},
{
closed = 1;
nodes = (
"517 1216 LINE",
"621 1216 LINE",
"621 1314 LINE",
"517 1314 LINE"
);
},
{
closed = 1;
nodes = (
"725 1216 LINE",
"829 1216 LINE",
"829 1314 LINE",
"725 1314 LINE"
);
},
{
closed = 1;
nodes = (
"933 1216 LINE",
"1037 1216 LINE",
"1037 1314 LINE",
"933 1314 LINE"
);
},
{
closed = 1;
nodes = (
"1140 1216 LINE",
"1244 1216 LINE",
"1244 1314 LINE",
"1140 1314 LINE"
);
},
{
closed = 1;
nodes = (
"0 1023 LINE",
"103 1023 LINE",
"103 1119 LINE",
"0 1119 LINE"
);
},
{
closed = 1;
nodes = (
"207 1023 LINE",
"310 1023 LINE",
"310 1119 LINE",
"207 1119 LINE"
);
},
{
closed = 1;
nodes = (
"414 1023 LINE",
"517 1023 LINE",
"517 1119 LINE",
"414 1119 LINE"
);
},
{
closed = 1;
nodes = (
"621 1023 LINE",
"725 1023 LINE",
"725 1119 LINE",
"621 1119 LINE"
);
},
{
closed = 1;
nodes = (
"829 1023 LINE",
"933 1023 LINE",
"933 1119 LINE",
"829 1119 LINE"
);
},
{
closed = 1;
nodes = (
"1037 1023 LINE",
"1140 1023 LINE",
"1140 1119 LINE",
"1037 1119 LINE"
);
},
{
closed = 1;
nodes = (
"103 831 LINE",
"207 831 LINE",
"207 927 LINE",
"103 927 LINE"
);
},
{
closed = 1;
nodes = (
"310 831 LINE",
"414 831 LINE",
"414 927 LINE",
"310 927 LINE"
);
},
{
closed = 1;
nodes = (
"517 831 LINE",
"621 831 LINE",
"621 927 LINE",
"517 927 LINE"
);
},
{
closed = 1;
nodes = (
"725 831 LINE",
"829 831 LINE",
"829 927 LINE",
"725 927 LINE"
);
},
{
closed = 1;
nodes = (
"933 831 LINE",
"1037 831 LINE",
"1037 927 LINE",
"933 927 LINE"
);
},
{
closed = 1;
nodes = (
"1140 831 LINE",
"1244 831 LINE",
"1244 927 LINE",
"1140 927 LINE"
);
},
{
closed = 1;
nodes = (
"0 636 LINE",
"103 636 LINE",
"103 732 LINE",
"0 732 LINE"
);
},
{
closed = 1;
nodes = (
"207 636 LINE",
"310 636 LINE",
"310 732 LINE",
"207 732 LINE"
);
},
{
closed = 1;
nodes = (
"414 636 LINE",
"517 636 LINE",
"517 732 LINE",
"414 732 LINE"
);
},
{
closed = 1;
nodes = (
"621 636 LINE",
"725 636 LINE",
"725 732 LINE",
"621 732 LINE"
);
},
{
closed = 1;
nodes = (
"829 636 LINE",
"933 636 LINE",
"933 732 LINE",
"829 732 LINE"
);
},
{
closed = 1;
nodes = (
"1037 636 LINE",
"1140 636 LINE",
"1140 732 LINE",
"1037 732 LINE"
);
},
{
closed = 1;
nodes = (
"103 444 LINE",
"207 444 LINE",
"207 540 LINE",
"103 540 LINE"
);
},
{
closed = 1;
nodes = (
"310 444 LINE",
"414 444 LINE",
"414 540 LINE",
"310 540 LINE"
);
},
{
closed = 1;
nodes = (
"517 444 LINE",
"621 444 LINE",
"621 540 LINE",
"517 540 LINE"
);
},
{
closed = 1;
nodes = (
"725 444 LINE",
"829 444 LINE",
"829 540 LINE",
"725 540 LINE"
);
},
{
closed = 1;
nodes = (
"933 444 LINE",
"1037 444 LINE",
"1037 540 LINE",
"933 540 LINE"
);
},
{
closed = 1;
nodes = (
"1140 444 LINE",
"1244 444 LINE",
"1244 540 LINE",
"1140 540 LINE"
);
},
{
closed = 1;
nodes = (
"0 249 LINE",
"103 249 LINE",
"103 345 LINE",
"0 345 LINE"
);
},
{
closed = 1;
nodes = (
"414 249 LINE",
"517 249 LINE",
"517 345 LINE",
"414 345 LINE"
);
},
{
closed = 1;
nodes = (
"621 249 LINE",
"725 249 LINE",
"725 345 LINE",
"621 345 LINE"
);
},
{
closed = 1;
nodes = (
"829 249 LINE",
"933 249 LINE",
"933 345 LINE",
"829 345 LINE"
);
},
{
closed = 1;
nodes = (
"1037 249 LINE",
"1140 249 LINE",
"1140 345 LINE",
"1037 345 LINE"
);
},
{
closed = 1;
nodes = (
"207 249 LINE",
"310 249 LINE",
"310 345 LINE",
"207 345 LINE"
);
},
{
closed = 1;
nodes = (
"1140 56 LINE",
"1244 56 LINE",
"1244 153 LINE",
"1140 153 LINE"
);
},
{
closed = 1;
nodes = (
"933 56 LINE",
"1037 56 LINE",
"1037 153 LINE",
"933 153 LINE"
);
},
{
closed = 1;
nodes = (
"725 56 LINE",
"829 56 LINE",
"829 153 LINE",
"725 153 LINE"
);
},
{
closed = 1;
nodes = (
"517 56 LINE",
"621 56 LINE",
"621 153 LINE",
"517 153 LINE"
);
},
{
closed = 1;
nodes = (
"310 56 LINE",
"414 56 LINE",
"414 153 LINE",
"310 153 LINE"
);
},
{
closed = 1;
nodes = (
"103 56 LINE",
"207 56 LINE",
"207 153 LINE",
"103 153 LINE"
);
},
{
closed = 1;
nodes = (
"0 -136 LINE",
"103 -136 LINE",
"103 -42 LINE",
"0 -42 LINE"
);
},
{
closed = 1;
nodes = (
"207 -136 LINE",
"310 -136 LINE",
"310 -42 LINE",
"207 -42 LINE"
);
},
{
closed = 1;
nodes = (
"414 -136 LINE",
"517 -136 LINE",
"517 -42 LINE",
"414 -42 LINE"
);
},
{
closed = 1;
nodes = (
"621 -136 LINE",
"725 -136 LINE",
"725 -42 LINE",
"621 -42 LINE"
);
},
{
closed = 1;
nodes = (
"829 -136 LINE",
"933 -136 LINE",
"933 -42 LINE",
"829 -42 LINE"
);
},
{
closed = 1;
nodes = (
"1037 -136 LINE",
"1140 -136 LINE",
"1140 -42 LINE",
"1037 -42 LINE"
);
},
{
closed = 1;
nodes = (
"1140 -331 LINE",
"1244 -331 LINE",
"1244 -234 LINE",
"1140 -234 LINE"
);
},
{
closed = 1;
nodes = (
"933 -331 LINE",
"1037 -331 LINE",
"1037 -234 LINE",
"933 -234 LINE"
);
},
{
closed = 1;
nodes = (
"725 -331 LINE",
"829 -331 LINE",
"829 -234 LINE",
"725 -234 LINE"
);
},
{
closed = 1;
nodes = (
"517 -331 LINE",
"621 -331 LINE",
"621 -234 LINE",
"517 -234 LINE"
);
},
{
closed = 1;
nodes = (
"310 -331 LINE",
"414 -331 LINE",
"414 -234 LINE",
"310 -234 LINE"
);
},
{
closed = 1;
nodes = (
"103 -331 LINE",
"207 -331 LINE",
"207 -234 LINE",
"103 -234 LINE"
);
},
{
closed = 1;
nodes = (
"0 -523 LINE",
"103 -523 LINE",
"103 -427 LINE",
"0 -427 LINE"
);
},
{
closed = 1;
nodes = (
"207 -523 LINE",
"310 -523 LINE",
"310 -427 LINE",
"207 -427 LINE"
);
},
{
closed = 1;
nodes = (
"414 -523 LINE",
"517 -523 LINE",
"517 -427 LINE",
"414 -427 LINE"
);
},
{
closed = 1;
nodes = (
"621 -523 LINE",
"725 -523 LINE",
"725 -427 LINE",
"621 -427 LINE"
);
},
{
closed = 1;
nodes = (
"829 -523 LINE",
"933 -523 LINE",
"933 -427 LINE",
"829 -427 LINE"
);
},
{
closed = 1;
nodes = (
"1037 -523 LINE",
"1140 -523 LINE",
"1140 -427 LINE",
"1037 -427 LINE"
);
},
{
closed = 1;
nodes = (
"0 1408 LINE",
"103 1408 LINE",
"103 1506 LINE",
"0 1506 LINE"
);
},
{
closed = 1;
nodes = (
"207 1408 LINE",
"310 1408 LINE",
"310 1506 LINE",
"207 1506 LINE"
);
},
{
closed = 1;
nodes = (
"414 1408 LINE",
"517 1408 LINE",
"517 1506 LINE",
"414 1506 LINE"
);
},
{
closed = 1;
nodes = (
"621 1408 LINE",
"725 1408 LINE",
"725 1506 LINE",
"621 1506 LINE"
);
},
{
closed = 1;
nodes = (
"829 1408 LINE",
"933 1408 LINE",
"933 1506 LINE",
"829 1506 LINE"
);
},
{
closed = 1;
nodes = (
"1037 1408 LINE",
"1140 1408 LINE",
"1140 1506 LINE",
"1037 1506 LINE"
);
},
{
closed = 1;
nodes = (
"103 1603 LINE",
"207 1603 LINE",
"207 1699 LINE",
"103 1699 LINE"
);
},
{
closed = 1;
nodes = (
"310 1603 LINE",
"414 1603 LINE",
"414 1699 LINE",
"310 1699 LINE"
);
},
{
closed = 1;
nodes = (
"517 1603 LINE",
"621 1603 LINE",
"621 1699 LINE",
"517 1699 LINE"
);
},
{
closed = 1;
nodes = (
"725 1603 LINE",
"829 1603 LINE",
"829 1699 LINE",
"725 1699 LINE"
);
},
{
closed = 1;
nodes = (
"933 1603 LINE",
"1037 1603 LINE",
"1037 1699 LINE",
"933 1699 LINE"
);
},
{
closed = 1;
nodes = (
"1140 1603 LINE",
"1244 1603 LINE",
"1244 1699 LINE",
"1140 1699 LINE"
);
},
{
closed = 1;
nodes = (
"1347 1216 LINE",
"1451 1216 LINE",
"1451 1314 LINE",
"1347 1314 LINE"
);
},
{
closed = 1;
nodes = (
"1244 1023 LINE",
"1347 1023 LINE",
"1347 1119 LINE",
"1244 1119 LINE"
);
},
{
closed = 1;
nodes = (
"1347 831 LINE",
"1451 831 LINE",
"1451 927 LINE",
"1347 927 LINE"
);
},
{
closed = 1;
nodes = (
"1244 636 LINE",
"1347 636 LINE",
"1347 732 LINE",
"1244 732 LINE"
);
},
{
closed = 1;
nodes = (
"1347 444 LINE",
"1451 444 LINE",
"1451 540 LINE",
"1347 540 LINE"
);
},
{
closed = 1;
nodes = (
"1244 249 LINE",
"1347 249 LINE",
"1347 345 LINE",
"1244 345 LINE"
);
},
{
closed = 1;
nodes = (
"1347 56 LINE",
"1451 56 LINE",
"1451 153 LINE",
"1347 153 LINE"
);
},
{
closed = 1;
nodes = (
"1244 -136 LINE",
"1347 -136 LINE",
"1347 -42 LINE",
"1244 -42 LINE"
);
},
{
closed = 1;
nodes = (
"1347 -331 LINE",
"1451 -331 LINE",
"1451 -234 LINE",
"1347 -234 LINE"
);
},
{
closed = 1;
nodes = (
"1244 -523 LINE",
"1347 -523 LINE",
"1347 -427 LINE",
"1244 -427 LINE"
);
},
{
closed = 1;
nodes = (
"1244 1408 LINE",
"1347 1408 LINE",
"1347 1506 LINE",
"1244 1506 LINE"
);
},
{
closed = 1;
nodes = (
"1347 1603 LINE",
"1451 1603 LINE",
"1451 1699 LINE",
"1347 1699 LINE"
);
}
);
width = 1451;
}
);
note = shade;
unicode = 2592;
},
{
glyphname = dkshade;
lastChange = "2019-12-19 21:32:18 +0000";
layers = (
{
layerId = "10338F47-40ED-49C2-8613-307B859987A6";
paths = (
{
closed = 1;
nodes = (
"1493 -523 LINE",
"1386 -523 LINE",
"1386 -427 LINE",
"1493 -427 LINE",
"1493 -136 LINE",
"1386 -136 LINE",
"1386 -42 LINE",
"1493 -42 LINE",
"1493 249 LINE",
"1386 249 LINE",
"1386 345 LINE",
"1493 345 LINE",
"1493 636 LINE",
"1386 636 LINE",
"1386 732 LINE",
"1493 732 LINE",
"1493 1023 LINE",
"1386 1023 LINE",
"1386 1119 LINE",
"1493 1119 LINE",
"1493 1408 LINE",
"1386 1408 LINE",
"1386 1506 LINE",
"1493 1506 LINE",
"1493 1699 LINE",
"1386 1699 LINE",
"1386 1603 LINE",
"1280 1603 LINE",
"1280 1699 LINE",
"1173 1699 LINE",
"1173 1603 LINE",
"1067 1603 LINE",
"1067 1699 LINE",
"960 1699 LINE",
"960 1603 LINE",
"853 1603 LINE",
"853 1699 LINE",
"746 1699 LINE",
"746 1603 LINE",
"639 1603 LINE",
"639 1699 LINE",
"532 1699 LINE",
"532 1603 LINE",
"426 1603 LINE",
"426 1699 LINE",
"319 1699 LINE",
"319 1603 LINE",
"213 1603 LINE",
"213 1699 LINE",
"106 1699 LINE",
"106 1603 LINE",
"0 1603 LINE",
"0 1314 LINE",
"106 1314 LINE",
"106 1216 LINE",
"0 1216 LINE",
"0 927 LINE",
"106 927 LINE",
"106 829 LINE",
"0 829 LINE",
"0 540 LINE",
"106 540 LINE",
"106 444 LINE",
"0 444 LINE",
"0 153 LINE",
"106 153 LINE",
"106 56 LINE",
"0 56 LINE",
"0 -234 LINE",
"106 -234 LINE",
"106 -331 LINE",
"0 -331 LINE",
"0 -621 LINE",
"1493 -621 LINE"
);
},
{
closed = 1;
nodes = (
"213 1119 LINE",
"213 1023 LINE",
"106 1023 LINE",
"106 1119 LINE"
);
},
{
closed = 1;
nodes = (
"426 1119 LINE",
"426 1023 LINE",
"319 1023 LINE",
"319 1119 LINE"
);
},
{
closed = 1;
nodes = (
"639 1119 LINE",
"639 1023 LINE",
"532 1023 LINE",
"532 1119 LINE"
);
},
{
closed = 1;
nodes = (
"853 1119 LINE",
"853 1023 LINE",
"746 1023 LINE",
"746 1119 LINE"
);
},
{
closed = 1;
nodes = (
"960 829 LINE",
"853 829 LINE",
"853 927 LINE",
"960 927 LINE"
);
},
{
closed = 1;
nodes = (
"746 829 LINE",
"639 829 LINE",
"639 927 LINE",
"746 927 LINE"
);
},
{
closed = 1;
nodes = (
"532 829 LINE",
"426 829 LINE",
"426 927 LINE",
"532 927 LINE"
);
},
{
closed = 1;
nodes = (
"319 829 LINE",
"213 829 LINE",
"213 927 LINE",
"319 927 LINE"
);
},
{
closed = 1;
nodes = (
"213 732 LINE",
"213 636 LINE",
"106 636 LINE",
"106 732 LINE"
);
},
{
closed = 1;
nodes = (
"426 732 LINE",
"426 636 LINE",
"319 636 LINE",
"319 732 LINE"
);
},
{
closed = 1;
nodes = (
"639 732 LINE",
"639 636 LINE",
"532 636 LINE",
"532 732 LINE"
);
},
{
closed = 1;
nodes = (
"853 732 LINE",
"853 636 LINE",
"746 636 LINE",
"746 732 LINE"
);
},
{
closed = 1;
nodes = (
"319 444 LINE",
"213 444 LINE",
"213 540 LINE",
"319 540 LINE"
);
},
{
closed = 1;
nodes = (
"532 540 LINE",
"532 444 LINE",
"426 444 LINE",
"426 540 LINE"
);
},
{
closed = 1;
nodes = (
"746 540 LINE",
"746 444 LINE",
"639 444 LINE",
"639 540 LINE"
);
},
{
closed = 1;
nodes = (
"960 540 LINE",
"960 444 LINE",
"853 444 LINE",
"853 540 LINE"
);
},
{
closed = 1;
nodes = (
"213 345 LINE",
"213 249 LINE",
"106 249 LINE",
"106 345 LINE"
);
},
{
closed = 1;
nodes = (
"639 345 LINE",
"639 249 LINE",
"532 249 LINE",
"532 345 LINE"
);
},
{
closed = 1;
nodes = (
"319 249 LINE",
"319 345 LINE",
"426 345 LINE",
"426 249 LINE"
);
},
{
closed = 1;
nodes = (
"853 345 LINE",
"853 249 LINE",
"746 249 LINE",
"746 345 LINE"
);
},
{
closed = 1;
nodes = (
"853 56 LINE",
"853 153 LINE",
"960 153 LINE",
"960 56 LINE"
);
},
{
closed = 1;
nodes = (
"639 56 LINE",
"639 153 LINE",
"746 153 LINE",
"746 56 LINE"
);
},
{
closed = 1;
nodes = (
"426 56 LINE",
"426 153 LINE",
"532 153 LINE",
"532 56 LINE"
);
},
{
closed = 1;
nodes = (
"213 56 LINE",
"213 153 LINE",
"319 153 LINE",
"319 56 LINE"
);
},
{
closed = 1;
nodes = (
"213 -42 LINE",
"213 -136 LINE",
"106 -136 LINE",
"106 -42 LINE"
);
},
{
closed = 1;
nodes = (
"426 -42 LINE",
"426 -136 LINE",
"319 -136 LINE",
"319 -42 LINE"
);
},
{
closed = 1;
nodes = (
"639 -42 LINE",
"639 -136 LINE",
"532 -136 LINE",
"532 -42 LINE"
);
},
{
closed = 1;
nodes = (
"853 -42 LINE",
"853 -136 LINE",
"746 -136 LINE",
"746 -42 LINE"
);
},
{
closed = 1;
nodes = (
"853 -331 LINE",
"853 -234 LINE",
"960 -234 LINE",
"960 -331 LINE"
);
},
{
closed = 1;
nodes = (
"639 -331 LINE",
"639 -234 LINE",
"746 -234 LINE",
"746 -331 LINE"
);
},
{
closed = 1;
nodes = (
"426 -331 LINE",
"426 -234 LINE",
"532 -234 LINE",
"532 -331 LINE"
);
},
{
closed = 1;
nodes = (
"213 -331 LINE",
"213 -234 LINE",
"319 -234 LINE",
"319 -331 LINE"
);
},
{
closed = 1;
nodes = (
"213 -427 LINE",
"213 -523 LINE",
"106 -523 LINE",
"106 -427 LINE"
);
},
{
closed = 1;
nodes = (
"426 -427 LINE",
"426 -523 LINE",
"319 -523 LINE",
"319 -427 LINE"
);
},
{
closed = 1;
nodes = (
"639 -427 LINE",
"639 -523 LINE",
"532 -523 LINE",
"532 -427 LINE"
);
},
{
closed = 1;
nodes = (
"853 -427 LINE",
"853 -523 LINE",
"746 -523 LINE",
"746 -427 LINE"
);
},
{
closed = 1;
nodes = (
"960 1216 LINE",
"853 1216 LINE",
"853 1314 LINE",
"960 1314 LINE"
);
},
{
closed = 1;
nodes = (
"746 1216 LINE",
"639 1216 LINE",
"639 1314 LINE",
"746 1314 LINE"
);
},
{
closed = 1;
nodes = (
"532 1216 LINE",
"426 1216 LINE",
"426 1314 LINE",
"532 1314 LINE"
);
},
{
closed = 1;
nodes = (
"319 1216 LINE",
"213 1216 LINE",
"213 1314 LINE",
"319 1314 LINE"
);
},
{
closed = 1;
nodes = (
"853 1408 LINE",
"746 1408 LINE",
"746 1506 LINE",
"853 1506 LINE"
);
},
{
closed = 1;
nodes = (
"639 1408 LINE",
"532 1408 LINE",
"532 1506 LINE",
"639 1506 LINE"
);
},
{
closed = 1;
nodes = (
"426 1408 LINE",
"319 1408 LINE",
"319 1506 LINE",
"426 1506 LINE"
);
},
{
closed = 1;
nodes = (
"213 1408 LINE",
"106 1408 LINE",
"106 1506 LINE",
"213 1506 LINE"
);
},
{
closed = 1;
nodes = (
"1067 1119 LINE",
"1067 1023 LINE",
"960 1023 LINE",
"960 1119 LINE"
);
},
{
closed = 1;
nodes = (
"1280 1119 LINE",
"1280 1023 LINE",
"1173 1023 LINE",
"1173 1119 LINE"
);
},
{
closed = 1;
nodes = (
"1386 829 LINE",
"1280 829 LINE",
"1280 927 LINE",
"1386 927 LINE"
);
},
{
closed = 1;
nodes = (
"1173 829 LINE",
"1067 829 LINE",
"1067 927 LINE",
"1173 927 LINE"
);
},
{
closed = 1;
nodes = (
"1067 732 LINE",
"1067 636 LINE",
"960 636 LINE",
"960 732 LINE"
);
},
{
closed = 1;
nodes = (
"1280 732 LINE",
"1280 636 LINE",
"1173 636 LINE",
"1173 732 LINE"
);
},
{
closed = 1;
nodes = (
"1173 444 LINE",
"1067 444 LINE",
"1067 540 LINE",
"1173 540 LINE"
);
},
{
closed = 1;
nodes = (
"1386 540 LINE",
"1386 444 LINE",
"1280 444 LINE",
"1280 540 LINE"
);
},
{
closed = 1;
nodes = (
"1067 345 LINE",
"1067 249 LINE",
"960 249 LINE",
"960 345 LINE"
);
},
{
closed = 1;
nodes = (
"1173 249 LINE",
"1173 345 LINE",
"1280 345 LINE",
"1280 249 LINE"
);
},
{
closed = 1;
nodes = (
"1280 56 LINE",
"1280 153 LINE",
"1386 153 LINE",
"1386 56 LINE"
);
},
{
closed = 1;
nodes = (
"1067 56 LINE",
"1067 153 LINE",
"1173 153 LINE",
"1173 56 LINE"
);
},
{
closed = 1;
nodes = (
"1067 -42 LINE",
"1067 -136 LINE",
"960 -136 LINE",
"960 -42 LINE"
);
},
{
closed = 1;
nodes = (
"1280 -42 LINE",
"1280 -136 LINE",
"1173 -136 LINE",
"1173 -42 LINE"
);
},
{
closed = 1;
nodes = (
"1280 -331 LINE",
"1280 -234 LINE",
"1386 -234 LINE",
"1386 -331 LINE"
);
},
{
closed = 1;
nodes = (
"1067 -331 LINE",
"1067 -234 LINE",
"1173 -234 LINE",
"1173 -331 LINE"
);
},
{
closed = 1;
nodes = (
"1067 -427 LINE",
"1067 -523 LINE",
"960 -523 LINE",
"960 -427 LINE"
);
},
{
closed = 1;
nodes = (
"1280 -427 LINE",
"1280 -523 LINE",
"1173 -523 LINE",
"1173 -427 LINE"
);
},
{
closed = 1;
nodes = (
"1386 1216 LINE",
"1280 1216 LINE",
"1280 1314 LINE",
"1386 1314 LINE"
);
},
{
closed = 1;
nodes = (
"1173 1216 LINE",
"1067 1216 LINE",
"1067 1314 LINE",
"1173 1314 LINE"
);
},
{
closed = 1;
nodes = (
"1280 1408 LINE",
"1173 1408 LINE",
"1173 1506 LINE",
"1280 1506 LINE"
);
},
{
closed = 1;
nodes = (
"1067 1408 LINE",
"960 1408 LINE",
"960 1506 LINE",
"1067 1506 LINE"
);
}
);
width = 1493;
}
);
note = dkshade;
unicode = 2593;
},
{
glyphname = filledbox;
lastChange = "2019-12-19 21:32:18 +0000";
layers = (
{
layerId = "10338F47-40ED-49C2-8613-307B859987A6";
paths = (
{
closed = 1;
nodes = (
"123 117 LINE",
"1114 117 LINE",
"1114 1108 LINE",
"123 1108 LINE"
);
}
);
width = 1237;
}
);
note = filledbox;
unicode = 25A0;
},
{
glyphname = filledrect;
lastChange = "2019-12-19 21:32:18 +0000";
layers = (
{
layerId = "10338F47-40ED-49C2-8613-307B859987A6";
paths = (
{
closed = 1;
nodes = (
"0 0 LINE",
"2048 0 LINE",
"2048 616 LINE",
"0 616 LINE"
);
}
);
width = 2048;
}
);
note = filledrect;
unicode = 25AC;
},
{
glyphname = triagup;
lastChange = "2019-12-19 21:32:18 +0000";
layers = (
{
layerId = "10338F47-40ED-49C2-8613-307B859987A6";
paths = (
{
closed = 1;
nodes = (
"1612 0 LINE",
"1014 1198 LINE",
"414 0 LINE"
);
}
);
width = 2027;
}
);
note = triagup;
unicode = 25B2;
},
{
glyphname = triagrt;
lastChange = "2019-12-19 21:32:18 +0000";
layers = (
{
layerId = "10338F47-40ED-49C2-8613-307B859987A6";
paths = (
{
closed = 1;
nodes = (
"401 -27 LINE",
"1626 586 LINE",
"401 1196 LINE"
);
}
);
width = 2027;
}
);
note = triagrt;
unicode = 25BA;
},
{
glyphname = triagdn;
lastChange = "2019-12-19 21:32:18 +0000";
layers = (
{
layerId = "10338F47-40ED-49C2-8613-307B859987A6";
paths = (
{
closed = 1;
nodes = (
"414 1171 LINE",
"1014 -27 LINE",
"1612 1171 LINE"
);
}
);
width = 2027;
}
);
note = triagdn;
unicode = 25BC;
},
{
glyphname = triaglf;
lastChange = "2019-12-19 21:32:18 +0000";
layers = (
{
layerId = "10338F47-40ED-49C2-8613-307B859987A6";
paths = (
{
closed = 1;
nodes = (
"401 586 LINE",
"1626 -27 LINE",
"1626 1196 LINE"
);
}
);
width = 2027;
}
);
note = triaglf;
unicode = 25C4;
},
{
glyphname = circle;
lastChange = "2019-12-19 21:32:18 +0000";
layers = (
{
layerId = "10338F47-40ED-49C2-8613-307B859987A6";
paths = (
{
closed = 1;
nodes = (
"167 490 OFFCURVE",
"287 282 OFFCURVE",
"495 162 OFFCURVE",
"617 162 QCURVE SMOOTH",
"740 162 OFFCURVE",
"949 282 OFFCURVE",
"1070 491 OFFCURVE",
"1070 612 QCURVE SMOOTH",
"1070 733 OFFCURVE",
"949 944 OFFCURVE",
"739 1065 OFFCURVE",
"617 1065 QCURVE SMOOTH",
"496 1065 OFFCURVE",
"287 944 OFFCURVE",
"167 734 OFFCURVE",
"167 612 QCURVE SMOOTH"
);
},
{
closed = 1;
nodes = (
"253 712 OFFCURVE",
"351 881 OFFCURVE",
"520 979 OFFCURVE",
"617 979 QCURVE SMOOTH",
"715 979 OFFCURVE",
"886 881 OFFCURVE",
"984 710 OFFCURVE",
"984 612 QCURVE SMOOTH",
"984 514 OFFCURVE",
"884 344 OFFCURVE",
"715 248 OFFCURVE",
"617 248 QCURVE SMOOTH",
"518 248 OFFCURVE",
"351 345 OFFCURVE",
"253 514 OFFCURVE",
"253 612 QCURVE SMOOTH"
);
}
);
width = 1237;
}
);
note = circle;
unicode = 25CB;
},
{
glyphname = invbullet;
lastChange = "2019-12-19 21:32:18 +0000";
layers = (
{
layerId = "10338F47-40ED-49C2-8613-307B859987A6";
paths = (
{
closed = 1;
nodes = (
"1196 0 LINE",
"1196 1155 LINE",
"41 1155 LINE",
"41 0 LINE"
);
},
{
closed = 1;
nodes = (
"176 695 OFFCURVE",
"293 899 OFFCURVE",
"498 1018 OFFCURVE",
"616 1018 QCURVE SMOOTH",
"735 1018 OFFCURVE",
"939 900 OFFCURVE",
"1057 695 OFFCURVE",
"1057 577 QCURVE SMOOTH",
"1057 460 OFFCURVE",
"939 255 OFFCURVE",
"734 137 OFFCURVE",
"616 137 QCURVE SMOOTH",
"497 137 OFFCURVE",
"294 255 OFFCURVE",
"176 459 OFFCURVE",
"176 577 QCURVE SMOOTH"
);
}
);
width = 1237;
}
);
note = invbullet;
unicode = 25D8;
},
{
glyphname = invcircle;
lastChange = "2019-12-19 21:32:18 +0000";
layers = (
{
layerId = "10338F47-40ED-49C2-8613-307B859987A6";
paths = (
{
closed = 1;
nodes = (
"1196 0 LINE",
"1196 1155 LINE",
"41 1155 LINE",
"41 0 LINE"
);
},
{
closed = 1;
nodes = (
"253 480 OFFCURVE",
"351 310 OFFCURVE",
"521 212 OFFCURVE",
"618 212 QCURVE SMOOTH",
"715 212 OFFCURVE",
"885 310 OFFCURVE",
"983 480 OFFCURVE",
"983 577 QCURVE SMOOTH",
"983 674 OFFCURVE",
"885 844 OFFCURVE",
"715 942 OFFCURVE",
"618 942 QCURVE SMOOTH",
"521 942 OFFCURVE",
"351 844 OFFCURVE",
"253 674 OFFCURVE",
"253 577 QCURVE SMOOTH"
);
},
{
closed = 1;
nodes = (
"176 695 OFFCURVE",
"293 899 OFFCURVE",
"498 1018 OFFCURVE",
"616 1018 QCURVE SMOOTH",
"735 1018 OFFCURVE",
"939 900 OFFCURVE",
"1057 695 OFFCURVE",
"1057 577 QCURVE SMOOTH",
"1057 460 OFFCURVE",
"939 255 OFFCURVE",
"734 137 OFFCURVE",
"616 137 QCURVE SMOOTH",
"497 137 OFFCURVE",
"294 255 OFFCURVE",
"176 459 OFFCURVE",
"176 577 QCURVE SMOOTH"
);
}
);
width = 1237;
}
);
note = invcircle;
unicode = 25D9;
},
